<svg width="300" height="300" viewBox="0 0 300 300" fill="none" xmlns="http://www.w3.org/2000/svg">
<path fill-rule="evenodd" clip-rule="evenodd" d="M168.213 104.006C171.845 99.031 174.111 93.0986 173.178 86.7117C170.491 68.3094 145.044 74.3128 140.736 84.026C136.428 93.7392 138.801 117.379 145.401 118.562C148.033 119.033 153.41 116.99 158.755 113.195L157.108 138.317L177.855 136.76L168.213 104.006Z" fill="#DEABBF"/>
<path fill-rule="evenodd" clip-rule="evenodd" d="M148.167 73.2418C150.937 72.1645 155.031 71.5623 156.777 71.6307C155.615 69.3452 155.027 66.7458 155.153 64.1623C155.276 61.652 156.228 59.4509 157.089 57.1547C157.486 56.0963 157.947 55.0387 158.689 54.1963C159.444 53.338 160.437 52.7343 161.501 52.4021C162.589 52.062 163.749 51.9964 164.876 52.1463C165.374 52.2125 165.831 52.4039 166.322 52.4925C166.824 52.5833 167.04 52.2568 167.375 51.9199C168.181 51.1082 169.417 50.6445 170.498 50.4306C171.711 50.1907 172.994 50.28 174.192 50.5946C175.357 50.9009 176.496 51.4549 177.387 52.3197C177.784 52.7047 178.151 53.1491 178.405 53.6512C178.51 53.8572 178.534 53.9821 178.752 54.0441C178.954 54.1015 179.184 54.0863 179.391 54.1398C181.4 54.6561 183.188 56.0438 184.246 57.9184C184.863 59.0121 185.265 60.9891 185.364 63.2314C185.463 65.4737 183.881 71.4627 182.152 73.7337C180.608 75.7607 178.223 77.201 175.872 77.9296C177.596 79.6253 178.824 81.8139 179.779 84.0618C180.816 86.5036 181.537 89.0675 181.93 91.7054C182.303 94.2118 182.52 96.8757 182.115 99.3865C181.735 101.735 180.695 103.715 178.812 105.064C177.95 105.682 177.008 106.168 176.059 106.619C175.123 107.063 174.183 107.498 173.189 107.782C171.307 108.321 169.1 108.418 167.514 107.008C166.943 106.499 166.307 105.854 165.87 105.213C165.713 104.983 165.617 104.831 165.768 104.583C165.95 104.286 166.261 104.045 166.505 103.805C167.894 102.436 168.687 100.688 168.768 98.6746C168.851 96.6321 168.111 94.0594 166.076 93.3235C163.564 92.4151 160.982 93.8682 158.91 95.1975C157.748 92.0267 155.645 89.2511 152.578 87.9869C149.185 86.5883 145.42 86.6776 141.954 85.5192C141.051 85.2173 140.128 84.867 139.427 84.1664C139.134 83.8736 138.788 83.4913 138.649 83.0854C138.467 82.5522 138.784 82.0699 139.023 81.6256C140.29 79.2698 145.397 74.3191 148.167 73.2418Z" fill="#B9517A"/>
<path fill-rule="evenodd" clip-rule="evenodd" d="M179.9 132.924C179.818 132.24 179.733 131.553 179.646 130.864L178.824 131.083C178.728 130.94 178.63 130.8 178.531 130.662L153.986 130.042C151.561 143.471 138.608 154.105 129.897 163.695C116.355 178.602 94.2959 193.852 101.775 220.981C108.514 245.426 135.989 254.16 184.199 247.182C186.387 235.066 178.628 221.087 180.971 206.298C183.201 192.219 188.252 149.254 179.9 132.924Z" fill="#B9517A"/>
<path fill-rule="evenodd" clip-rule="evenodd" d="M159.235 232.341C159.305 233.077 163.663 231.076 163.735 231.841C185.735 208.841 185.937 185.115 181.23 147.639C183.3 184.07 187.235 206.84 159.235 232.341Z" fill="#3B1427" fill-opacity="0.6"/>
<path d="M114 200.841L131 217.841M131 200.841L114 217.841" stroke="white" stroke-width="4" stroke-linecap="round" stroke-linejoin="round"/>
<path fill-rule="evenodd" clip-rule="evenodd" d="M145.264 217.887C146.279 220.548 148.391 225.831 151.598 233.735C145.206 240.527 141.687 244.482 141.041 245.601C140.825 245.975 140.572 246.435 140.288 246.953C138.407 250.377 135.149 256.31 132.148 256.3C124.914 256.275 119.389 247.409 119.926 243.328C120.184 242.863 120.961 243.11 122.054 243.458C123.494 243.917 125.483 244.55 127.556 243.958C129.495 243.404 135.397 234.714 145.264 217.887Z" fill="#DEABBF"/>
<path fill-rule="evenodd" clip-rule="evenodd" d="M111.723 175.068C114.17 172.67 116.187 171.626 119.485 172.222C121.359 172.56 120.886 173 120.044 173.784C119.405 174.378 118.553 175.17 118.356 176.266C118.143 177.445 119.904 178.733 121.791 180.113C123.966 181.702 126.306 183.414 125.98 185.219C125.371 188.59 111.35 191.236 108.219 190.671C105.089 190.106 109.277 177.467 111.723 175.068Z" fill="#DEABBF"/>
</svg>
