<svg width="300" height="300" viewBox="0 0 300 300" fill="none" xmlns="http://www.w3.org/2000/svg">
<path fill-rule="evenodd" clip-rule="evenodd" d="M259.142 95.6135C262.613 90.8596 264.778 85.1905 263.887 79.0872C261.319 61.5018 237.002 67.2386 232.885 76.5207C228.768 85.8027 231.036 108.393 237.343 109.523C239.858 109.974 244.997 108.021 250.104 104.395L248.53 128.402L268.356 126.913L259.142 95.6135Z" fill="#DEABBF"/>
<path fill-rule="evenodd" clip-rule="evenodd" d="M239.988 66.2152C242.635 65.1857 246.546 64.6103 248.215 64.6756C247.104 62.4915 246.542 60.0076 246.663 57.5388C246.781 55.1399 247.691 53.0365 248.514 50.8422C248.893 49.8308 249.333 48.8202 250.042 48.0151C250.764 47.195 251.713 46.6181 252.729 46.3006C253.769 45.9756 254.877 45.9129 255.954 46.0561C256.431 46.1195 256.867 46.3023 257.336 46.387C257.817 46.4737 258.023 46.1618 258.342 45.8398C259.113 45.0641 260.294 44.621 261.327 44.4166C262.486 44.1874 263.712 44.2727 264.857 44.5734C265.97 44.8661 267.059 45.3955 267.91 46.2219C268.289 46.5898 268.64 47.0145 268.883 47.4943C268.983 47.6912 269.006 47.8105 269.215 47.8697C269.407 47.9246 269.627 47.9101 269.825 47.9611C271.745 48.4546 273.454 49.7806 274.465 51.5721C275.054 52.6172 275.438 54.5065 275.533 56.6492C275.627 58.792 274.116 64.515 272.463 66.6852C270.988 68.6223 268.709 69.9986 266.463 70.6949C268.11 72.3153 269.283 74.4068 270.195 76.5549C271.187 78.8883 271.875 81.3383 272.251 83.8592C272.608 86.2543 272.816 88.8 272.428 91.1993C272.065 93.4431 271.072 95.3361 269.272 96.6247C268.448 97.2151 267.548 97.6796 266.641 98.1106C265.746 98.5353 264.848 98.9503 263.898 99.2223C262.101 99.7368 259.991 99.83 258.476 98.4821C257.929 97.9962 257.322 97.3796 256.904 96.7672C256.754 96.547 256.663 96.4024 256.807 96.1653C256.981 95.8813 257.278 95.6513 257.511 95.4218C258.839 94.1132 259.596 92.4426 259.674 90.519C259.753 88.5672 259.046 86.1087 257.101 85.4055C254.701 84.5374 252.233 85.926 250.253 87.1963C249.143 84.1662 247.133 81.5138 244.203 80.3057C240.96 78.9692 237.362 79.0545 234.05 77.9476C233.187 77.6591 232.305 77.3244 231.635 76.6549C231.356 76.3751 231.024 76.0097 230.892 75.6218C230.718 75.1123 231.02 74.6514 231.249 74.2268C232.46 71.9756 237.341 67.2447 239.988 66.2152Z" fill="#B9517A"/>
<path fill-rule="evenodd" clip-rule="evenodd" d="M270.312 123.248C270.233 122.594 270.152 121.937 270.069 121.279L269.283 121.489C269.191 121.352 269.098 121.218 269.003 121.086L245.548 120.494C243.231 133.326 230.853 143.489 222.528 152.653C209.588 166.898 188.508 181.471 195.655 207.396C202.094 230.756 228.35 239.102 274.42 232.433C276.511 220.855 269.096 207.497 271.335 193.364C273.466 179.91 278.293 138.853 270.312 123.248Z" fill="#B9517A"/>
<path fill-rule="evenodd" clip-rule="evenodd" d="M225.994 206.581C225.89 198.43 225.85 192.993 225.872 190.271C211.235 201.813 202.958 207.494 201.04 207.312C197.432 206.97 195.376 203.345 194.468 204.096C192.57 207.541 194.402 217.354 200.832 219.894C203.902 221.107 210.018 215.428 212.469 213.467C213.433 212.696 217.941 210.4 225.994 206.581ZM212.578 160.801C209.426 160.232 207.498 161.229 205.16 163.521C202.822 165.813 198.821 177.891 201.812 178.431C204.804 178.971 218.203 176.443 218.785 173.221C219.366 169.999 211.06 167.091 211.498 164.665C211.936 162.24 215.729 161.37 212.578 160.801Z" fill="#DEABBF"/>
<path fill-rule="evenodd" clip-rule="evenodd" d="M230.191 219.713C230.257 220.417 230.324 221.134 230.393 221.865C270.603 203.359 276.081 173.122 271.583 137.309C273.561 172.123 265.218 199.678 230.191 219.713Z" fill="#3B1427" fill-opacity="0.6"/>
<path fill-rule="evenodd" clip-rule="evenodd" d="M119.006 81.4964C121.778 91.7116 125.39 114.673 121.704 118.275H98.382C98.3797 118.233 98.3773 118.192 98.375 118.151C89.7309 117.194 83.0078 109.865 83.0078 100.966V84.0778C83.0078 74.5285 90.749 66.7874 100.298 66.7874H101.907C110.579 66.7874 117.76 73.1716 119.006 81.4964Z" fill="#3B1427"/>
<path fill-rule="evenodd" clip-rule="evenodd" d="M92.0655 97.7413C88.3598 93.3916 85.8517 88.0609 86.2708 82.0877C87.4783 64.8773 111.436 68.6634 116.096 77.3497C120.756 86.036 120.202 108.07 114.18 109.622C111.778 110.241 106.661 108.725 101.453 105.586L104.722 128.711H85.4209L92.0655 97.7413Z" fill="#B9517A"/>
<path fill-rule="evenodd" clip-rule="evenodd" d="M97.2825 94.8339C98.1718 104.386 97.8155 115.295 95.1653 117.884H71.8433C70.5439 95.3073 83.1022 104.05 83.1022 82.7933C83.8852 82.0283 84.625 81.2711 85.3571 80.6181L85.3312 79.993C89.3696 71.7254 94.4931 67.5916 100.702 67.5916C110.014 67.5916 112.954 71.9249 115.457 75.6039C113.585 82.0256 106.322 82.9778 99.8687 86.9806C99.108 86.3625 98.138 85.9921 97.0815 85.9921C94.6387 85.9921 92.6584 87.9724 92.6584 90.4152C92.6584 92.8581 94.6387 94.8384 97.0815 94.8384C97.1489 94.8384 97.2159 94.8369 97.2825 94.8339Z" fill="#3B1427"/>
<path fill-rule="evenodd" clip-rule="evenodd" d="M144.801 171.584L176.553 167.253C182.905 163.72 188.748 161.328 194.083 160.078C195.584 160.034 197.973 160.579 194.415 163.546C190.857 166.512 187.247 169.793 187.881 171.375C188.515 172.958 191.824 172.369 192.372 174.804C192.737 176.427 187.367 176.691 176.262 175.595L150.498 185.81L144.801 171.584ZM45.0551 178.934L62.6651 179C43.3553 222.454 33.2868 245.206 32.4597 247.256C30.5989 251.867 34.5367 258.891 36.2207 262.665C30.736 265.12 31.3204 256.031 24.4016 259.249C18.0864 262.187 13.2825 267.511 5.98618 263.009C5.08914 262.455 4.10614 260.371 6.4812 258.743C12.3984 254.686 20.9253 247.585 22.0774 245.247C23.6486 242.06 31.3078 219.955 45.0551 178.934Z" fill="#B9517A"/>
<path fill-rule="evenodd" clip-rule="evenodd" d="M93.2904 123.082L107.079 124C110.474 154.722 128.971 174.127 170.383 167.558L175.885 207.12C137.179 212.123 103.233 196.626 96.2765 154.67C94.4755 143.809 93.0535 132.506 93.2904 123.082Z" fill="#B9517A"/>
<path fill-rule="evenodd" clip-rule="evenodd" d="M93.2904 123.082L107.079 124C110.474 154.722 128.971 174.127 170.383 167.558L175.885 207.12C137.179 212.123 103.233 196.626 96.2765 154.67C94.4755 143.809 93.0535 132.506 93.2904 123.082Z" fill="#3B1427" fill-opacity="0.6"/>
<path fill-rule="evenodd" clip-rule="evenodd" d="M86.4887 119.074L107.379 123.858C107.379 159.789 118.825 182.714 124.696 209.132L66.7386 222.074C65.9438 231.202 66.9929 227.643 66.7386 237.279H24.4932C34.0662 186.344 54.2717 146.938 85.1096 119.061H86.4777L86.4887 119.074Z" fill="#DEABBF"/>
<path fill-rule="evenodd" clip-rule="evenodd" d="M77.177 157.871C75.723 180.261 77.3288 207.423 80.493 219.207L66.6367 222.074C68.2112 203.99 72.628 173.961 77.177 157.871Z" fill="#B9517A"/>
<text fill="#B9517A" xml:space="preserve" style="white-space: pre" font-family="Ink Blossoms" font-size="40" letter-spacing="0em"><tspan x="158.839" y="96.1045">?!</tspan></text>
</svg>
