<svg width="300" height="300" viewBox="0 0 300 300" fill="none" xmlns="http://www.w3.org/2000/svg">
<path d="M116.901 259C140.558 259 159.735 240.695 159.735 218.113C159.735 195.532 140.558 177.227 116.901 177.227C93.2447 177.227 74.0674 195.532 74.0674 218.113C74.0674 240.695 93.2447 259 116.901 259Z" fill="#6D2C48"/>
<path fill-rule="evenodd" clip-rule="evenodd" d="M197.847 252.691C190.72 236.916 185.565 223.18 183.496 215.932C179.954 203.523 177.259 192.604 176.577 188.526C174.953 178.802 189.073 178.235 190.939 183.068C193.764 190.383 198.695 214.415 204.62 250.715L197.847 252.691ZM115.172 203.184C121.711 200.599 144.613 192.51 155.658 190.222C158.832 189.564 161.908 188.953 164.8 188.401C173.397 186.76 177.851 202.269 169.571 203.46C148.951 206.428 119.719 209.492 117.218 209.836C113.712 210.318 111.062 204.809 115.172 203.184Z" fill="#DEABBF"/>
<path fill-rule="evenodd" clip-rule="evenodd" d="M170.076 184.133L134.703 166.127V162.207H138.91C173.131 170.927 190.618 176.515 191.371 178.972C191.379 178.998 191.387 179.025 191.393 179.051C191.41 179.074 191.427 179.097 191.444 179.12C198.226 188.447 202.288 233.982 203.621 237.392L190.625 239.331C185.654 220.897 169.749 208.055 170.171 185.976C170.057 185.329 170.029 184.714 170.076 184.133Z" fill="#B9517A"/>
<path fill-rule="evenodd" clip-rule="evenodd" d="M170.076 184.133L134.703 166.127V162.207H138.91C173.131 170.927 190.618 176.515 191.371 178.972C191.379 178.998 191.387 179.025 191.393 179.051C191.41 179.074 191.427 179.097 191.444 179.12C198.226 188.447 202.288 233.982 203.621 237.392L190.625 239.331C185.654 220.897 169.749 208.055 170.171 185.976C170.057 185.329 170.029 184.714 170.076 184.133Z" fill="#3B1427" fill-opacity="0.6"/>
<path fill-rule="evenodd" clip-rule="evenodd" d="M137.643 194.828C134.406 194.18 131.426 193.601 128.875 193.154C112.402 190.265 107.598 181.447 110.438 162.207H140.79C145.748 163.631 171.515 174.437 184.884 180.184C193.732 183.988 190.943 197.7 185.932 201.269C185.905 201.488 185.815 201.636 185.654 201.703C158.7 212.875 137.377 207.013 130.253 208.886L126.959 198.492L137.643 194.828Z" fill="#B9517A"/>
<path d="M136.042 171.718L111.976 173.143C111.174 173.143 109.569 172.573 109.569 170.294V162.697L111.013 160.323L145.669 162.697L150.001 165.546L136.042 171.718Z" fill="#3B1427" fill-opacity="0.6"/>
<path fill-rule="evenodd" clip-rule="evenodd" d="M117.689 201.616C115.871 201.836 114.577 202.138 113.805 202.523C112.868 202.99 111.57 203.82 109.913 205.014C110.408 206.048 114.858 215.346 123.262 232.908C126.129 232.377 127.29 231.281 126.743 229.619C126.197 227.957 125.757 226.569 125.425 225.456L125.299 209.463C125.296 209.155 125.038 208.922 124.723 208.941C124.717 208.942 124.712 208.942 124.707 208.942L122.182 209.168C120.781 208.076 119.864 207.078 119.431 206.174C119.079 205.439 118.906 204.27 118.911 202.665C118.912 202.049 118.402 201.576 117.771 201.609C117.744 201.61 117.716 201.612 117.689 201.616Z" fill="#B9517A"/>
<path fill-rule="evenodd" clip-rule="evenodd" d="M194.601 249.767C193.979 251.428 193.668 252.671 193.668 253.496C193.668 254.499 193.835 255.963 194.169 257.887C195.333 257.887 205.791 257.887 225.545 257.887C226.36 255.192 225.889 253.737 224.133 253.522C222.376 253.307 220.917 253.113 219.755 252.94L205.172 246.438C204.891 246.313 204.562 246.439 204.437 246.72C204.435 246.725 204.433 246.73 204.431 246.735L203.494 249.008C201.868 249.767 200.546 250.147 199.529 250.147C198.703 250.147 197.563 249.813 196.107 249.146C195.548 248.89 194.888 249.135 194.632 249.693C194.621 249.717 194.611 249.742 194.601 249.767Z" fill="#B9517A"/>
<path fill-rule="evenodd" clip-rule="evenodd" d="M127.057 75.2063C124.494 72.1975 122.759 68.5102 123.049 64.3784C123.884 52.4737 140.456 55.0926 143.679 61.1011C146.903 67.1096 146.52 82.3506 142.354 83.4245C140.692 83.8527 137.153 82.8037 133.551 80.6324L135.812 96.6287H122.461L127.057 75.2063Z" fill="#DEABBF"/>
<path fill-rule="evenodd" clip-rule="evenodd" d="M138.409 54.5566C136.585 54.0003 133.937 53.8117 132.823 53.9393C133.456 52.421 133.708 50.7294 133.503 49.0823C133.304 47.4819 132.589 46.1191 131.927 44.6912C131.622 44.033 131.277 43.3783 130.762 42.8749C130.237 42.362 129.573 42.0234 128.876 41.8619C128.163 41.6966 127.418 41.7103 126.704 41.8604C126.388 41.9267 126.105 42.0711 125.795 42.1514C125.478 42.2336 125.324 42.0351 125.094 41.8356C124.539 41.3549 123.726 41.1176 123.024 41.0327C122.236 40.9374 121.419 41.0562 120.668 41.3151C119.937 41.5671 119.235 41.9763 118.706 42.5725C118.471 42.8379 118.257 43.14 118.119 43.4734C118.062 43.6103 118.052 43.6914 117.916 43.7415C117.789 43.7879 117.642 43.7893 117.511 43.8334C116.251 44.2603 115.173 45.2342 114.586 46.4847C114.244 47.2142 114.082 48.4986 114.126 49.9382C114.171 51.3778 115.471 55.1341 116.686 56.5042C117.772 57.7272 119.367 58.5342 120.906 58.8875C119.884 60.0554 119.204 61.5149 118.701 62.9992C118.155 64.6115 117.817 66.2868 117.692 67.9937C117.573 69.6155 117.562 71.3305 117.943 72.9177C118.298 74.402 119.059 75.6196 120.329 76.392C120.91 76.7459 121.536 77.0117 122.165 77.2547C122.786 77.4941 123.408 77.7269 124.058 77.8612C125.287 78.1154 126.704 78.0718 127.652 77.0929C127.993 76.7401 128.369 76.2967 128.618 75.8656C128.707 75.7106 128.761 75.6092 128.652 75.4577C128.522 75.2762 128.311 75.1371 128.144 74.9951C127.189 74.1857 126.598 73.1051 126.449 71.8209C126.298 70.5179 126.648 68.836 127.914 68.2674C129.478 67.5654 131.2 68.3711 132.59 69.1222C133.181 67.0374 134.394 65.1602 136.295 64.2039C138.399 63.1459 140.813 63.0221 142.975 62.1144C143.538 61.8778 144.112 61.6093 144.527 61.1273C144.7 60.9259 144.904 60.6646 144.973 60.3982C145.064 60.0482 144.838 59.7548 144.664 59.482C143.739 58.0354 140.234 55.1129 138.409 54.5566Z" fill="#B9517A"/>
<path fill-rule="evenodd" clip-rule="evenodd" d="M120.966 90.1123C121.095 89.6894 121.227 89.2654 121.361 88.8401L121.855 89.0725C121.932 88.993 122.01 88.9155 122.088 88.8401L137.659 91.2477C137.659 100.004 144.626 108.197 149.033 115.246C155.884 126.204 168.076 138.349 160.259 154.628C153.216 169.297 134.87 171.679 105.222 161.774C105.222 153.874 111.715 145.931 111.922 136.325C112.119 127.18 113.829 99.4721 120.966 90.1123Z" fill="#B9517A"/>
<path fill-rule="evenodd" clip-rule="evenodd" d="M140.307 150.469C141.348 145.096 142.023 141.508 142.333 139.706C150.628 149.08 155.421 153.822 156.71 153.93C159.135 154.135 160.926 151.985 161.436 152.589C162.279 155.093 159.898 161.359 155.346 162.27C153.172 162.705 149.808 158.222 148.423 156.634C147.877 156.009 145.172 153.954 140.307 150.469ZM154.636 121.818C156.786 121.818 157.941 122.707 159.212 124.501C160.484 126.294 161.687 134.753 159.646 134.753C157.604 134.753 149.052 131.483 149.052 129.285C149.052 127.087 154.887 126.156 154.887 124.501C154.887 122.846 152.485 121.818 154.636 121.818Z" fill="#DEABBF"/>
<path fill-rule="evenodd" clip-rule="evenodd" d="M135.966 158.647C135.838 159.104 135.708 159.57 135.576 160.044C111.213 143.017 111.201 122.382 118.447 99.2529C112.985 122.023 115.21 141.227 135.966 158.647Z" fill="#3B1427" fill-opacity="0.6"/>
</svg>
