<svg width="300" height="300" viewBox="0 0 300 300" fill="none" xmlns="http://www.w3.org/2000/svg">
<path fill-rule="evenodd" clip-rule="evenodd" d="M92.0535 98.8838C90.8782 93.8313 88.4506 89.1312 84.1623 86.234C71.8066 77.8863 62.7635 97.4946 66.441 105.574C70.1184 113.653 85.4551 125.068 89.4411 121.483C91.0307 120.052 92.478 115.485 92.8599 109.98L107.087 124.785L116.459 110.625L92.0535 98.8838Z" fill="#DEABBF"/>
<path fill-rule="evenodd" clip-rule="evenodd" d="M63.52 94.9286C64.2453 92.5752 65.911 89.6384 66.8167 88.5633C64.8698 88.0547 63.0187 87.0091 61.531 85.5169C60.0855 84.0669 59.2362 82.2575 58.2848 80.4542C57.8462 79.6229 57.4396 78.7517 57.3014 77.8188C57.1606 76.8685 57.29 75.9062 57.6173 75.0471C57.9522 74.1678 58.4872 73.3931 59.1352 72.7571C59.4218 72.4757 59.763 72.289 60.0592 72.0248C60.3625 71.7543 60.2736 71.4383 60.237 71.0412C60.1491 70.0841 60.4831 69.0431 60.89 68.2377C61.3465 67.3341 62.0358 66.565 62.8175 65.9742C63.5785 65.3991 64.475 64.9762 65.4352 64.8811C65.8626 64.8388 66.3112 64.8477 66.7385 64.9598C66.9139 65.0058 67.0008 65.0587 67.146 64.9537C67.2803 64.8565 67.385 64.7019 67.5199 64.5988C68.8244 63.6013 70.5427 63.2203 72.1915 63.5707C73.1535 63.7752 74.5388 64.5995 75.9334 65.7616C77.328 66.9238 80.1385 71.204 80.6449 73.5467C81.0968 75.6377 80.7802 77.9439 80.0531 79.8398C81.9245 79.668 83.8457 80.082 85.6674 80.702C87.6463 81.3755 89.5419 82.3172 91.3196 83.5081C93.0086 84.6397 94.7148 85.9569 96.0206 87.5873C97.2416 89.1121 97.9153 90.857 97.792 92.7935C97.7356 93.6806 97.5611 94.546 97.3614 95.3975C97.1645 96.2366 96.9598 97.0726 96.6383 97.8614C96.0298 99.3542 94.9953 100.814 93.3633 101.053C92.7751 101.14 92.0733 101.192 91.4721 101.12C91.256 101.095 91.1178 101.073 91.0439 100.841C90.9553 100.563 90.9651 100.233 90.9417 99.9465C90.808 98.3131 90.1514 96.853 88.9839 95.701C87.7993 94.5321 85.8889 93.5979 84.4395 94.4923C82.6504 95.5963 82.2436 98.0353 82.0151 100.082C79.5373 99.089 76.8298 98.9127 74.5526 100.176C72.0332 101.573 70.2218 104.021 67.8105 105.596C67.1821 106.006 66.5148 106.402 65.7474 106.466C65.4266 106.493 65.0256 106.505 64.7134 106.371C64.3032 106.196 64.1705 105.731 64.0223 105.335C63.2365 103.241 62.7947 97.2819 63.52 94.9286Z" fill="#B9517A"/>
<path fill-rule="evenodd" clip-rule="evenodd" d="M112.745 134.256C108.26 141.025 100.995 149.093 88.8284 154.407L94.4754 164.274C105.153 162.314 116.46 156.792 121.569 148.398C125.595 141.783 120.251 132.879 112.745 134.256Z" fill="#B9517A"/>
<path fill-rule="evenodd" clip-rule="evenodd" d="M112.745 134.256C108.26 141.025 100.995 149.093 88.8284 154.407L94.4754 164.274C105.153 162.314 116.46 156.792 121.569 148.398C125.595 141.783 120.251 132.879 112.745 134.256Z" fill="#3B1427" fill-opacity="0.6"/>
<path d="M80.7707 240.589C110.467 240.589 134.541 215.741 134.541 185.089C134.541 154.438 110.467 129.589 80.7707 129.589C51.074 129.589 27 154.438 27 185.089C27 215.741 51.074 240.589 80.7707 240.589Z" fill="#6D2C48"/>
<path fill-rule="evenodd" clip-rule="evenodd" d="M91.3618 182.587L103.792 181L109.912 191.117C104.053 191.081 99.147 191.844 95.1925 193.407C87.6291 196.397 84.0997 196.917 78.1239 195.03C74.9266 194.02 70.399 190.499 70.9337 187.776C71.1388 186.731 74.2907 186.346 77.5066 185.953C79.9576 185.653 82.4457 185.348 83.695 184.744C85.3767 183.931 83.7912 181.987 82.5243 180.434C81.6151 179.319 80.87 178.405 81.6137 178.255C83.3543 176.939 86.6036 178.383 91.3618 182.587Z" fill="#DEABBF"/>
<path fill-rule="evenodd" clip-rule="evenodd" d="M206.085 182.202C206.333 178.729 206.582 175.538 206.846 172.825C208.552 155.304 200.43 147.13 178.804 142.564L169.908 172.8C169.993 178.286 174.119 208.107 176.411 223.634C177.929 233.91 193.566 236.402 198.891 232.782C199.136 232.84 199.323 232.807 199.442 232.672C219.417 210.115 197.047 221.588 201.159 215.212L204.164 199.922L206.085 182.202Z" fill="#DEABBF"/>
<path fill-rule="evenodd" clip-rule="evenodd" d="M206.085 182.202C206.333 178.729 206.582 175.538 206.846 172.825C208.552 155.304 200.43 147.13 178.804 142.564L169.908 172.8C169.993 178.286 174.119 208.107 176.411 223.634C177.929 233.91 193.566 236.402 198.891 232.782C199.136 232.84 199.323 232.807 199.442 232.672C219.417 210.115 197.047 221.588 201.159 215.212L204.164 199.922L206.085 182.202Z" fill="#3B1427" fill-opacity="0.6"/>
<path fill-rule="evenodd" clip-rule="evenodd" d="M215.92 180.058C216.654 176.129 217.348 172.52 217.993 169.455C222.153 149.656 215.04 139.992 193.719 133.776L180.497 167.657C179.824 173.887 179.879 207.922 180.054 225.65C180.17 237.383 195.699 240.959 201.607 237.107C201.848 237.183 202.042 237.155 202.182 237.008C225.585 212.369 201.287 224.316 206.345 217.278L211.514 200.073L215.92 180.058Z" fill="#DEABBF"/>
<path fill-rule="evenodd" clip-rule="evenodd" d="M111.71 106.095C111.174 105.987 110.637 105.88 110.097 105.775L110.074 106.478C109.944 106.517 109.816 106.559 109.69 106.602L103.607 125.778C113.184 131.079 118.244 143.967 123.487 153.25C131.637 167.681 138.096 188.907 160.277 189.868C180.264 190.734 191.785 172.654 197.55 132.919C188.908 128.136 177.94 129.363 167.317 123.782C157.205 118.47 125.942 103.641 111.71 106.095Z" fill="#B9517A"/>
<path fill-rule="evenodd" clip-rule="evenodd" d="M248.601 211.076C249.719 209.462 250.641 208.392 251.367 207.867C252.249 207.228 253.629 206.446 255.505 205.52C256.146 206.561 261.907 215.921 272.786 233.598C270.865 236.044 269.326 236.549 268.169 235.114C267.013 233.679 266.038 232.496 265.246 231.567L251.496 222.655C251.231 222.483 251.161 222.109 251.339 221.818C251.342 221.813 251.345 221.808 251.348 221.804L252.832 219.517C252.603 217.579 252.209 216.155 251.649 215.245C251.194 214.505 250.273 213.697 248.884 212.819C248.351 212.482 248.203 211.735 248.553 211.15C248.569 211.125 248.584 211.1 248.601 211.076Z" fill="#DEABBF"/>
<path fill-rule="evenodd" clip-rule="evenodd" d="M194.757 216.526L188.237 209.512L187.203 213.952L181.006 214.504C202.632 241.822 195.654 238.227 198.068 237.814C198.094 237.81 199.204 238.252 199.23 238.247C199.256 238.252 199.282 238.258 199.309 238.262C210.098 240.277 250.752 223.61 254.221 223.301L250.503 210.578C232.668 214.29 215.095 205.526 196.374 215.789C195.772 215.974 195.235 216.223 194.757 216.526Z" fill="#DEABBF"/>
<path fill-rule="evenodd" clip-rule="evenodd" d="M126.763 154.389C123.798 162.916 114.309 170.104 95.1794 177.874C100.793 188.334 98.6551 194.409 102.418 196.744C119.997 192.859 139.264 186.169 146.165 176.006C151.801 180.699 157.85 184.107 164.558 185.398C178.347 188.051 188.192 150.674 196.663 141.958C181.087 120.917 165.136 127.222 152.533 117.831C138.731 107.547 109.983 103.301 108.878 105.007L98.7978 120.572C108.777 129.293 117.589 142.281 126.763 154.389Z" fill="#B9517A"/>
<path fill-rule="evenodd" clip-rule="evenodd" d="M150.014 172.493C150.513 172.801 151.021 173.115 151.538 173.434C178.421 141.799 151.683 121.593 125.794 106.718C149.84 122.859 170.148 140.134 150.014 172.493Z" fill="#3B1427" fill-opacity="0.6"/>
</svg>
