<svg width="300" height="300" viewBox="0 0 300 300" fill="none" xmlns="http://www.w3.org/2000/svg">
<path fill-rule="evenodd" clip-rule="evenodd" d="M184.022 102.923C179.858 98.0483 177.04 92.0738 177.511 85.3792C178.867 66.0901 205.787 70.3335 211.024 80.0689C216.26 89.8044 215.638 114.499 208.87 116.239C206.171 116.933 200.422 115.233 194.57 111.715L198.243 137.634H176.556L184.022 102.923Z" fill="#DEABBF"/>
<path fill-rule="evenodd" clip-rule="evenodd" d="M202.458 69.4656C199.494 68.5642 195.192 68.2586 193.383 68.4654C194.412 66.0052 194.821 63.2643 194.488 60.5956C194.164 58.0024 193.002 55.7944 191.928 53.4807C191.433 52.4142 190.871 51.3536 190.035 50.5378C189.182 49.7068 188.103 49.1582 186.972 48.8965C185.814 48.6286 184.603 48.6509 183.443 48.894C182.93 49.0016 182.47 49.2355 181.967 49.3656C181.452 49.4988 181.202 49.1772 180.828 48.8539C179.927 48.075 178.605 47.6905 177.465 47.5529C176.186 47.3986 174.859 47.5911 173.639 48.0105C172.451 48.4188 171.31 49.0819 170.452 50.0479C170.069 50.4779 169.722 50.9673 169.497 51.5077C169.404 51.7294 169.389 51.8608 169.167 51.942C168.962 52.0172 168.722 52.0194 168.51 52.091C166.463 52.7827 164.712 54.3607 163.759 56.3868C163.203 57.5688 162.94 59.6498 163.012 61.9824C163.084 64.315 165.195 70.4013 167.17 72.6213C168.933 74.6028 171.524 75.9104 174.025 76.4828C172.365 78.3752 171.26 80.7399 170.443 83.1449C169.556 85.7573 169.007 88.4718 168.804 91.2375C168.611 93.8652 168.593 96.6441 169.211 99.2158C169.789 101.621 171.024 103.594 173.087 104.845C174.032 105.419 175.048 105.849 176.071 106.243C177.078 106.631 178.089 107.008 179.144 107.226C181.142 107.638 183.444 107.567 184.983 105.981C185.537 105.409 186.147 104.691 186.552 103.992C186.697 103.741 186.785 103.577 186.608 103.331C186.396 103.037 186.054 102.812 185.782 102.582C184.231 101.27 183.271 99.5194 183.029 97.4386C182.783 95.3273 183.352 92.6023 185.409 91.6809C187.95 90.5435 190.747 91.8491 193.005 93.066C193.965 89.688 195.935 86.6464 199.024 85.0969C202.441 83.3827 206.363 83.1821 209.875 81.7113C210.79 81.328 211.722 80.8929 212.396 80.112C212.677 79.7856 213.007 79.3623 213.12 78.9306C213.268 78.3636 212.901 77.8882 212.618 77.4461C211.116 75.1022 205.421 70.3669 202.458 69.4656Z" fill="#B9517A"/>
<path fill-rule="evenodd" clip-rule="evenodd" d="M121.313 171.96C132.601 171.841 147.654 169.463 163.715 159.294L170.022 173.325C158.944 184.291 143.366 193.302 129.746 192.92C119.012 192.619 113.526 179.669 121.313 171.96Z" fill="#B9517A"/>
<path fill-rule="evenodd" clip-rule="evenodd" d="M121.313 171.96C132.601 171.841 147.654 169.463 163.715 159.294L170.022 173.325C158.944 184.291 143.366 193.302 129.746 192.92C119.012 192.619 113.526 179.669 121.313 171.96Z" fill="#3B1427" fill-opacity="0.6"/>
<path fill-rule="evenodd" clip-rule="evenodd" d="M174.066 123.892C174.277 123.207 174.491 122.52 174.709 121.831L175.511 122.207C175.636 122.078 175.762 121.953 175.889 121.831L201.183 125.732C201.183 139.919 212.5 153.194 219.66 164.615C230.79 182.37 250.593 202.049 237.896 228.426C226.455 252.193 196.653 256.052 148.491 240.005C148.491 227.204 159.04 214.335 159.376 198.769C159.696 183.952 162.474 139.057 174.066 123.892Z" fill="#B9517A"/>
<path fill-rule="evenodd" clip-rule="evenodd" d="M205.484 221.687C207.176 212.98 208.273 207.167 208.776 204.248C222.251 219.436 230.036 227.119 232.13 227.295C236.069 227.626 238.979 224.143 239.808 225.122C241.178 229.178 237.309 239.331 229.915 240.807C226.384 241.512 220.919 234.249 218.668 231.676C217.783 230.663 213.388 227.334 205.484 221.687ZM228.761 175.264C232.254 175.264 234.13 176.704 236.195 179.61C238.261 182.517 240.215 196.222 236.899 196.222C233.583 196.222 219.69 190.924 219.69 187.362C219.69 183.8 229.17 182.292 229.17 179.61C229.17 176.929 225.268 175.264 228.761 175.264Z" fill="#DEABBF"/>
<path fill-rule="evenodd" clip-rule="evenodd" d="M198.434 234.937C198.227 235.678 198.015 236.433 197.8 237.202C158.224 209.612 158.205 176.178 169.975 138.702C161.103 175.596 164.717 206.713 198.434 234.937Z" fill="#3B1427" fill-opacity="0.6"/>
<path fill-rule="evenodd" clip-rule="evenodd" d="M93.6514 96.781C89.1304 91.4878 86.0705 85.0008 86.5818 77.7321C88.055 56.7887 117.283 61.396 122.969 71.9664C128.655 82.5368 127.979 109.349 120.631 111.239C117.701 111.992 111.458 110.147 105.104 106.327L109.092 134.468H85.5449L93.6514 96.781Z" fill="#DEABBF"/>
<path fill-rule="evenodd" clip-rule="evenodd" d="M112.583 73.4995C109.388 75.2824 107.114 78.6232 104.376 83.0053C103.71 82.744 102.983 82.6004 102.224 82.6004C98.9725 82.6004 96.3369 85.2293 96.3369 88.4722C96.3369 90.1185 97.0161 91.6066 98.1103 92.6728C96.7482 94.5905 95.2216 96.5938 93.4723 98.661C86.9444 94.7546 80.7671 81.9913 87 71.0001C92.3627 48.9838 124.072 64.0268 129.919 60.3136C131.196 68.303 127.075 74.7449 112.583 73.4995Z" fill="#3B1427"/>
<path fill-rule="evenodd" clip-rule="evenodd" d="M176.481 181.755L162.325 189.512L163.131 203.682C169.244 199.281 174.929 196.35 180.187 194.888C190.245 192.09 194.314 189.955 199.228 183.708C201.858 180.366 204.09 173.648 201.587 171.46C200.627 170.621 197.049 172.604 193.399 174.627C190.617 176.169 187.793 177.734 186.053 178.091C183.711 178.572 183.986 175.544 184.205 173.124C184.362 171.388 184.491 169.965 183.604 170.376C180.842 170.424 178.467 174.217 176.481 181.755Z" fill="#DEABBF"/>
<path fill-rule="evenodd" clip-rule="evenodd" d="M129.028 187.242C141.011 190.223 139.351 189.845 167.559 179.833C174.556 194.271 170.872 201.004 170.345 207.153C146.146 219.761 142.955 220.581 133.206 230.305C131.916 237.308 132.812 234.627 131.156 240.59C122.633 258.666 59.3927 253.458 58 242.808C58.0008 191.049 60.7854 196.04 65.7748 175.57C69.0506 158.092 82.3238 114.222 87.3147 111.437C87.5604 111.3 87.8489 111.348 88.1159 111.436L91.8891 112.691L111.362 114.769C112.546 114.896 113.356 116.017 113.191 117.196C110.561 136.098 123.381 168.167 129.028 187.242Z" fill="#B9517A"/>
</svg>
