<svg width="300" height="300" viewBox="0 0 300 300" fill="none" xmlns="http://www.w3.org/2000/svg">
<path fill-rule="evenodd" clip-rule="evenodd" d="M61.4512 103.968C57.5789 99.309 54.9579 93.5992 55.3959 87.2012C56.6578 68.7669 81.6928 72.8222 86.5626 82.1263C91.4324 91.4304 90.8538 115.031 84.5599 116.694C82.05 117.357 76.703 115.733 71.261 112.37L74.6769 137.14H54.5078L61.4512 103.968Z" fill="#DEABBF"/>
<path fill-rule="evenodd" clip-rule="evenodd" d="M78.5955 71.9923C75.8396 71.1309 71.8389 70.8388 70.1559 71.0364C71.1132 68.6853 71.4931 66.0658 71.1834 63.5153C70.8824 61.0371 69.8021 58.9269 68.8029 56.7157C68.3423 55.6965 67.8204 54.6828 67.0422 53.9032C66.2495 53.109 65.246 52.5847 64.1938 52.3346C63.1169 52.0786 61.991 52.0999 60.9125 52.3323C60.4354 52.435 60.0073 52.6586 59.5394 52.7829C59.0602 52.9103 58.8278 52.6029 58.48 52.2939C57.6419 51.5496 56.4131 51.1821 55.3528 51.0506C54.1631 50.9031 52.9287 51.087 51.7941 51.4879C50.6897 51.8781 49.6288 52.5118 48.8304 53.435C48.4749 53.846 48.1522 54.3137 47.9424 54.8301C47.8564 55.042 47.8422 55.1676 47.6359 55.2452C47.4451 55.3171 47.2219 55.3192 47.025 55.3876C45.1208 56.0486 43.4928 57.5567 42.6063 59.493C42.0891 60.6226 41.8442 62.6115 41.9113 64.8407C41.9784 67.0699 43.9421 72.8865 45.7788 75.0081C47.4182 76.9019 49.8279 78.1516 52.1535 78.6986C50.6099 80.5071 49.5824 82.7671 48.8225 85.0655C47.9972 87.5621 47.4864 90.1563 47.2977 92.7995C47.1186 95.3108 47.102 97.9666 47.6763 100.424C48.2137 102.723 49.3627 104.608 51.281 105.804C52.1596 106.352 53.105 106.764 54.0559 107.14C54.993 107.511 55.9329 107.871 56.9145 108.079C58.7723 108.473 60.9128 108.405 62.3439 106.89C62.8597 106.343 63.4269 105.657 63.8032 104.989C63.9385 104.749 64.02 104.592 63.8557 104.357C63.6588 104.076 63.3402 103.861 63.0873 103.641C61.6447 102.388 60.7518 100.714 60.5267 98.7258C60.2983 96.7081 60.827 94.1038 62.7408 93.2233C65.1032 92.1363 67.7049 93.384 69.8046 94.547C70.697 91.3186 72.5293 88.4119 75.402 86.931C78.5802 85.2928 82.227 85.101 85.4931 83.6954C86.3442 83.3291 87.211 82.9133 87.8376 82.167C88.0995 81.8551 88.4066 81.4504 88.5112 81.0379C88.6485 80.496 88.3076 80.0417 88.0442 79.6192C86.6476 77.3792 81.3515 72.8537 78.5955 71.9923Z" fill="#B9517A"/>
<path fill-rule="evenodd" clip-rule="evenodd" d="M216.044 165.007C204.379 166.564 188.464 166.546 170.239 159.321L166.016 173.501C179.23 182.215 196.767 188.418 210.756 186.042C221.781 184.171 225.332 171.132 216.044 165.007Z" fill="#B9517A"/>
<path fill-rule="evenodd" clip-rule="evenodd" d="M216.044 165.007C204.379 166.564 188.464 166.546 170.239 159.321L166.016 173.501C179.23 182.215 196.767 188.418 210.756 186.042C221.781 184.171 225.332 171.132 216.044 165.007Z" fill="#3B1427" fill-opacity="0.6"/>
<path fill-rule="evenodd" clip-rule="evenodd" d="M135.136 169.571L121.57 174.801L112.362 165.733C118.938 164.106 124.261 161.895 128.331 159.1C136.116 153.755 139.952 152.196 147.089 152.513C150.907 152.682 156.8 155.156 156.832 158.217C156.845 159.392 153.401 160.7 149.887 162.034C147.209 163.052 144.491 164.084 143.23 165.085C141.534 166.432 143.762 168.058 145.543 169.357C146.821 170.29 147.868 171.054 147.069 171.426C145.424 173.327 141.446 172.709 135.136 169.571Z" fill="#DEABBF"/>
<path fill-rule="evenodd" clip-rule="evenodd" d="M88.0854 170.018C98.2153 169.909 111.724 167.716 126.137 158.338L131.798 171.277C121.856 181.39 107.876 189.699 95.6527 189.348C86.02 189.07 81.0969 177.127 88.0854 170.018Z" fill="#B9517A"/>
<path fill-rule="evenodd" clip-rule="evenodd" d="M88.0854 170.018C98.2153 169.909 111.724 167.716 126.137 158.338L131.798 171.277C121.856 181.39 107.876 189.699 95.6527 189.348C86.02 189.07 81.0969 177.127 88.0854 170.018Z" fill="black" fill-opacity="0.2"/>
<ellipse cx="13.4516" cy="17.0831" rx="13.4516" ry="17.0831" transform="matrix(0.996361 -0.080237 0.0764533 0.997469 139.362 112.042)" fill="#DEABBF"/>
<ellipse cx="7.95656" cy="17.0904" rx="7.95656" ry="17.0904" transform="matrix(0.999599 0.0240978 -0.0229415 0.999842 147.397 177.723)" fill="#DEABBF"/>
<ellipse cx="4.72543" cy="17.0615" rx="4.72543" ry="17.0615" transform="matrix(0.943865 0.332683 -0.317816 0.947364 145.098 166.898)" fill="#DEABBF"/>
<ellipse cx="15.3286" cy="25.8609" rx="15.3286" ry="25.8609" transform="matrix(0.986533 0.165433 -0.157565 0.987212 143.359 138.596)" fill="#DEABBF"/>
<path fill-rule="evenodd" clip-rule="evenodd" d="M243.277 96.9065C247.482 91.8478 250.328 85.6483 249.852 78.7016C248.482 58.6863 221.3 63.0894 216.013 73.1914C210.725 83.2935 211.353 108.918 218.187 110.724C220.912 111.444 226.718 109.68 232.626 106.029L228.918 132.924H250.816L243.277 96.9065Z" fill="#DEABBF"/>
<path fill-rule="evenodd" clip-rule="evenodd" d="M225.67 74.6571C228.642 76.361 230.757 79.5538 233.303 83.7418C233.923 83.492 234.598 83.3548 235.305 83.3548C238.328 83.3548 240.779 85.8673 240.779 88.9665C240.779 90.5398 240.148 91.9619 239.13 92.9809C240.397 94.8137 241.817 96.7282 243.443 98.7038C249.514 94.9704 255.65 83.8175 249.853 73.3133C244.866 52.2726 214.986 65.6042 209.549 62.0556C208.361 69.6909 212.194 75.8474 225.67 74.6571Z" fill="#3B1427"/>
<path fill-rule="evenodd" clip-rule="evenodd" d="M166.247 178.116L179.412 185.529L178.662 199.071C172.978 194.866 167.691 192.064 162.801 190.666C153.447 187.993 149.663 185.952 145.093 179.983C142.647 176.789 140.572 170.368 142.899 168.277C143.792 167.475 147.119 169.37 150.514 171.304C153.101 172.777 155.727 174.273 157.345 174.614C159.523 175.074 159.268 172.18 159.065 169.868C158.918 168.208 158.798 166.848 159.623 167.241C162.192 167.287 164.4 170.912 166.247 178.116Z" fill="#DEABBF"/>
<path fill-rule="evenodd" clip-rule="evenodd" d="M210.378 183.36C199.233 186.209 200.777 185.847 174.544 176.279C168.037 190.077 171.463 196.513 171.954 202.389C194.458 214.438 197.426 215.222 206.492 224.515C207.822 230.131 206.669 230.574 208.399 234.345C216.325 251.619 275.137 246.642 276.433 236.463C276.432 186.998 273.842 191.768 269.202 172.205C266.164 155.548 253.881 113.809 249.209 110.937C248.963 110.786 248.66 110.833 248.387 110.926L244.916 112.112L226.943 114.084C225.766 114.213 224.96 115.325 225.116 116.498C227.517 134.573 215.622 165.157 210.378 183.36Z" fill="#B9517A"/>
<path fill-rule="evenodd" clip-rule="evenodd" d="M149.402 168.317L136.698 175.471L137.422 188.538C142.907 184.48 148.009 181.777 152.728 180.428C161.754 177.849 165.405 175.879 169.816 170.118C172.175 167.036 174.178 160.841 171.932 158.823C171.07 158.049 167.86 159.878 164.584 161.743C162.088 163.165 159.554 164.609 157.992 164.938C155.89 165.382 156.136 162.589 156.333 160.358C156.474 158.756 156.59 157.444 155.794 157.824C153.315 157.867 151.184 161.365 149.402 168.317Z" fill="#DEABBF"/>
<path fill-rule="evenodd" clip-rule="evenodd" d="M90.9575 178.905C101.712 181.655 119.746 178.413 145.06 169.18C151.339 182.494 154.241 191.987 153.768 197.657C132.052 209.284 113.44 214.468 98.1056 214.811C98.5929 224.137 97.4855 233.011 93.7651 241.119C86.1168 257.789 41.3316 242.351 26.2735 245.39C16.8436 213.999 35.0765 201.242 35.0912 181.156C35.1073 159.16 52.3379 125.303 54.8731 125.303L77.9922 125.303C79.2678 142.102 85.6883 160.616 90.9575 178.905Z" fill="#B9517A"/>
</svg>
