<svg width="300" height="300" viewBox="0 0 300 300" fill="none" xmlns="http://www.w3.org/2000/svg">
<path fill-rule="evenodd" clip-rule="evenodd" d="M228.005 105.926C231.595 101.009 233.834 95.1463 232.913 88.8342C230.257 70.6474 205.108 76.5805 200.85 86.18C196.593 95.7794 198.938 119.142 205.461 120.311C208.062 120.777 213.376 118.758 218.658 115.008L217.03 139.836L237.534 138.296L228.005 105.926Z" fill="#DEABBF"/>
<path fill-rule="evenodd" clip-rule="evenodd" d="M208.195 75.522C210.933 74.4573 214.978 73.8622 216.704 73.9297C215.556 71.671 214.974 69.102 215.099 66.5488C215.221 64.0679 216.162 61.8926 217.013 59.6233C217.405 58.5772 217.86 57.5321 218.593 56.6995C219.34 55.8512 220.321 55.2547 221.372 54.9263C222.448 54.5902 223.594 54.5254 224.708 54.6735C225.201 54.739 225.652 54.9281 226.137 55.0156C226.634 55.1053 226.847 54.7827 227.178 54.4498C227.975 53.6475 229.196 53.1893 230.264 52.9779C231.463 52.7408 232.732 52.829 233.915 53.14C235.067 53.4427 236.192 53.9902 237.073 54.8449C237.465 55.2253 237.828 55.6646 238.079 56.1608C238.183 56.3644 238.206 56.4878 238.422 56.5491C238.621 56.6058 238.848 56.5908 239.054 56.6436C241.039 57.1539 242.806 58.5253 243.851 60.3781C244.461 61.4589 244.858 63.4128 244.956 65.6288C245.054 67.8449 243.491 73.7637 241.782 76.0081C240.256 78.0114 237.899 79.4348 235.576 80.1549C237.28 81.8307 238.493 83.9937 239.436 86.2153C240.461 88.6285 241.174 91.1623 241.562 93.7694C241.932 96.2465 242.146 98.8792 241.745 101.361C241.37 103.681 240.342 105.639 238.481 106.972C237.629 107.582 236.699 108.062 235.76 108.508C234.835 108.947 233.906 109.377 232.924 109.658C231.064 110.19 228.883 110.286 227.316 108.892C226.751 108.39 226.123 107.752 225.691 107.119C225.535 106.891 225.441 106.742 225.59 106.496C225.769 106.203 226.077 105.965 226.318 105.727C227.691 104.374 228.474 102.646 228.555 100.657C228.637 98.6384 227.906 96.0958 225.894 95.3686C223.412 94.4708 220.86 95.9069 218.812 97.2206C217.664 94.0869 215.585 91.3438 212.554 90.0944C209.201 88.7122 205.48 88.8004 202.055 87.6556C201.162 87.3573 200.25 87.0111 199.557 86.3187C199.268 86.0293 198.926 85.6515 198.789 85.2503C198.609 84.7233 198.921 84.2467 199.158 83.8076C200.411 81.4794 205.458 76.5867 208.195 75.522Z" fill="#B9517A"/>
<path fill-rule="evenodd" clip-rule="evenodd" d="M71.9947 105.926C68.4049 101.009 66.1657 95.1463 67.0874 88.8342C69.7431 70.6474 94.8918 76.5805 99.1496 86.18C103.407 95.7794 101.062 119.142 94.5394 120.311C91.9384 120.777 86.6236 118.758 81.3417 115.008L82.9696 139.836L62.4656 138.296L71.9947 105.926Z" fill="#B9517A"/>
<path fill-rule="evenodd" clip-rule="evenodd" d="M91.8047 75.522C89.0671 74.4573 85.0217 73.8622 83.2961 73.9297C84.4444 71.671 85.0257 69.102 84.9008 66.5488C84.7793 64.0679 83.8382 61.8926 82.9871 59.6233C82.5948 58.5772 82.1396 57.5321 81.4066 56.6995C80.6598 55.8512 79.6787 55.2547 78.6277 54.9263C77.552 54.5902 76.4058 54.5254 75.2921 54.6735C74.7994 54.739 74.3475 54.9281 73.8626 55.0156C73.366 55.1053 73.1526 54.7827 72.8221 54.4498C72.0254 53.6475 70.8037 53.1893 69.7355 52.9779C68.5371 52.7408 67.2684 52.829 66.0852 53.14C64.9334 53.4427 63.8077 53.9902 62.9272 54.8449C62.5352 55.2253 62.1723 55.6646 61.9206 56.1608C61.8174 56.3644 61.7936 56.4878 61.5781 56.5491C61.3787 56.6058 61.1517 56.5908 60.9464 56.6436C58.9614 57.1539 57.194 58.5253 56.1487 60.3781C55.5388 61.4589 55.1416 63.4128 55.0438 65.6288C54.946 67.8449 56.5092 73.7637 58.2183 76.0081C59.744 78.0114 62.1007 79.4348 64.4242 80.1549C62.7202 81.8307 61.5073 83.9937 60.5637 86.2153C59.5387 88.6285 58.8262 91.1623 58.4376 93.7694C58.0685 96.2465 57.8538 98.8792 58.2547 101.361C58.6298 103.681 59.6575 105.639 61.5185 106.972C62.371 107.582 63.3014 108.062 64.2401 108.508C65.1651 108.947 66.0938 109.377 67.0762 109.658C68.9355 110.19 71.1167 110.286 72.6843 108.892C73.2494 108.39 73.8771 107.752 74.3094 107.119C74.4648 106.891 74.5594 106.742 74.4098 106.496C74.2305 106.203 73.9228 105.965 73.682 105.727C72.3088 104.374 71.5256 102.646 71.4449 100.657C71.363 98.6384 72.0945 96.0958 74.1056 95.3686C76.5882 94.4708 79.1402 95.9069 81.1881 97.2206C82.3357 94.0869 84.4149 91.3438 87.4456 90.0944C90.7986 88.7122 94.5203 88.8004 97.9452 87.6556C98.8377 87.3573 99.7499 87.0111 100.443 86.3187C100.732 86.0293 101.074 85.6515 101.211 85.2503C101.391 84.7233 101.079 84.2467 100.842 83.8076C99.5893 81.4794 94.5423 76.5867 91.8047 75.522Z" fill="#3B1427"/>
<path fill-rule="evenodd" clip-rule="evenodd" d="M239.557 134.505C239.476 133.829 239.392 133.15 239.306 132.469L238.494 132.686C238.398 132.544 238.302 132.405 238.204 132.27L213.946 131.657C211.55 144.928 198.748 155.438 190.139 164.916C176.756 179.648 154.955 194.719 162.347 221.531C169.007 245.69 196.16 254.321 243.806 247.425C245.968 235.451 238.3 221.636 240.615 207.019C242.82 193.105 247.811 150.644 239.557 134.505Z" fill="#B9517A"/>
<path fill-rule="evenodd" clip-rule="evenodd" d="M193.725 220.688C193.618 212.258 193.576 206.636 193.599 203.821C178.461 215.757 169.901 221.632 167.917 221.444C164.186 221.09 162.059 217.341 161.121 218.117C159.158 221.681 161.052 231.829 167.702 234.456C170.877 235.71 177.202 229.837 179.737 227.809C180.734 227.012 185.397 224.638 193.725 220.688ZM179.85 173.342C176.591 172.754 174.597 173.785 172.179 176.155C169.761 178.526 165.622 191.017 168.716 191.575C171.81 192.134 185.667 189.519 186.269 186.187C186.871 182.855 178.281 179.847 178.734 177.339C179.187 174.831 183.109 173.931 179.85 173.342Z" fill="#DEABBF"/>
<path fill-rule="evenodd" clip-rule="evenodd" d="M198.063 234.269C198.131 234.997 198.201 235.739 198.273 236.494C239.857 217.355 245.522 186.084 240.871 149.047C242.916 185.052 234.288 213.549 198.063 234.269Z" fill="#3B1427" fill-opacity="0.6"/>
<path fill-rule="evenodd" clip-rule="evenodd" d="M60.443 134.505C60.5241 133.829 60.6079 133.15 60.6942 132.469L61.5065 132.686C61.6015 132.544 61.698 132.405 61.796 132.27L86.0537 131.657C88.4502 144.928 101.252 155.438 109.861 164.916C123.244 179.648 145.045 194.719 137.653 221.531C130.993 245.69 103.84 254.321 56.1944 247.425C54.0321 235.451 61.7002 221.636 59.3847 207.02C57.1804 193.105 52.1888 150.644 60.443 134.505Z" fill="#DEABBF"/>
<path fill-rule="evenodd" clip-rule="evenodd" d="M106.275 220.688C106.382 212.258 106.424 206.636 106.401 203.821C121.539 215.758 130.099 221.632 132.083 221.444C135.814 221.09 137.941 217.341 138.879 218.118C140.842 221.681 138.948 231.83 132.298 234.456C129.123 235.711 122.798 229.837 120.263 227.81C119.266 227.012 114.603 224.638 106.275 220.688ZM120.15 173.342C123.409 172.754 125.403 173.785 127.821 176.155C130.239 178.526 134.378 191.017 131.284 191.576C128.19 192.134 114.333 189.519 113.731 186.187C113.129 182.855 121.719 179.847 121.266 177.339C120.813 174.831 116.891 173.931 120.15 173.342Z" fill="#B9517A"/>
<path fill-rule="evenodd" clip-rule="evenodd" d="M101.937 234.27C101.869 234.998 101.799 235.739 101.727 236.495C60.1427 217.356 54.4776 186.085 59.129 149.047C57.0837 185.052 65.7117 213.549 101.937 234.27Z" fill="#3B1427" fill-opacity="0.6"/>
</svg>
