<svg width="220" height="220" viewBox="0 0 220 220" fill="none" xmlns="http://www.w3.org/2000/svg">
<path fill-rule="evenodd" clip-rule="evenodd" d="M52.1359 46.3062C49.4731 42.6593 47.8121 38.3102 48.4957 33.628C50.4657 20.1374 69.1206 24.5384 72.279 31.6591C75.4373 38.7799 73.6972 56.11 68.8592 56.977C66.9298 57.3228 62.9874 55.8249 59.0693 53.0432L60.2769 71.46L45.0673 70.3179L52.1359 46.3062Z" fill="#DEABBF"/>
<path fill-rule="evenodd" clip-rule="evenodd" d="M66.8316 23.7532C64.8009 22.9634 61.8001 22.522 60.52 22.5721C61.3718 20.8966 61.803 18.991 61.7104 17.097C61.6203 15.2568 60.9221 13.6431 60.2908 11.9598C59.9998 11.1839 59.6622 10.4086 59.1184 9.79095C58.5645 9.16175 57.8368 8.71923 57.0571 8.47564C56.2592 8.22631 55.4089 8.17824 54.5828 8.28811C54.2173 8.3367 53.8822 8.47696 53.5224 8.54191C53.1541 8.60847 52.9958 8.36915 52.7506 8.12217C52.1596 7.52708 51.2534 7.18716 50.461 7.03036C49.572 6.85449 48.631 6.91992 47.7532 7.15059C46.8989 7.37516 46.0638 7.7813 45.4107 8.41528C45.1199 8.69747 44.8508 9.02331 44.6641 9.39136C44.5875 9.54241 44.5698 9.63397 44.41 9.6794C44.2621 9.72147 44.0937 9.71036 43.9414 9.74953C42.469 10.1281 41.158 11.1453 40.3825 12.5197C39.9301 13.3215 39.6355 14.7708 39.563 16.4146C39.4904 18.0584 40.6499 22.4489 41.9178 24.1138C43.0495 25.5998 44.7976 26.6557 46.5211 27.1898C45.2572 28.4329 44.3575 30.0374 43.6575 31.6853C42.8972 33.4754 42.3687 35.3549 42.0804 37.2888C41.8066 39.1263 41.6474 41.0792 41.9447 42.9198C42.223 44.6411 42.9853 46.0933 44.3658 47.082C44.9981 47.5348 45.6883 47.8912 46.3846 48.2218C47.0708 48.5476 47.7596 48.866 48.4884 49.0747C49.8676 49.4694 51.4855 49.5409 52.6484 48.5068C53.0675 48.134 53.5332 47.661 53.8539 47.1912C53.9691 47.0223 54.0393 46.9114 53.9283 46.7295C53.7954 46.5116 53.5671 46.3351 53.3884 46.1591C52.3699 45.1552 51.7889 43.8736 51.729 42.3979C51.6682 40.9005 52.2108 39.0145 53.7027 38.4751C55.5442 37.8091 57.4372 38.8743 58.9564 39.8489C59.8077 37.5243 61.35 35.4896 63.5981 34.5628C66.0852 33.5375 68.846 33.6029 71.3865 32.7537C72.0486 32.5324 72.7252 32.2756 73.239 31.762C73.4537 31.5474 73.7077 31.2671 73.8093 30.9695C73.9428 30.5786 73.7108 30.225 73.5355 29.8993C72.6061 28.1723 68.8623 24.543 66.8316 23.7532Z" fill="#B9517A"/>
<path fill-rule="evenodd" clip-rule="evenodd" d="M167.864 46.3072C170.527 42.6603 172.188 38.3112 171.504 33.629C169.534 20.1383 150.879 24.5394 147.721 31.6601C144.563 38.7809 146.303 56.111 151.141 56.978C153.07 57.3238 157.013 55.8259 160.931 53.0442L159.723 71.4609L174.933 70.3189L167.864 46.3072Z" fill="#B9517A"/>
<path fill-rule="evenodd" clip-rule="evenodd" d="M153.169 23.7542C155.2 22.9644 158.201 22.523 159.481 22.5731C158.629 20.8975 158.198 18.9919 158.291 17.098C158.381 15.2577 159.079 13.6441 159.71 11.9608C160.001 11.1848 160.339 10.4095 160.883 9.79193C161.436 9.16273 162.164 8.72021 162.944 8.47662C163.742 8.22729 164.592 8.17922 165.418 8.28908C165.784 8.33767 166.119 8.47793 166.479 8.54288C166.847 8.60944 167.005 8.37012 167.25 8.12315C167.841 7.52805 168.748 7.18813 169.54 7.03134C170.429 6.85547 171.37 6.9209 172.248 7.15157C173.102 7.37614 173.937 7.78228 174.59 8.41625C174.881 8.69845 175.15 9.02429 175.337 9.39234C175.413 9.54338 175.431 9.63494 175.591 9.68037C175.739 9.72244 175.907 9.71134 176.06 9.75051C177.532 10.129 178.843 11.1463 179.618 12.5207C180.071 13.3224 180.365 14.7718 180.438 16.4156C180.511 18.0594 179.351 22.4499 178.083 24.1148C176.952 25.6008 175.203 26.6566 173.48 27.1908C174.744 28.4339 175.643 30.0384 176.343 31.6863C177.104 33.4763 177.632 35.3559 177.921 37.2898C178.194 39.1272 178.354 41.0801 178.056 42.9208C177.778 44.6421 177.016 46.0943 175.635 47.0829C175.003 47.5358 174.313 47.8922 173.616 48.2228C172.93 48.5486 172.241 48.867 171.513 49.0756C170.133 49.4704 168.515 49.5419 167.353 48.5078C166.933 48.135 166.468 47.662 166.147 47.1922C166.032 47.0233 165.962 46.9124 166.073 46.7305C166.206 46.5126 166.434 46.3361 166.613 46.16C167.631 45.1562 168.212 43.8746 168.272 42.3989C168.333 40.9015 167.79 39.0155 166.298 38.476C164.457 37.8101 162.564 38.8753 161.045 39.8498C160.193 37.5253 158.651 35.4905 156.403 34.5637C153.916 33.5384 151.155 33.6039 148.614 32.7547C147.952 32.5334 147.276 32.2766 146.762 31.763C146.547 31.5483 146.293 31.2681 146.192 30.9705C146.058 30.5796 146.29 30.226 146.465 29.9003C147.395 28.1732 151.139 24.544 153.169 23.7542Z" fill="#3B1427"/>
<path fill-rule="evenodd" clip-rule="evenodd" d="M43.5686 67.5055C43.6288 67.0037 43.6909 66.5002 43.755 65.9949L44.3575 66.1559C44.428 66.0509 44.4996 65.948 44.5723 65.8474L62.5662 65.393C64.3439 75.2373 73.8398 83.0335 80.2259 90.0636C90.1531 100.992 106.325 112.171 100.842 132.06C95.9016 149.981 75.76 156.383 40.4171 151.267C38.8132 142.385 44.5012 132.138 42.7836 121.296C41.1485 110.974 37.4458 79.477 43.5686 67.5055Z" fill="#B9517A"/>
<path fill-rule="evenodd" clip-rule="evenodd" d="M77.5667 131.435C77.6463 125.182 77.6774 121.011 77.6599 118.923C88.8889 127.778 95.2391 132.135 96.7106 131.996C99.4779 131.733 101.056 128.952 101.752 129.528C103.208 132.171 101.803 139.7 96.8701 141.648C94.5146 142.578 89.823 138.222 87.9425 136.718C87.2028 136.126 83.7442 134.365 77.5667 131.435ZM87.8592 96.3147C90.2767 95.8781 91.7557 96.6431 93.5493 98.4014C95.3428 100.16 98.4127 109.425 96.1178 109.84C93.8228 110.254 83.5437 108.314 83.0974 105.843C82.6511 103.371 89.023 101.14 88.687 99.2794C88.351 97.4188 85.4417 96.7512 87.8592 96.3147Z" fill="#DEABBF"/>
<path fill-rule="evenodd" clip-rule="evenodd" d="M74.3477 141.509C74.2969 142.049 74.2451 142.599 74.1922 143.159C43.3454 128.962 39.1431 105.766 42.5934 78.2921C41.0763 105 47.4764 126.138 74.3477 141.509Z" fill="#3B1427" fill-opacity="0.6"/>
<path fill-rule="evenodd" clip-rule="evenodd" d="M176.432 67.5055C176.372 67.0037 176.31 66.5002 176.246 65.9949L175.643 66.1559C175.573 66.0509 175.501 65.948 175.429 65.8474L157.435 65.393C155.657 75.2373 146.161 83.0335 139.775 90.0636C129.848 100.992 113.676 112.171 119.159 132.06C124.099 149.981 144.241 156.383 179.584 151.267C181.188 142.385 175.5 132.138 177.217 121.296C178.852 110.974 182.555 79.477 176.432 67.5055Z" fill="#DEABBF"/>
<path fill-rule="evenodd" clip-rule="evenodd" d="M142.434 131.435C142.355 125.182 142.324 121.011 142.341 118.923C131.112 127.778 124.762 132.135 123.29 131.996C120.523 131.733 118.945 128.952 118.249 129.528C116.793 132.171 118.198 139.7 123.131 141.648C125.486 142.578 130.178 138.222 132.059 136.718C132.798 136.126 136.257 134.365 142.434 131.435ZM132.142 96.3147C129.724 95.8781 128.245 96.6431 126.452 98.4014C124.658 100.16 121.588 109.425 123.883 109.84C126.178 110.254 136.457 108.314 136.904 105.843C137.35 103.371 130.978 101.14 131.314 99.2794C131.65 97.4188 134.559 96.7512 132.142 96.3147Z" fill="#B9517A"/>
<path fill-rule="evenodd" clip-rule="evenodd" d="M145.653 141.509C145.704 142.049 145.756 142.599 145.809 143.159C176.656 128.962 180.858 105.766 177.408 78.2921C178.925 105 172.525 126.138 145.653 141.509Z" fill="#3B1427" fill-opacity="0.6"/>
<path d="M17.2845 211.524L13.2365 196.124H16.4265L19.0885 208.158L22.2785 196.124H25.5345L28.6145 208.158L31.3205 196.124H34.5105L30.3745 211.524H26.8325L23.8625 200.304L20.8045 211.524H17.2845ZM40.6461 211.788C39.5315 211.788 38.5415 211.554 37.6761 211.084C36.8255 210.6 36.1581 209.94 35.6741 209.104C35.1901 208.254 34.9481 207.271 34.9481 206.156C34.9481 205.012 35.1828 204.008 35.6521 203.142C36.1361 202.262 36.8035 201.573 37.6541 201.074C38.5195 200.561 39.5241 200.304 40.6681 200.304C41.7535 200.304 42.7068 200.546 43.5281 201.03C44.3641 201.5 45.0095 202.145 45.4641 202.966C45.9335 203.773 46.1681 204.69 46.1681 205.716C46.1681 205.863 46.1608 206.032 46.1461 206.222C46.1461 206.398 46.1388 206.582 46.1241 206.772H37.0821V204.968H43.1541C43.1101 204.279 42.8535 203.736 42.3841 203.34C41.9295 202.93 41.3575 202.724 40.6681 202.724C40.1548 202.724 39.6855 202.842 39.2601 203.076C38.8348 203.296 38.4975 203.634 38.2481 204.088C37.9988 204.543 37.8741 205.122 37.8741 205.826V206.464C37.8741 207.051 37.9915 207.564 38.2261 208.004C38.4608 208.43 38.7835 208.767 39.1941 209.016C39.6195 209.251 40.0961 209.368 40.6241 209.368C41.1668 209.368 41.6215 209.251 41.9881 209.016C42.3548 208.767 42.6335 208.452 42.8241 208.07H45.8381C45.6328 208.774 45.2881 209.405 44.8041 209.962C44.3201 210.52 43.7261 210.967 43.0221 211.304C42.3181 211.627 41.5261 211.788 40.6461 211.788ZM48.6225 211.524V200.568H51.5925V211.524H48.6225ZM50.1185 199.006C49.5758 199.006 49.1285 198.852 48.7765 198.544C48.4392 198.222 48.2705 197.818 48.2705 197.334C48.2705 196.85 48.4392 196.454 48.7765 196.146C49.1285 195.824 49.5758 195.662 50.1185 195.662C50.6465 195.662 51.0792 195.824 51.4165 196.146C51.7685 196.454 51.9445 196.85 51.9445 197.334C51.9445 197.818 51.7685 198.222 51.4165 198.544C51.0792 198.852 50.6465 199.006 50.1185 199.006ZM59.4786 211.524C58.716 211.524 58.0413 211.407 57.4546 211.172C56.868 210.923 56.4133 210.52 56.0906 209.962C55.768 209.39 55.6066 208.613 55.6066 207.63V203.054H53.7366V200.568H55.6066L55.9366 197.598H58.5766V200.568H61.5026V203.054H58.5766V207.674C58.5766 208.173 58.6866 208.518 58.9066 208.708C59.1266 208.899 59.5006 208.994 60.0286 208.994H61.4366V211.524H59.4786ZM69.0055 211.788C67.8908 211.788 66.9008 211.554 66.0355 211.084C65.1848 210.6 64.5175 209.94 64.0335 209.104C63.5495 208.254 63.3075 207.271 63.3075 206.156C63.3075 205.012 63.5422 204.008 64.0115 203.142C64.4955 202.262 65.1628 201.573 66.0135 201.074C66.8788 200.561 67.8835 200.304 69.0275 200.304C70.1128 200.304 71.0662 200.546 71.8875 201.03C72.7235 201.5 73.3688 202.145 73.8235 202.966C74.2928 203.773 74.5275 204.69 74.5275 205.716C74.5275 205.863 74.5202 206.032 74.5055 206.222C74.5055 206.398 74.4982 206.582 74.4835 206.772H65.4415V204.968H71.5135C71.4695 204.279 71.2128 203.736 70.7435 203.34C70.2888 202.93 69.7168 202.724 69.0275 202.724C68.5142 202.724 68.0448 202.842 67.6195 203.076C67.1942 203.296 66.8568 203.634 66.6075 204.088C66.3582 204.543 66.2335 205.122 66.2335 205.826V206.464C66.2335 207.051 66.3508 207.564 66.5855 208.004C66.8202 208.43 67.1428 208.767 67.5535 209.016C67.9788 209.251 68.4555 209.368 68.9835 209.368C69.5262 209.368 69.9808 209.251 70.3475 209.016C70.7142 208.767 70.9928 208.452 71.1835 208.07H74.1975C73.9922 208.774 73.6475 209.405 73.1635 209.962C72.6795 210.52 72.0855 210.967 71.3815 211.304C70.6775 211.627 69.8855 211.788 69.0055 211.788ZM76.8939 211.524V200.568H79.5339L79.8199 202.614C80.0839 202.145 80.4065 201.742 80.7879 201.404C81.1839 201.052 81.6385 200.781 82.1519 200.59C82.6652 200.4 83.2225 200.304 83.8239 200.304V203.45H82.9879C82.5332 203.45 82.1079 203.502 81.7119 203.604C81.3305 203.707 81.0005 203.876 80.7219 204.11C80.4432 204.345 80.2305 204.668 80.0839 205.078C79.9372 205.474 79.8639 205.973 79.8639 206.574V211.524H76.8939ZM90.941 211.788C89.8264 211.788 88.8364 211.554 87.971 211.084C87.1204 210.6 86.453 209.94 85.969 209.104C85.485 208.254 85.243 207.271 85.243 206.156C85.243 205.012 85.4777 204.008 85.947 203.142C86.431 202.262 87.0984 201.573 87.949 201.074C88.8144 200.561 89.819 200.304 90.963 200.304C92.0484 200.304 93.0017 200.546 93.823 201.03C94.659 201.5 95.3044 202.145 95.759 202.966C96.2284 203.773 96.463 204.69 96.463 205.716C96.463 205.863 96.4557 206.032 96.441 206.222C96.441 206.398 96.4337 206.582 96.419 206.772H87.377V204.968H93.449C93.405 204.279 93.1484 203.736 92.679 203.34C92.2244 202.93 91.6524 202.724 90.963 202.724C90.4497 202.724 89.9804 202.842 89.555 203.076C89.1297 203.296 88.7924 203.634 88.543 204.088C88.2937 204.543 88.169 205.122 88.169 205.826V206.464C88.169 207.051 88.2864 207.564 88.521 208.004C88.7557 208.43 89.0784 208.767 89.489 209.016C89.9144 209.251 90.391 209.368 90.919 209.368C91.4617 209.368 91.9164 209.251 92.283 209.016C92.6497 208.767 92.9284 208.452 93.119 208.07H96.133C95.9277 208.774 95.583 209.405 95.099 209.962C94.615 210.52 94.021 210.967 93.317 211.304C92.613 211.627 91.821 211.788 90.941 211.788ZM103.04 211.524L108.672 196.124H112.016L117.648 211.524H114.502L110.322 199.512L106.142 211.524H103.04ZM105.526 208.026L106.296 205.716H114.15L114.92 208.026H105.526ZM119.562 211.524V200.568H122.18L122.4 202.394C122.737 201.778 123.221 201.28 123.852 200.898C124.483 200.502 125.238 200.304 126.118 200.304C127.027 200.304 127.797 200.502 128.428 200.898C129.059 201.28 129.543 201.844 129.88 202.592C130.217 203.34 130.386 204.257 130.386 205.342V211.524H127.416V205.628C127.416 204.719 127.233 204.022 126.866 203.538C126.499 203.054 125.92 202.812 125.128 202.812C124.629 202.812 124.182 202.937 123.786 203.186C123.39 203.421 123.082 203.766 122.862 204.22C122.642 204.66 122.532 205.203 122.532 205.848V211.524H119.562ZM137.85 216.628C136.794 216.628 135.87 216.496 135.078 216.232C134.3 215.983 133.699 215.594 133.274 215.066C132.848 214.553 132.636 213.915 132.636 213.152C132.636 212.639 132.768 212.155 133.032 211.7C133.296 211.26 133.677 210.857 134.176 210.49C134.689 210.109 135.32 209.786 136.068 209.522L137.168 210.996C136.508 211.216 136.031 211.488 135.738 211.81C135.444 212.133 135.298 212.478 135.298 212.844C135.298 213.182 135.408 213.468 135.628 213.702C135.862 213.937 136.17 214.106 136.552 214.208C136.933 214.326 137.358 214.384 137.828 214.384C138.282 214.384 138.678 214.326 139.016 214.208C139.368 214.091 139.639 213.915 139.83 213.68C140.035 213.46 140.138 213.204 140.138 212.91C140.138 212.514 139.998 212.192 139.72 211.942C139.441 211.693 138.891 211.539 138.07 211.48C137.322 211.422 136.662 211.341 136.09 211.238C135.518 211.121 135.012 210.989 134.572 210.842C134.146 210.681 133.78 210.512 133.472 210.336C133.164 210.146 132.922 209.955 132.746 209.764V209.258L135.1 206.706L137.168 207.388L134.44 210.138L135.298 208.686C135.444 208.774 135.598 208.862 135.76 208.95C135.921 209.024 136.112 209.097 136.332 209.17C136.566 209.229 136.867 209.288 137.234 209.346C137.615 209.39 138.092 209.434 138.664 209.478C139.632 209.566 140.424 209.75 141.04 210.028C141.656 210.307 142.11 210.681 142.404 211.15C142.697 211.62 142.844 212.184 142.844 212.844C142.844 213.49 142.66 214.098 142.294 214.67C141.942 215.257 141.392 215.726 140.644 216.078C139.91 216.445 138.979 216.628 137.85 216.628ZM137.85 208.29C136.926 208.29 136.126 208.114 135.452 207.762C134.792 207.396 134.278 206.912 133.912 206.31C133.56 205.709 133.384 205.042 133.384 204.308C133.384 203.56 133.56 202.893 133.912 202.306C134.278 201.705 134.792 201.221 135.452 200.854C136.126 200.488 136.926 200.304 137.85 200.304C138.774 200.304 139.566 200.488 140.226 200.854C140.9 201.221 141.414 201.705 141.766 202.306C142.132 202.893 142.316 203.56 142.316 204.308C142.316 205.042 142.132 205.709 141.766 206.31C141.414 206.912 140.9 207.396 140.226 207.762C139.566 208.114 138.774 208.29 137.85 208.29ZM137.85 206.024C138.407 206.024 138.862 205.878 139.214 205.584C139.566 205.291 139.742 204.866 139.742 204.308C139.742 203.766 139.566 203.348 139.214 203.054C138.862 202.761 138.407 202.614 137.85 202.614C137.292 202.614 136.83 202.761 136.464 203.054C136.112 203.348 135.936 203.766 135.936 204.308C135.936 204.866 136.112 205.291 136.464 205.584C136.83 205.878 137.292 206.024 137.85 206.024ZM139.654 202.68L139.17 200.568H143.746V202.328L139.654 202.68ZM151.097 211.788C149.983 211.788 148.993 211.554 148.127 211.084C147.277 210.6 146.609 209.94 146.125 209.104C145.641 208.254 145.399 207.271 145.399 206.156C145.399 205.012 145.634 204.008 146.103 203.142C146.587 202.262 147.255 201.573 148.105 201.074C148.971 200.561 149.975 200.304 151.119 200.304C152.205 200.304 153.158 200.546 153.979 201.03C154.815 201.5 155.461 202.145 155.915 202.966C156.385 203.773 156.619 204.69 156.619 205.716C156.619 205.863 156.612 206.032 156.597 206.222C156.597 206.398 156.59 206.582 156.575 206.772H147.533V204.968H153.605C153.561 204.279 153.305 203.736 152.835 203.34C152.381 202.93 151.809 202.724 151.119 202.724C150.606 202.724 150.137 202.842 149.711 203.076C149.286 203.296 148.949 203.634 148.699 204.088C148.45 204.543 148.325 205.122 148.325 205.826V206.464C148.325 207.051 148.443 207.564 148.677 208.004C148.912 208.43 149.235 208.767 149.645 209.016C150.071 209.251 150.547 209.368 151.075 209.368C151.618 209.368 152.073 209.251 152.439 209.016C152.806 208.767 153.085 208.452 153.275 208.07H156.289C156.084 208.774 155.739 209.405 155.255 209.962C154.771 210.52 154.177 210.967 153.473 211.304C152.769 211.627 151.977 211.788 151.097 211.788ZM165.542 211.788C164.999 211.788 164.5 211.715 164.046 211.568C163.606 211.436 163.21 211.246 162.858 210.996C162.506 210.732 162.205 210.432 161.956 210.094L161.626 211.524H158.986V195.684H161.956V202.108C162.308 201.624 162.77 201.206 163.342 200.854C163.914 200.488 164.647 200.304 165.542 200.304C166.568 200.304 167.478 200.561 168.27 201.074C169.076 201.573 169.714 202.255 170.184 203.12C170.653 203.986 170.888 204.968 170.888 206.068C170.888 207.168 170.653 208.151 170.184 209.016C169.714 209.882 169.076 210.564 168.27 211.062C167.478 211.546 166.568 211.788 165.542 211.788ZM164.882 209.192C165.454 209.192 165.967 209.06 166.422 208.796C166.876 208.532 167.228 208.166 167.478 207.696C167.742 207.227 167.874 206.684 167.874 206.068C167.874 205.452 167.742 204.91 167.478 204.44C167.228 203.956 166.876 203.582 166.422 203.318C165.967 203.04 165.454 202.9 164.882 202.9C164.295 202.9 163.774 203.04 163.32 203.318C162.865 203.582 162.506 203.949 162.242 204.418C161.992 204.888 161.868 205.43 161.868 206.046C161.868 206.662 161.992 207.212 162.242 207.696C162.506 208.166 162.865 208.532 163.32 208.796C163.774 209.06 164.295 209.192 164.882 209.192ZM178.66 211.788C177.604 211.788 176.65 211.546 175.8 211.062C174.964 210.564 174.296 209.889 173.798 209.038C173.299 208.173 173.05 207.183 173.05 206.068C173.05 204.924 173.299 203.92 173.798 203.054C174.296 202.189 174.971 201.514 175.822 201.03C176.672 200.546 177.618 200.304 178.66 200.304C179.73 200.304 180.684 200.546 181.52 201.03C182.37 201.514 183.038 202.189 183.522 203.054C184.02 203.92 184.27 204.924 184.27 206.068C184.27 207.183 184.02 208.173 183.522 209.038C183.038 209.889 182.37 210.564 181.52 211.062C180.669 211.546 179.716 211.788 178.66 211.788ZM178.66 209.214C179.144 209.214 179.576 209.097 179.958 208.862C180.339 208.628 180.647 208.276 180.882 207.806C181.131 207.337 181.256 206.75 181.256 206.046C181.256 205.342 181.138 204.756 180.904 204.286C180.669 203.817 180.354 203.465 179.958 203.23C179.576 202.996 179.151 202.878 178.682 202.878C178.212 202.878 177.78 202.996 177.384 203.23C176.988 203.465 176.672 203.817 176.438 204.286C176.203 204.756 176.086 205.342 176.086 206.046C176.086 206.75 176.203 207.337 176.438 207.806C176.672 208.276 176.98 208.628 177.362 208.862C177.758 209.097 178.19 209.214 178.66 209.214ZM191.328 211.524C190.566 211.524 189.891 211.407 189.304 211.172C188.718 210.923 188.263 210.52 187.94 209.962C187.618 209.39 187.456 208.613 187.456 207.63V203.054H185.586V200.568H187.456L187.786 197.598H190.426V200.568H193.352V203.054H190.426V207.674C190.426 208.173 190.536 208.518 190.756 208.708C190.976 208.899 191.35 208.994 191.878 208.994H193.286V211.524H191.328ZM200.855 211.788C199.74 211.788 198.75 211.554 197.885 211.084C197.034 210.6 196.367 209.94 195.883 209.104C195.399 208.254 195.157 207.271 195.157 206.156C195.157 205.012 195.392 204.008 195.861 203.142C196.345 202.262 197.012 201.573 197.863 201.074C198.728 200.561 199.733 200.304 200.877 200.304C201.962 200.304 202.916 200.546 203.737 201.03C204.573 201.5 205.218 202.145 205.673 202.966C206.142 203.773 206.377 204.69 206.377 205.716C206.377 205.863 206.37 206.032 206.355 206.222C206.355 206.398 206.348 206.582 206.333 206.772H197.291V204.968H203.363C203.319 204.279 203.062 203.736 202.593 203.34C202.138 202.93 201.566 202.724 200.877 202.724C200.364 202.724 199.894 202.842 199.469 203.076C199.044 203.296 198.706 203.634 198.457 204.088C198.208 204.543 198.083 205.122 198.083 205.826V206.464C198.083 207.051 198.2 207.564 198.435 208.004C198.67 208.43 198.992 208.767 199.403 209.016C199.828 209.251 200.305 209.368 200.833 209.368C201.376 209.368 201.83 209.251 202.197 209.016C202.564 208.767 202.842 208.452 203.033 208.07H206.047C205.842 208.774 205.497 209.405 205.013 209.962C204.529 210.52 203.935 210.967 203.231 211.304C202.527 211.627 201.735 211.788 200.855 211.788Z" fill="#3B1427"/>
</svg>
