
<svg width="492" height="409" viewBox="0 0 492 409" fill="none" xmlns="http://www.w3.org/2000/svg">
<g opacity="0.5">
<path fill-rule="evenodd" clip-rule="evenodd" d="M119.256 130.354C122.047 126.374 127.226 116.268 131.154 114.846C133.684 113.93 132.946 123.404 132.978 125.211C133.099 132.2 132.419 139.145 131.579 146.076C130.065 158.575 125.115 169.707 118.325 180.345C114.831 185.819 110.734 191.359 105.058 194.775C102.445 196.348 99.3017 196.611 96.7216 197.966C93.7168 199.544 95.3532 198.269 93.999 201.4C92.1185 205.747 91.5169 211.355 90.6468 215.994C86.6517 237.288 76.9796 349.855 78.6564 371.515C78.8053 373.435 76.1283 373.894 75.9946 371.55C75.2843 359.123 81.4308 273.064 84.5318 244.921C87.6327 216.777 90.7708 191.914 93.9173 182.177C97.7345 170.364 104.629 156.158 110.367 145.142C113.033 140.025 115.939 135.083 119.256 130.354Z" fill="#B9517A"/>
<path fill-rule="evenodd" clip-rule="evenodd" d="M139.971 268.386C147.233 263.054 155.094 273.117 148.523 278.449C144.89 281.397 141.092 280.348 138.953 277.892C137.565 279.584 136.266 281.353 135.018 282.847C131.214 287.401 127.62 292.063 124.184 296.834C117.047 306.745 110.931 317.216 104.536 327.495C98.2253 337.641 91.9649 347.838 86.2448 358.24C81.399 367.053 74.9403 377.422 73.2812 387.084C75.7984 366.592 85.35 346.896 96.7243 328.832C108.006 310.915 120.953 291.349 138.421 277.21C136.644 274.595 136.594 270.863 139.971 268.386Z" fill="#6D2C48"/>
<path fill-rule="evenodd" clip-rule="evenodd" d="M2.16029 218.411C6.22437 219.205 12.865 228.399 16.215 231.902C20.1963 236.064 23.8083 240.501 27.213 245.15C34.5427 255.156 41.0978 265.794 46.6719 276.888C55.7591 294.973 63.0391 313.539 68.3225 333.233C71.5567 345.288 73.6507 357.783 74.8917 370.191C75.1261 372.531 77.5794 390.572 74.0443 391.058C70.8648 391.496 71.8469 377.359 71.6935 375.436C69.9596 353.742 64.7654 332.633 57.5404 312.185C55.9666 307.731 54.5046 302.275 51.9879 298.266C50.1754 295.379 51.9749 296.386 48.7898 295.293C46.0549 294.354 42.9388 294.584 40.1382 293.434C34.0542 290.939 29.1827 286.096 24.9124 281.224C16.6138 271.755 10.0376 261.512 6.6097 249.379C4.70814 242.652 2.9607 235.886 1.99097 228.951C1.74012 227.159 -0.457348 217.899 2.16029 218.411Z" fill="#B9517A"/>
<path fill-rule="evenodd" clip-rule="evenodd" d="M18.1972 65.4478C33.5057 91.9967 46.0857 121.16 54.2086 150.698C59.1301 168.595 62.5719 186.959 65.9916 205.191C71.2864 233.421 76.2946 261.649 77.7192 290.38C79.1524 319.278 81.9866 352.609 72.524 380.442C77.2506 352.184 72.7506 322.105 71.9538 293.671C71.5731 280.097 70.4697 266.656 69.0223 253.162C67.6177 240.071 65.323 227.043 63.1862 214.056C62.1453 207.731 61.0521 201.415 59.9391 195.103C59.6068 193.22 59.4665 187.631 58.2719 186.345C57.0695 185.05 50.9349 184.522 49.009 183.572C45.1307 181.658 41.4827 178.94 38.2541 176.067C32.0649 170.561 26.6805 163.366 22.4308 156.274C12.598 139.864 8.66685 119.837 8.86554 100.832C8.90372 97.1424 14.838 57.4076 12.4547 56.8604C12.5982 56.6924 12.7339 56.5189 12.8619 56.3384C14.6663 59.3594 16.4369 62.401 18.1972 65.4478Z" fill="#DEABBF"/>
<path fill-rule="evenodd" clip-rule="evenodd" d="M183.429 161.199C183.665 160.858 185.202 158.489 184.428 158.64C186.004 158.332 182.26 161.253 186.188 159.461C184.323 161.222 185.399 163.509 185.424 165.88C185.465 169.728 184.821 173.545 184.096 177.31C182.951 183.263 181.244 189.05 178.768 194.587C173.371 206.652 164.205 218.267 153.324 225.81C147.953 229.534 142.689 230.802 136.562 232.517C132.693 233.6 132.386 235.601 130.332 239.357C126.056 247.177 121.855 254.97 118.084 263.055C113.581 272.709 109.209 282.374 105.086 292.198C91.1943 325.29 79.8878 359.573 73.95 395.053C73.8046 374.145 78.6414 352.611 84.7425 332.682C89.1869 318.162 94.9725 304.165 101.144 290.31C102.639 286.954 104.905 282.636 105.54 278.93C105.985 276.334 104.625 273.837 104.003 271.102C101.576 260.45 101.75 248.518 103.881 237.809C106.23 226.002 113.025 220.521 124.518 218.849C128.722 218.237 134.064 218.461 137.919 216.669C142.118 214.717 143.85 208.302 146.238 204.184C152.652 193.122 160.272 182.512 169.023 173.192C171.446 170.61 174.051 168.229 176.815 166.022C178.559 164.63 182.241 162.914 183.429 161.199Z" fill="#DEABBF"/>
<path fill-rule="evenodd" clip-rule="evenodd" d="M54.5492 372.472H95.3392C97.1731 372.472 98.6599 373.959 98.6599 375.793C98.6599 375.955 98.648 376.117 98.6244 376.277L95.4717 397.655C94.5106 404.172 88.9183 409 82.3309 409H67.5575C60.97 409 55.3778 404.172 54.4167 397.655L51.264 376.277C50.9964 374.463 52.2503 372.775 54.0647 372.508C54.2251 372.484 54.3871 372.472 54.5492 372.472Z" fill="#6D2C48"/>
</g>
<path d="M286.55 409C330.933 409 366.913 374.656 366.913 332.291C366.913 289.925 330.933 255.581 286.55 255.581C242.167 255.581 206.188 289.925 206.188 332.291C206.188 374.656 242.167 409 286.55 409Z" fill="#6D2C48"/>
<path fill-rule="evenodd" clip-rule="evenodd" d="M438.415 397.164C425.043 367.568 415.372 341.796 411.49 328.199C404.844 304.917 399.787 284.431 398.509 276.78C395.462 258.536 421.952 257.474 425.454 266.541C430.753 280.264 440.005 325.352 451.122 393.457L438.415 397.164ZM283.304 304.282C295.573 299.432 338.539 284.255 359.261 279.962C365.216 278.728 370.987 277.582 376.414 276.546C392.542 273.467 400.899 302.564 385.365 304.799C346.679 310.367 291.835 316.116 287.142 316.762C280.564 317.666 275.593 307.329 283.304 304.282Z" fill="#DEABBF"/>
<path fill-rule="evenodd" clip-rule="evenodd" d="M386.314 268.539L319.95 234.756V227.401H327.842C392.046 243.762 424.855 254.246 426.267 258.855C426.282 258.905 426.296 258.955 426.309 259.004C426.341 259.047 426.373 259.089 426.404 259.132C439.128 276.631 446.748 362.063 449.249 368.46L424.867 372.097C415.541 337.512 385.701 313.419 386.494 271.996C386.28 270.781 386.225 269.629 386.314 268.539Z" fill="#B9517A"/>
<path fill-rule="evenodd" clip-rule="evenodd" d="M386.314 268.539L319.95 234.756V227.401H327.842C392.046 243.762 424.855 254.246 426.267 258.855C426.282 258.905 426.296 258.955 426.309 259.004C426.341 259.047 426.373 259.089 426.404 259.132C439.128 276.631 446.748 362.063 449.249 368.46L424.867 372.097C415.541 337.512 385.701 313.419 386.494 271.996C386.28 270.781 386.225 269.629 386.314 268.539Z" fill="#3B1427" fill-opacity="0.6"/>
<path fill-rule="evenodd" clip-rule="evenodd" d="M325.462 288.603C319.39 287.387 313.798 286.302 309.013 285.463C278.107 280.042 269.094 263.498 274.423 227.401H331.368C340.67 230.073 389.012 250.346 414.094 261.129C430.695 268.265 425.462 293.992 416.061 300.687C416.01 301.098 415.84 301.377 415.539 301.502C364.969 322.462 324.963 311.464 311.599 314.978L305.417 295.478L325.462 288.603Z" fill="#B9517A"/>
<path d="M322.46 245.247L277.308 247.919C275.803 247.919 272.792 246.85 272.792 242.574V228.321L275.502 223.867L340.521 228.321L348.648 233.666L322.46 245.247Z" fill="#3B1427" fill-opacity="0.6"/>
<path fill-rule="evenodd" clip-rule="evenodd" d="M288.026 301.338C284.615 301.752 282.186 302.319 280.739 303.04C278.98 303.916 276.545 305.474 273.436 307.713C274.365 309.654 282.714 327.099 298.482 360.046C303.861 359.051 306.038 356.994 305.013 353.877C303.987 350.759 303.163 348.155 302.539 346.066L302.302 316.061C302.298 315.484 301.814 315.045 301.222 315.082C301.212 315.082 301.202 315.083 301.192 315.084L296.455 315.507C293.826 313.458 292.105 311.585 291.294 309.89C290.634 308.512 290.309 306.317 290.317 303.307C290.321 302.151 289.363 301.264 288.179 301.325C288.128 301.328 288.077 301.332 288.026 301.338Z" fill="#B9517A"/>
<path fill-rule="evenodd" clip-rule="evenodd" d="M432.329 391.677C431.161 394.794 430.577 397.126 430.577 398.673C430.577 400.555 430.891 403.302 431.518 406.912C433.701 406.912 453.323 406.912 490.383 406.912C491.912 401.855 491.029 399.125 487.734 398.722C484.438 398.319 481.7 397.955 479.52 397.63L452.16 385.432C451.634 385.198 451.017 385.434 450.782 385.961C450.778 385.97 450.774 385.979 450.77 385.988L449.012 390.254C445.961 391.678 443.481 392.389 441.574 392.389C440.024 392.389 437.884 391.763 435.153 390.512C434.105 390.031 432.866 390.491 432.386 391.539C432.365 391.584 432.346 391.63 432.329 391.677Z" fill="#B9517A"/>
<path fill-rule="evenodd" clip-rule="evenodd" d="M305.605 64.1758C300.795 58.5308 297.54 51.6128 298.084 43.8611C299.651 21.526 330.743 26.4394 336.791 37.7123C342.838 48.9851 342.12 77.5795 334.303 79.5942C331.186 80.3977 324.546 78.4295 317.787 74.3559L322.03 104.367H296.981L305.605 64.1758Z" fill="#DEABBF"/>
<path fill-rule="evenodd" clip-rule="evenodd" d="M326.9 25.4342C323.477 24.3905 318.509 24.0366 316.419 24.276C317.608 21.4274 318.08 18.2537 317.695 15.1636C317.321 12.1609 315.979 9.60423 314.739 6.92515C314.167 5.69026 313.518 4.46211 312.552 3.51756C311.567 2.55526 310.321 1.92007 309.014 1.61703C307.677 1.30683 306.279 1.33266 304.939 1.61417C304.347 1.73868 303.815 2.00958 303.234 2.16018C302.639 2.31448 302.35 1.94203 301.918 1.56773C300.878 0.665834 299.352 0.220609 298.035 0.0612638C296.557 -0.117432 295.024 0.105433 293.615 0.591125C292.244 1.06395 290.926 1.83173 289.935 2.95026C289.493 3.44815 289.092 4.01486 288.832 4.64055C288.725 4.89732 288.707 5.04943 288.451 5.14349C288.214 5.23057 287.937 5.23309 287.692 5.31596C285.328 6.11689 283.306 7.94406 282.205 10.2901C281.563 11.6587 281.258 14.0684 281.342 16.7693C281.425 19.4702 283.864 26.5176 286.145 29.0882C288.181 31.3826 291.173 32.8968 294.062 33.5595C292.145 35.7508 290.868 38.4889 289.925 41.2737C288.9 44.2986 288.265 47.4417 288.031 50.6442C287.809 53.6869 287.788 56.9046 288.501 59.8823C289.169 62.667 290.596 64.9514 292.978 66.4007C294.069 67.0646 295.243 67.5633 296.424 68.0191C297.588 68.4683 298.755 68.905 299.974 69.1571C302.281 69.6339 304.94 69.5521 306.717 67.7157C307.358 67.0536 308.062 66.2217 308.529 65.413C308.697 65.1221 308.799 64.9319 308.595 64.6476C308.35 64.3071 307.954 64.0462 307.64 63.7799C305.849 62.2612 304.74 60.2338 304.46 57.8245C304.177 55.3798 304.833 52.2245 307.21 51.1576C310.144 49.8406 313.375 51.3523 315.983 52.7614C317.091 48.85 319.366 45.3281 322.934 43.5339C326.881 41.549 331.41 41.3167 335.466 39.6137C336.523 39.1699 337.6 38.6661 338.378 37.7618C338.703 37.3839 339.085 36.8937 339.214 36.3939C339.385 35.7373 338.962 35.1868 338.634 34.675C336.9 31.961 330.323 26.4779 326.9 25.4342Z" fill="#B9517A"/>
<path fill-rule="evenodd" clip-rule="evenodd" d="M294.174 92.1422C294.418 91.3488 294.665 90.5532 294.916 89.7554L295.843 90.1914C295.988 90.0422 296.133 89.8968 296.28 89.7554L325.493 94.2724C325.493 110.701 338.564 126.071 346.833 139.296C359.687 159.855 382.56 182.642 367.895 213.184C354.681 240.703 320.261 245.173 264.636 226.591C264.636 211.768 276.819 196.867 277.208 178.844C277.577 161.686 280.785 109.703 294.174 92.1422Z" fill="#B9517A"/>
<path fill-rule="evenodd" clip-rule="evenodd" d="M330.46 205.381C332.414 195.299 333.681 188.568 334.262 185.188C349.825 202.775 358.816 211.67 361.235 211.874C365.784 212.258 369.145 208.224 370.102 209.358C371.684 214.054 367.216 225.811 358.676 227.52C354.598 228.336 348.287 219.926 345.687 216.946C344.664 215.774 339.588 211.919 330.46 205.381ZM357.343 151.627C361.377 151.627 363.544 153.295 365.93 156.66C368.315 160.025 370.573 175.895 366.743 175.895C362.913 175.895 346.867 169.76 346.867 165.636C346.867 161.511 357.816 159.765 357.816 156.66C357.816 153.555 353.309 151.627 357.343 151.627Z" fill="#DEABBF"/>
<path fill-rule="evenodd" clip-rule="evenodd" d="M322.318 220.723C322.078 221.581 321.834 222.455 321.585 223.345C275.877 191.399 275.855 152.685 289.449 109.291C279.202 152.011 283.377 188.041 322.318 220.723Z" fill="#3B1427" fill-opacity="0.6"/>
</svg>
