
<svg width="230" height="220" viewBox="0 0 230 220" fill="none" xmlns="http://www.w3.org/2000/svg">
<path fill-rule="evenodd" clip-rule="evenodd" d="M128.932 48.3174C131.71 44.5121 133.443 39.9741 132.73 35.0886C130.674 21.0121 111.209 25.6043 107.914 33.0342C104.618 40.4642 106.434 58.5469 111.482 59.4515C113.495 59.8123 117.609 58.2494 121.697 55.3469L120.437 74.5634L136.307 73.3718L128.932 48.3174Z" fill="#DEABBF"/>
<path fill-rule="evenodd" clip-rule="evenodd" d="M113.598 24.7856C115.717 23.9615 118.848 23.5009 120.184 23.5531C119.295 21.8049 118.845 19.8165 118.942 17.8404C119.036 15.9202 119.764 14.2365 120.423 12.48C120.727 11.6704 121.079 10.8614 121.646 10.217C122.224 9.56048 122.984 9.09875 123.797 8.84458C124.63 8.58442 125.517 8.53426 126.379 8.6489C126.76 8.6996 127.11 8.84595 127.485 8.91372C127.87 8.98317 128.035 8.73346 128.291 8.47576C128.907 7.85482 129.853 7.50014 130.68 7.33654C131.607 7.15303 132.589 7.2213 133.505 7.46199C134.396 7.69631 135.268 8.12009 135.949 8.78159C136.253 9.07604 136.534 9.41603 136.728 9.80007C136.808 9.95767 136.827 10.0532 136.993 10.1006C137.148 10.1445 137.323 10.1329 137.482 10.1738C139.019 10.5687 140.387 11.6302 141.196 13.0642C141.668 13.9008 141.975 15.4131 142.051 17.1283C142.127 18.8435 140.917 23.4246 139.594 25.1618C138.413 26.7124 136.589 27.8141 134.791 28.3714C136.109 29.6685 137.048 31.3426 137.779 33.0621C138.572 34.9299 139.123 36.8911 139.424 38.909C139.71 40.8262 139.876 42.8639 139.566 44.7845C139.275 46.5805 138.48 48.0958 137.04 49.1273C136.38 49.5999 135.66 49.9717 134.933 50.3167C134.217 50.6567 133.498 50.9889 132.738 51.2066C131.299 51.6185 129.611 51.6931 128.397 50.6141C127.96 50.2251 127.474 49.7316 127.139 49.2414C127.019 49.0651 126.946 48.9494 127.062 48.7596C127.201 48.5322 127.439 48.3481 127.625 48.1644C128.688 47.117 129.294 45.7797 129.357 44.2399C129.42 42.6775 128.854 40.7096 127.297 40.1467C125.376 39.4519 123.4 40.5633 121.815 41.5802C120.927 39.1547 119.318 37.0316 116.972 36.0645C114.377 34.9947 111.496 35.063 108.845 34.1769C108.155 33.946 107.449 33.678 106.913 33.1422C106.689 32.9182 106.424 32.6257 106.317 32.3152C106.178 31.9074 106.42 31.5384 106.603 31.1986C107.573 29.3965 111.479 25.6096 113.598 24.7856Z" fill="#B9517A"/>
<path fill-rule="evenodd" clip-rule="evenodd" d="M137.871 70.4386C137.809 69.915 137.744 69.3896 137.677 68.8624L137.048 69.0304C136.975 68.9208 136.9 68.8135 136.824 68.7084L118.049 68.2343C116.194 78.5061 106.286 86.6409 99.6222 93.9762C89.2639 105.379 72.3899 117.044 78.1108 137.796C83.2657 156.495 104.282 163.176 141.16 157.838C142.833 148.57 136.898 137.877 138.69 126.564C140.397 115.795 144.26 82.9299 137.871 70.4386Z" fill="#B9517A"/>
<path fill-rule="evenodd" clip-rule="evenodd" d="M122.063 146.485C122.116 147.048 125.45 145.518 125.506 146.102C142.334 128.509 142.488 110.36 138.888 81.6936C140.471 109.561 143.482 126.979 122.063 146.485Z" fill="#3B1427" fill-opacity="0.6"/>
<path d="M87.462 122.39L100.466 135.393M100.466 122.39L87.462 135.393" stroke="white" stroke-width="4" stroke-linecap="round" stroke-linejoin="round"/>
<path fill-rule="evenodd" clip-rule="evenodd" d="M111.378 135.429C112.155 137.465 113.77 141.506 116.223 147.552C111.333 152.747 108.641 155.772 108.147 156.628C107.982 156.914 107.789 157.267 107.571 157.663C106.133 160.282 103.641 164.82 101.345 164.812C95.8115 164.793 91.5853 158.011 91.996 154.889C92.1935 154.534 92.7878 154.723 93.6238 154.989C94.7255 155.34 96.2468 155.824 97.8325 155.371C99.3155 154.948 103.831 148.3 111.378 135.429Z" fill="#DEABBF"/>
<path fill-rule="evenodd" clip-rule="evenodd" d="M85.7213 102.674C87.5927 100.839 89.136 100.041 91.6585 100.497C93.0923 100.755 92.7303 101.092 92.0863 101.691C91.5974 102.146 90.946 102.752 90.7947 103.59C90.6318 104.492 91.9795 105.477 93.4228 106.533C95.0861 107.749 96.8763 109.058 96.627 110.438C96.1613 113.017 85.4359 115.041 83.0413 114.609C80.6466 114.177 83.8499 104.509 85.7213 102.674Z" fill="#DEABBF"/>
<path d="M0.474 212V196.6H6.788C7.85867 196.6 8.76067 196.769 9.494 197.106C10.2273 197.443 10.7847 197.913 11.166 198.514C11.5473 199.101 11.738 199.783 11.738 200.56C11.738 201.337 11.5693 201.99 11.232 202.518C10.8947 203.046 10.4473 203.457 9.89 203.75C9.33267 204.029 8.73133 204.19 8.086 204.234L8.438 203.992C9.142 204.021 9.76533 204.212 10.308 204.564C10.8507 204.901 11.2833 205.356 11.606 205.928C11.9287 206.5 12.09 207.123 12.09 207.798C12.09 208.619 11.892 209.345 11.496 209.976C11.1 210.607 10.5207 211.105 9.758 211.472C9.01 211.824 8.09333 212 7.008 212H0.474ZM3.444 209.58H6.546C7.338 209.58 7.954 209.397 8.394 209.03C8.84867 208.663 9.076 208.135 9.076 207.446C9.076 206.757 8.84133 206.221 8.372 205.84C7.91733 205.444 7.294 205.246 6.502 205.246H3.444V209.58ZM3.444 203.024H6.326C7.08867 203.024 7.67533 202.848 8.086 202.496C8.49667 202.144 8.702 201.645 8.702 201C8.702 200.369 8.49667 199.878 8.086 199.526C7.67533 199.159 7.074 198.976 6.282 198.976H3.444V203.024ZM19.7623 212.264C18.6477 212.264 17.6577 212.029 16.7923 211.56C15.9417 211.076 15.2743 210.416 14.7903 209.58C14.3063 208.729 14.0643 207.747 14.0643 206.632C14.0643 205.488 14.299 204.483 14.7683 203.618C15.2523 202.738 15.9197 202.049 16.7703 201.55C17.6357 201.037 18.6403 200.78 19.7843 200.78C20.8697 200.78 21.823 201.022 22.6443 201.506C23.4803 201.975 24.1257 202.621 24.5803 203.442C25.0497 204.249 25.2843 205.165 25.2843 206.192C25.2843 206.339 25.277 206.507 25.2623 206.698C25.2623 206.874 25.255 207.057 25.2403 207.248H16.1983V205.444H22.2703C22.2263 204.755 21.9697 204.212 21.5003 203.816C21.0457 203.405 20.4737 203.2 19.7843 203.2C19.271 203.2 18.8017 203.317 18.3763 203.552C17.951 203.772 17.6137 204.109 17.3643 204.564C17.115 205.019 16.9903 205.598 16.9903 206.302V206.94C16.9903 207.527 17.1077 208.04 17.3423 208.48C17.577 208.905 17.8997 209.243 18.3103 209.492C18.7357 209.727 19.2123 209.844 19.7403 209.844C20.283 209.844 20.7377 209.727 21.1043 209.492C21.471 209.243 21.7497 208.927 21.9403 208.546H24.9543C24.749 209.25 24.4043 209.881 23.9203 210.438C23.4363 210.995 22.8423 211.443 22.1383 211.78C21.4343 212.103 20.6423 212.264 19.7623 212.264ZM32.1454 217.104C31.0894 217.104 30.1654 216.972 29.3734 216.708C28.5961 216.459 27.9947 216.07 27.5694 215.542C27.1441 215.029 26.9314 214.391 26.9314 213.628C26.9314 213.115 27.0634 212.631 27.3274 212.176C27.5914 211.736 27.9727 211.333 28.4714 210.966C28.9847 210.585 29.6154 210.262 30.3634 209.998L31.4634 211.472C30.8034 211.692 30.3267 211.963 30.0334 212.286C29.7401 212.609 29.5934 212.953 29.5934 213.32C29.5934 213.657 29.7034 213.943 29.9234 214.178C30.1581 214.413 30.4661 214.581 30.8474 214.684C31.2287 214.801 31.6541 214.86 32.1234 214.86C32.5781 214.86 32.9741 214.801 33.3114 214.684C33.6634 214.567 33.9347 214.391 34.1254 214.156C34.3307 213.936 34.4334 213.679 34.4334 213.386C34.4334 212.99 34.2941 212.667 34.0154 212.418C33.7367 212.169 33.1867 212.015 32.3654 211.956C31.6174 211.897 30.9574 211.817 30.3854 211.714C29.8134 211.597 29.3074 211.465 28.8674 211.318C28.4421 211.157 28.0754 210.988 27.7674 210.812C27.4594 210.621 27.2174 210.431 27.0414 210.24V209.734L29.3954 207.182L31.4634 207.864L28.7354 210.614L29.5934 209.162C29.7401 209.25 29.8941 209.338 30.0554 209.426C30.2167 209.499 30.4074 209.573 30.6274 209.646C30.8621 209.705 31.1627 209.763 31.5294 209.822C31.9107 209.866 32.3874 209.91 32.9594 209.954C33.9274 210.042 34.7194 210.225 35.3354 210.504C35.9514 210.783 36.4061 211.157 36.6994 211.626C36.9927 212.095 37.1394 212.66 37.1394 213.32C37.1394 213.965 36.9561 214.574 36.5894 215.146C36.2374 215.733 35.6874 216.202 34.9394 216.554C34.2061 216.921 33.2747 217.104 32.1454 217.104ZM32.1454 208.766C31.2214 208.766 30.4221 208.59 29.7474 208.238C29.0874 207.871 28.5741 207.387 28.2074 206.786C27.8554 206.185 27.6794 205.517 27.6794 204.784C27.6794 204.036 27.8554 203.369 28.2074 202.782C28.5741 202.181 29.0874 201.697 29.7474 201.33C30.4221 200.963 31.2214 200.78 32.1454 200.78C33.0694 200.78 33.8614 200.963 34.5214 201.33C35.1961 201.697 35.7094 202.181 36.0614 202.782C36.4281 203.369 36.6114 204.036 36.6114 204.784C36.6114 205.517 36.4281 206.185 36.0614 206.786C35.7094 207.387 35.1961 207.871 34.5214 208.238C33.8614 208.59 33.0694 208.766 32.1454 208.766ZM32.1454 206.5C32.7027 206.5 33.1574 206.353 33.5094 206.06C33.8614 205.767 34.0374 205.341 34.0374 204.784C34.0374 204.241 33.8614 203.823 33.5094 203.53C33.1574 203.237 32.7027 203.09 32.1454 203.09C31.5881 203.09 31.1261 203.237 30.7594 203.53C30.4074 203.823 30.2314 204.241 30.2314 204.784C30.2314 205.341 30.4074 205.767 30.7594 206.06C31.1261 206.353 31.5881 206.5 32.1454 206.5ZM33.9494 203.156L33.4654 201.044H38.0414V202.804L33.9494 203.156ZM40.4769 212V196.16H43.4469V212H40.4769ZM51.6451 212.264C50.5305 212.264 49.5405 212.029 48.6751 211.56C47.8245 211.076 47.1571 210.416 46.6731 209.58C46.1891 208.729 45.9471 207.747 45.9471 206.632C45.9471 205.488 46.1818 204.483 46.6511 203.618C47.1351 202.738 47.8025 202.049 48.6531 201.55C49.5185 201.037 50.5231 200.78 51.6671 200.78C52.7525 200.78 53.7058 201.022 54.5271 201.506C55.3631 201.975 56.0085 202.621 56.4631 203.442C56.9325 204.249 57.1671 205.165 57.1671 206.192C57.1671 206.339 57.1598 206.507 57.1451 206.698C57.1451 206.874 57.1378 207.057 57.1231 207.248H48.0811V205.444H54.1531C54.1091 204.755 53.8525 204.212 53.3831 203.816C52.9285 203.405 52.3565 203.2 51.6671 203.2C51.1538 203.2 50.6845 203.317 50.2591 203.552C49.8338 203.772 49.4965 204.109 49.2471 204.564C48.9978 205.019 48.8731 205.598 48.8731 206.302V206.94C48.8731 207.527 48.9905 208.04 49.2251 208.48C49.4598 208.905 49.7825 209.243 50.1931 209.492C50.6185 209.727 51.0951 209.844 51.6231 209.844C52.1658 209.844 52.6205 209.727 52.9871 209.492C53.3538 209.243 53.6325 208.927 53.8231 208.546H56.8371C56.6318 209.25 56.2871 209.881 55.8031 210.438C55.3191 210.995 54.7251 211.443 54.0211 211.78C53.3171 212.103 52.5251 212.264 51.6451 212.264ZM59.6215 212V201.044H62.5915V212H59.6215ZM61.1175 199.482C60.5748 199.482 60.1275 199.328 59.7755 199.02C59.4382 198.697 59.2695 198.294 59.2695 197.81C59.2695 197.326 59.4382 196.93 59.7755 196.622C60.1275 196.299 60.5748 196.138 61.1175 196.138C61.6455 196.138 62.0782 196.299 62.4155 196.622C62.7675 196.93 62.9435 197.326 62.9435 197.81C62.9435 198.294 62.7675 198.697 62.4155 199.02C62.0782 199.328 61.6455 199.482 61.1175 199.482ZM70.4777 212C69.715 212 69.0403 211.883 68.4537 211.648C67.867 211.399 67.4123 210.995 67.0897 210.438C66.767 209.866 66.6057 209.089 66.6057 208.106V203.53H64.7357V201.044H66.6057L66.9357 198.074H69.5757V201.044H72.5017V203.53H69.5757V208.15C69.5757 208.649 69.6857 208.993 69.9057 209.184C70.1257 209.375 70.4997 209.47 71.0277 209.47H72.4357V212H70.4777ZM80.0045 212.264C78.8898 212.264 77.8998 212.029 77.0345 211.56C76.1838 211.076 75.5165 210.416 75.0325 209.58C74.5485 208.729 74.3065 207.747 74.3065 206.632C74.3065 205.488 74.5412 204.483 75.0105 203.618C75.4945 202.738 76.1618 202.049 77.0125 201.55C77.8778 201.037 78.8825 200.78 80.0265 200.78C81.1118 200.78 82.0652 201.022 82.8865 201.506C83.7225 201.975 84.3678 202.621 84.8225 203.442C85.2918 204.249 85.5265 205.165 85.5265 206.192C85.5265 206.339 85.5192 206.507 85.5045 206.698C85.5045 206.874 85.4972 207.057 85.4825 207.248H76.4405V205.444H82.5125C82.4685 204.755 82.2118 204.212 81.7425 203.816C81.2878 203.405 80.7158 203.2 80.0265 203.2C79.5132 203.2 79.0438 203.317 78.6185 203.552C78.1932 203.772 77.8558 204.109 77.6065 204.564C77.3572 205.019 77.2325 205.598 77.2325 206.302V206.94C77.2325 207.527 77.3498 208.04 77.5845 208.48C77.8192 208.905 78.1418 209.243 78.5525 209.492C78.9778 209.727 79.4545 209.844 79.9825 209.844C80.5252 209.844 80.9798 209.727 81.3465 209.492C81.7132 209.243 81.9918 208.927 82.1825 208.546H85.1965C84.9912 209.25 84.6465 209.881 84.1625 210.438C83.6785 210.995 83.0845 211.443 82.3805 211.78C81.6765 212.103 80.8845 212.264 80.0045 212.264ZM92.6925 212C91.9298 212 91.2552 211.883 90.6685 211.648C90.0818 211.399 89.6272 210.995 89.3045 210.438C88.9818 209.866 88.8205 209.089 88.8205 208.106V203.53H86.9505V201.044H88.8205L89.1505 198.074H91.7905V201.044H94.7165V203.53H91.7905V208.15C91.7905 208.649 91.9005 208.993 92.1205 209.184C92.3405 209.375 92.7145 209.47 93.2425 209.47H94.6505V212H92.6925ZM102.219 212.264C101.105 212.264 100.115 212.029 99.2494 211.56C98.3987 211.076 97.7314 210.416 97.2474 209.58C96.7634 208.729 96.5214 207.747 96.5214 206.632C96.5214 205.488 96.756 204.483 97.2254 203.618C97.7094 202.738 98.3767 202.049 99.2274 201.55C100.093 201.037 101.097 200.78 102.241 200.78C103.327 200.78 104.28 201.022 105.101 201.506C105.937 201.975 106.583 202.621 107.037 203.442C107.507 204.249 107.741 205.165 107.741 206.192C107.741 206.339 107.734 206.507 107.719 206.698C107.719 206.874 107.712 207.057 107.697 207.248H98.6554V205.444H104.727C104.683 204.755 104.427 204.212 103.957 203.816C103.503 203.405 102.931 203.2 102.241 203.2C101.728 203.2 101.259 203.317 100.833 203.552C100.408 203.772 100.071 204.109 99.8214 204.564C99.572 205.019 99.4474 205.598 99.4474 206.302V206.94C99.4474 207.527 99.5647 208.04 99.7994 208.48C100.034 208.905 100.357 209.243 100.767 209.492C101.193 209.727 101.669 209.844 102.197 209.844C102.74 209.844 103.195 209.727 103.561 209.492C103.928 209.243 104.207 208.927 104.397 208.546H107.411C107.206 209.25 106.861 209.881 106.377 210.438C105.893 210.995 105.299 211.443 104.595 211.78C103.891 212.103 103.099 212.264 102.219 212.264ZM115.308 212V196.6H125.34V198.998H118.278V203.112H123.954V205.444H118.278V212H115.308ZM132.212 212.264C131.097 212.264 130.107 212.029 129.242 211.56C128.391 211.076 127.724 210.416 127.24 209.58C126.756 208.729 126.514 207.747 126.514 206.632C126.514 205.488 126.748 204.483 127.218 203.618C127.702 202.738 128.369 202.049 129.22 201.55C130.085 201.037 131.09 200.78 132.234 200.78C133.319 200.78 134.272 201.022 135.094 201.506C135.93 201.975 136.575 202.621 137.03 203.442C137.499 204.249 137.734 205.165 137.734 206.192C137.734 206.339 137.726 206.507 137.712 206.698C137.712 206.874 137.704 207.057 137.69 207.248H128.648V205.444H134.72C134.676 204.755 134.419 204.212 133.95 203.816C133.495 203.405 132.923 203.2 132.234 203.2C131.72 203.2 131.251 203.317 130.826 203.552C130.4 203.772 130.063 204.109 129.814 204.564C129.564 205.019 129.44 205.598 129.44 206.302V206.94C129.44 207.527 129.557 208.04 129.792 208.48C130.026 208.905 130.349 209.243 130.76 209.492C131.185 209.727 131.662 209.844 132.19 209.844C132.732 209.844 133.187 209.727 133.554 209.492C133.92 209.243 134.199 208.927 134.39 208.546H137.404C137.198 209.25 136.854 209.881 136.37 210.438C135.886 210.995 135.292 211.443 134.588 211.78C133.884 212.103 133.092 212.264 132.212 212.264ZM140.1 212V196.16H143.07V202.694C143.437 202.107 143.921 201.645 144.522 201.308C145.138 200.956 145.857 200.78 146.678 200.78C147.587 200.78 148.357 200.978 148.988 201.374C149.619 201.755 150.095 202.32 150.418 203.068C150.755 203.816 150.924 204.74 150.924 205.84V212H147.976V206.104C147.976 205.209 147.793 204.52 147.426 204.036C147.059 203.537 146.48 203.288 145.688 203.288C145.204 203.288 144.757 203.413 144.346 203.662C143.95 203.897 143.635 204.241 143.4 204.696C143.18 205.136 143.07 205.679 143.07 206.324V212H140.1ZM153.614 212V196.16H156.584V212H153.614ZM164.21 217.104C163.154 217.104 162.23 216.972 161.438 216.708C160.661 216.459 160.059 216.07 159.634 215.542C159.209 215.029 158.996 214.391 158.996 213.628C158.996 213.115 159.128 212.631 159.392 212.176C159.656 211.736 160.037 211.333 160.536 210.966C161.049 210.585 161.68 210.262 162.428 209.998L163.528 211.472C162.868 211.692 162.391 211.963 162.098 212.286C161.805 212.609 161.658 212.953 161.658 213.32C161.658 213.657 161.768 213.943 161.988 214.178C162.223 214.413 162.531 214.581 162.912 214.684C163.293 214.801 163.719 214.86 164.188 214.86C164.643 214.86 165.039 214.801 165.376 214.684C165.728 214.567 165.999 214.391 166.19 214.156C166.395 213.936 166.498 213.679 166.498 213.386C166.498 212.99 166.359 212.667 166.08 212.418C165.801 212.169 165.251 212.015 164.43 211.956C163.682 211.897 163.022 211.817 162.45 211.714C161.878 211.597 161.372 211.465 160.932 211.318C160.507 211.157 160.14 210.988 159.832 210.812C159.524 210.621 159.282 210.431 159.106 210.24V209.734L161.46 207.182L163.528 207.864L160.8 210.614L161.658 209.162C161.805 209.25 161.959 209.338 162.12 209.426C162.281 209.499 162.472 209.573 162.692 209.646C162.927 209.705 163.227 209.763 163.594 209.822C163.975 209.866 164.452 209.91 165.024 209.954C165.992 210.042 166.784 210.225 167.4 210.504C168.016 210.783 168.471 211.157 168.764 211.626C169.057 212.095 169.204 212.66 169.204 213.32C169.204 213.965 169.021 214.574 168.654 215.146C168.302 215.733 167.752 216.202 167.004 216.554C166.271 216.921 165.339 217.104 164.21 217.104ZM164.21 208.766C163.286 208.766 162.487 208.59 161.812 208.238C161.152 207.871 160.639 207.387 160.272 206.786C159.92 206.185 159.744 205.517 159.744 204.784C159.744 204.036 159.92 203.369 160.272 202.782C160.639 202.181 161.152 201.697 161.812 201.33C162.487 200.963 163.286 200.78 164.21 200.78C165.134 200.78 165.926 200.963 166.586 201.33C167.261 201.697 167.774 202.181 168.126 202.782C168.493 203.369 168.676 204.036 168.676 204.784C168.676 205.517 168.493 206.185 168.126 206.786C167.774 207.387 167.261 207.871 166.586 208.238C165.926 208.59 165.134 208.766 164.21 208.766ZM164.21 206.5C164.767 206.5 165.222 206.353 165.574 206.06C165.926 205.767 166.102 205.341 166.102 204.784C166.102 204.241 165.926 203.823 165.574 203.53C165.222 203.237 164.767 203.09 164.21 203.09C163.653 203.09 163.191 203.237 162.824 203.53C162.472 203.823 162.296 204.241 162.296 204.784C162.296 205.341 162.472 205.767 162.824 206.06C163.191 206.353 163.653 206.5 164.21 206.5ZM166.014 203.156L165.53 201.044H170.106V202.804L166.014 203.156ZM177.458 212.264C176.343 212.264 175.353 212.029 174.488 211.56C173.637 211.076 172.97 210.416 172.486 209.58C172.002 208.729 171.76 207.747 171.76 206.632C171.76 205.488 171.994 204.483 172.464 203.618C172.948 202.738 173.615 202.049 174.466 201.55C175.331 201.037 176.336 200.78 177.48 200.78C178.565 200.78 179.518 201.022 180.34 201.506C181.176 201.975 181.821 202.621 182.276 203.442C182.745 204.249 182.98 205.165 182.98 206.192C182.98 206.339 182.972 206.507 182.958 206.698C182.958 206.874 182.95 207.057 182.936 207.248H173.894V205.444H179.966C179.922 204.755 179.665 204.212 179.196 203.816C178.741 203.405 178.169 203.2 177.48 203.2C176.966 203.2 176.497 203.317 176.072 203.552C175.646 203.772 175.309 204.109 175.06 204.564C174.81 205.019 174.686 205.598 174.686 206.302V206.94C174.686 207.527 174.803 208.04 175.038 208.48C175.272 208.905 175.595 209.243 176.006 209.492C176.431 209.727 176.908 209.844 177.436 209.844C177.978 209.844 178.433 209.727 178.8 209.492C179.166 209.243 179.445 208.927 179.636 208.546H182.65C182.444 209.25 182.1 209.881 181.616 210.438C181.132 210.995 180.538 211.443 179.834 211.78C179.13 212.103 178.338 212.264 177.458 212.264ZM191.902 212.264C191.359 212.264 190.861 212.191 190.406 212.044C189.966 211.912 189.57 211.721 189.218 211.472C188.866 211.208 188.565 210.907 188.316 210.57L187.986 212H185.346V196.16H188.316V202.584C188.668 202.1 189.13 201.682 189.702 201.33C190.274 200.963 191.007 200.78 191.902 200.78C192.929 200.78 193.838 201.037 194.63 201.55C195.437 202.049 196.075 202.731 196.544 203.596C197.013 204.461 197.248 205.444 197.248 206.544C197.248 207.644 197.013 208.627 196.544 209.492C196.075 210.357 195.437 211.039 194.63 211.538C193.838 212.022 192.929 212.264 191.902 212.264ZM191.242 209.668C191.814 209.668 192.327 209.536 192.782 209.272C193.237 209.008 193.589 208.641 193.838 208.172C194.102 207.703 194.234 207.16 194.234 206.544C194.234 205.928 194.102 205.385 193.838 204.916C193.589 204.432 193.237 204.058 192.782 203.794C192.327 203.515 191.814 203.376 191.242 203.376C190.655 203.376 190.135 203.515 189.68 203.794C189.225 204.058 188.866 204.425 188.602 204.894C188.353 205.363 188.228 205.906 188.228 206.522C188.228 207.138 188.353 207.688 188.602 208.172C188.866 208.641 189.225 209.008 189.68 209.272C190.135 209.536 190.655 209.668 191.242 209.668ZM203.854 212.264C202.959 212.264 202.189 212.073 201.544 211.692C200.913 211.311 200.429 210.746 200.092 209.998C199.769 209.25 199.608 208.333 199.608 207.248V201.044H202.556V206.962C202.556 207.871 202.739 208.568 203.106 209.052C203.473 209.521 204.052 209.756 204.844 209.756C205.343 209.756 205.79 209.639 206.186 209.404C206.582 209.169 206.89 208.832 207.11 208.392C207.33 207.937 207.44 207.387 207.44 206.742V201.044H210.41V212H207.792L207.572 210.174C207.235 210.805 206.751 211.311 206.12 211.692C205.489 212.073 204.734 212.264 203.854 212.264ZM213.276 212V201.044H215.916L216.202 203.09C216.466 202.621 216.788 202.217 217.17 201.88C217.566 201.528 218.02 201.257 218.534 201.066C219.047 200.875 219.604 200.78 220.206 200.78V203.926H219.37C218.915 203.926 218.49 203.977 218.094 204.08C217.712 204.183 217.382 204.351 217.104 204.586C216.825 204.821 216.612 205.143 216.466 205.554C216.319 205.95 216.246 206.449 216.246 207.05V212H213.276ZM227.099 212C226.336 212 225.661 211.883 225.075 211.648C224.488 211.399 224.033 210.995 223.711 210.438C223.388 209.866 223.227 209.089 223.227 208.106V203.53H221.357V201.044H223.227L223.557 198.074H226.197V201.044H229.123V203.53H226.197V208.15C226.197 208.649 226.307 208.993 226.527 209.184C226.747 209.375 227.121 209.47 227.649 209.47H229.057V212H227.099Z" fill="#3B1427"/>
</svg>
