
<svg width="220" height="220" viewBox="0 0 220 220" fill="none" xmlns="http://www.w3.org/2000/svg">
<path fill-rule="evenodd" clip-rule="evenodd" d="M63.9491 40.8767C63.0151 36.8614 61.0857 33.126 57.6777 30.8235C47.8582 24.1894 40.6714 39.7727 43.594 46.1937C46.5166 52.6147 58.7051 61.6865 61.873 58.8367C63.1363 57.7001 64.2864 54.07 64.59 49.6951L75.8969 61.4614L83.3446 50.2075L63.9491 40.8767Z" fill="#DEABBF"/>
<path fill-rule="evenodd" clip-rule="evenodd" d="M41.2727 37.7335C41.8491 35.8632 43.1729 33.5292 43.8927 32.6748C42.3454 32.2706 40.8743 31.4396 39.692 30.2537C38.5432 29.1014 37.8682 27.6634 37.1121 26.2302C36.7636 25.5696 36.4404 24.8772 36.3306 24.1358C36.2187 23.3806 36.3215 22.6158 36.5816 21.933C36.8478 21.2343 37.273 20.6186 37.7879 20.1131C38.0157 19.8895 38.2869 19.7411 38.5223 19.5311C38.7634 19.3162 38.6926 19.0651 38.6636 18.7494C38.5937 17.9888 38.8591 17.1615 39.1825 16.5214C39.5454 15.8033 40.0931 15.1921 40.7144 14.7226C41.3192 14.2655 42.0317 13.9294 42.7947 13.8539C43.1344 13.8202 43.4909 13.8273 43.8306 13.9164C43.9699 13.953 44.039 13.995 44.1544 13.9115C44.2611 13.8343 44.3443 13.7114 44.4515 13.6295C45.4883 12.8367 46.8539 12.5339 48.1642 12.8125C48.9287 12.975 50.0297 13.63 51.138 14.5536C52.2463 15.4773 54.48 18.8788 54.8824 20.7406C55.2415 22.4025 54.9899 24.2353 54.4121 25.742C55.8993 25.6054 57.4261 25.9345 58.8739 26.4272C60.4466 26.9624 61.9531 27.7108 63.3659 28.6573C64.7082 29.5566 66.0641 30.6034 67.1019 31.8991C68.0723 33.1109 68.6077 34.4977 68.5097 36.0367C68.4649 36.7417 68.3262 37.4294 68.1674 38.1061C68.011 38.773 67.8483 39.4374 67.5928 40.0643C67.1092 41.2507 66.2871 42.4104 64.9901 42.601C64.5226 42.6697 63.9649 42.7111 63.4871 42.6542C63.3153 42.6338 63.2055 42.6166 63.1467 42.4322C63.0764 42.2112 63.0841 41.949 63.0655 41.7214C62.9593 40.4233 62.4375 39.2629 61.5096 38.3474C60.5681 37.4184 59.0499 36.676 57.8981 37.3867C56.4762 38.2641 56.1529 40.2025 55.9713 41.8289C54.0021 41.0399 51.8504 40.8998 50.0406 41.9034C48.0384 43.0138 46.5988 44.9592 44.6825 46.2108C44.1831 46.537 43.6528 46.8522 43.0428 46.9027C42.7879 46.9239 42.4693 46.9333 42.2211 46.8272C41.8951 46.6878 41.7897 46.3182 41.6719 46.0042C41.0474 44.3392 40.6963 39.6038 41.2727 37.7335Z" fill="#B9517A"/>
<path fill-rule="evenodd" clip-rule="evenodd" d="M80.3924 68.9875C76.8276 74.3667 71.0536 80.7785 61.3848 85.0021L65.8726 92.8435C74.3586 91.286 83.3445 86.8972 87.4047 80.2263C90.6044 74.9692 86.3575 67.8927 80.3924 68.9875Z" fill="#B9517A"/>
<path fill-rule="evenodd" clip-rule="evenodd" d="M80.3924 68.9875C76.8276 74.3667 71.0536 80.7785 61.3848 85.0021L65.8726 92.8435C74.3586 91.286 83.3445 86.8972 87.4047 80.2263C90.6044 74.9692 86.3575 67.8927 80.3924 68.9875Z" fill="#3B1427" fill-opacity="0.6"/>
<path d="M54.9813 153.494C78.5822 153.494 97.7145 133.747 97.7145 109.387C97.7145 85.0269 78.5822 65.2793 54.9813 65.2793C31.3804 65.2793 12.248 85.0269 12.248 109.387C12.248 133.747 31.3804 153.494 54.9813 153.494Z" fill="#6D2C48"/>
<path fill-rule="evenodd" clip-rule="evenodd" d="M63.3983 107.398L73.2771 106.137L78.1405 114.177C73.4847 114.148 69.5854 114.755 66.4426 115.997C60.4318 118.373 57.6269 118.787 52.8777 117.287C50.3367 116.484 46.7385 113.686 47.1634 111.522C47.3264 110.692 49.8313 110.385 52.3871 110.073C54.335 109.835 56.3124 109.593 57.3052 109.113C58.6418 108.467 57.3817 106.922 56.3748 105.687C55.6523 104.801 55.0601 104.075 55.6512 103.955C57.0344 102.91 59.6168 104.057 63.3983 107.398Z" fill="#DEABBF"/>
<path fill-rule="evenodd" clip-rule="evenodd" d="M154.572 107.092C154.77 104.331 154.967 101.795 155.177 99.6395C156.533 85.7151 150.078 79.2184 132.892 75.59L125.821 99.6192C125.889 103.979 129.168 127.679 130.99 140.019C132.196 148.186 144.623 150.166 148.855 147.289C149.05 147.335 149.199 147.309 149.293 147.202C165.167 129.275 147.39 138.393 150.658 133.326L153.045 121.174L154.572 107.092Z" fill="#DEABBF"/>
<path fill-rule="evenodd" clip-rule="evenodd" d="M154.572 107.092C154.77 104.331 154.967 101.795 155.177 99.6395C156.533 85.7151 150.078 79.2184 132.892 75.59L125.821 99.6192C125.889 103.979 129.168 127.679 130.99 140.019C132.196 148.186 144.623 150.166 148.855 147.289C149.05 147.335 149.199 147.309 149.293 147.202C165.167 129.275 147.39 138.393 150.658 133.326L153.045 121.174L154.572 107.092Z" fill="#3B1427" fill-opacity="0.6"/>
<path fill-rule="evenodd" clip-rule="evenodd" d="M162.389 105.389C162.972 102.267 163.524 99.3982 164.036 96.9622C167.342 81.2274 161.69 73.5467 144.745 68.6066L134.237 95.5336C133.702 100.484 133.745 127.533 133.885 141.622C133.977 150.946 146.319 153.789 151.014 150.727C151.205 150.788 151.359 150.765 151.47 150.649C170.07 131.068 150.759 140.562 154.779 134.969L158.887 121.295L162.389 105.389Z" fill="#DEABBF"/>
<path fill-rule="evenodd" clip-rule="evenodd" d="M79.5692 46.6073C79.1438 46.5213 78.7165 46.4365 78.2874 46.3528L78.2696 46.9114C78.1662 46.9428 78.0643 46.9758 77.9639 47.0103L73.1293 62.25C80.7407 66.463 84.7626 76.7056 88.929 84.083C95.4058 95.5513 100.539 112.42 118.167 113.184C134.051 113.872 143.207 99.5035 147.789 67.9255C140.921 64.1242 132.205 65.0989 123.762 60.6639C115.725 56.442 90.88 44.6569 79.5692 46.6073Z" fill="#B9517A"/>
<path fill-rule="evenodd" clip-rule="evenodd" d="M188.361 130.04C189.249 128.756 189.982 127.906 190.559 127.489C191.26 126.981 192.356 126.359 193.848 125.623C194.357 126.451 198.935 133.889 207.581 147.938C206.054 149.882 204.831 150.283 203.912 149.143C202.993 148.002 202.218 147.063 201.589 146.324L190.661 139.241C190.451 139.105 190.395 138.807 190.536 138.576C190.539 138.573 190.541 138.569 190.544 138.565L191.723 136.748C191.541 135.207 191.228 134.075 190.783 133.352C190.421 132.765 189.689 132.122 188.585 131.424C188.162 131.157 188.044 130.563 188.323 130.098C188.335 130.078 188.347 130.059 188.361 130.04Z" fill="#DEABBF"/>
<path fill-rule="evenodd" clip-rule="evenodd" d="M145.57 134.37L140.388 128.796L139.566 132.324L134.642 132.763C151.828 154.474 146.282 151.616 148.201 151.289C148.221 151.285 149.104 151.637 149.124 151.632C149.145 151.637 149.166 151.641 149.187 151.645C157.762 153.245 190.07 140 192.828 139.754L189.872 129.643C175.699 132.593 161.733 125.628 146.855 133.784C146.377 133.931 145.949 134.129 145.57 134.37Z" fill="#DEABBF"/>
<path fill-rule="evenodd" clip-rule="evenodd" d="M91.5321 84.9875C89.1759 91.7641 81.6352 97.4772 66.432 103.652C70.8929 111.964 69.1942 116.793 72.1846 118.649C86.155 115.561 101.467 110.245 106.952 102.168C111.431 105.897 116.238 108.606 121.569 109.631C132.528 111.74 140.352 82.0351 147.084 75.1086C134.706 58.3869 122.029 63.3971 112.013 55.9338C101.043 47.7607 78.1972 44.3862 77.3187 45.7426L69.3076 58.1124C77.2386 65.0434 84.2416 75.365 91.5321 84.9875Z" fill="#B9517A"/>
<path fill-rule="evenodd" clip-rule="evenodd" d="M110.011 99.3765C110.407 99.6213 110.811 99.8706 111.222 100.124C132.587 74.9832 111.337 58.9243 90.7623 47.1031C109.873 59.9307 126.012 73.66 110.011 99.3765Z" fill="#3B1427" fill-opacity="0.6"/>
<path d="M79.9863 211.788C78.5197 211.788 77.2437 211.466 76.1583 210.82C75.073 210.16 74.2297 209.244 73.6283 208.07C73.027 206.882 72.7263 205.504 72.7263 203.934C72.7263 202.35 73.0343 200.957 73.6503 199.754C74.281 198.537 75.1757 197.584 76.3343 196.894C77.493 196.205 78.8717 195.86 80.4703 195.86C82.2743 195.86 83.7777 196.293 84.9803 197.158C86.183 198.024 86.953 199.226 87.2903 200.766H83.9903C83.7557 200.092 83.3377 199.564 82.7363 199.182C82.1497 198.786 81.387 198.588 80.4483 198.588C79.451 198.588 78.6003 198.808 77.8963 199.248C77.1923 199.688 76.657 200.304 76.2903 201.096C75.9237 201.888 75.7403 202.834 75.7403 203.934C75.7403 205.049 75.9237 205.995 76.2903 206.772C76.657 207.55 77.1777 208.144 77.8523 208.554C78.5417 208.95 79.3483 209.148 80.2723 209.148C81.6217 209.148 82.641 208.789 83.3303 208.07C84.0343 207.337 84.4523 206.391 84.5843 205.232H80.8003V203.01H87.5763V211.524H84.8263L84.6063 209.566C84.2837 210.05 83.9023 210.461 83.4623 210.798C83.037 211.121 82.5383 211.363 81.9663 211.524C81.3943 211.7 80.7343 211.788 79.9863 211.788ZM95.5924 211.788C94.4777 211.788 93.4877 211.554 92.6224 211.084C91.7717 210.6 91.1044 209.94 90.6204 209.104C90.1364 208.254 89.8944 207.271 89.8944 206.156C89.8944 205.012 90.1291 204.008 90.5984 203.142C91.0824 202.262 91.7497 201.573 92.6004 201.074C93.4657 200.561 94.4704 200.304 95.6144 200.304C96.6997 200.304 97.6531 200.546 98.4744 201.03C99.3104 201.5 99.9557 202.145 100.41 202.966C100.88 203.773 101.114 204.69 101.114 205.716C101.114 205.863 101.107 206.032 101.092 206.222C101.092 206.398 101.085 206.582 101.07 206.772H92.0284V204.968H98.1004C98.0564 204.279 97.7997 203.736 97.3304 203.34C96.8757 202.93 96.3037 202.724 95.6144 202.724C95.1011 202.724 94.6317 202.842 94.2064 203.076C93.7811 203.296 93.4437 203.634 93.1944 204.088C92.9451 204.543 92.8204 205.122 92.8204 205.826V206.464C92.8204 207.051 92.9377 207.564 93.1724 208.004C93.4071 208.43 93.7297 208.767 94.1404 209.016C94.5657 209.251 95.0424 209.368 95.5704 209.368C96.1131 209.368 96.5677 209.251 96.9344 209.016C97.3011 208.767 97.5797 208.452 97.7704 208.07H100.784C100.579 208.774 100.234 209.405 99.7504 209.962C99.2664 210.52 98.6724 210.967 97.9684 211.304C97.2644 211.627 96.4724 211.788 95.5924 211.788ZM110.037 211.788C109.494 211.788 108.995 211.715 108.541 211.568C108.101 211.436 107.705 211.246 107.353 210.996C107.001 210.732 106.7 210.432 106.451 210.094L106.121 211.524H103.481V195.684H106.451V202.108C106.803 201.624 107.265 201.206 107.837 200.854C108.409 200.488 109.142 200.304 110.037 200.304C111.063 200.304 111.973 200.561 112.765 201.074C113.571 201.573 114.209 202.255 114.679 203.12C115.148 203.986 115.383 204.968 115.383 206.068C115.383 207.168 115.148 208.151 114.679 209.016C114.209 209.882 113.571 210.564 112.765 211.062C111.973 211.546 111.063 211.788 110.037 211.788ZM109.377 209.192C109.949 209.192 110.462 209.06 110.917 208.796C111.371 208.532 111.723 208.166 111.973 207.696C112.237 207.227 112.369 206.684 112.369 206.068C112.369 205.452 112.237 204.91 111.973 204.44C111.723 203.956 111.371 203.582 110.917 203.318C110.462 203.04 109.949 202.9 109.377 202.9C108.79 202.9 108.269 203.04 107.815 203.318C107.36 203.582 107.001 203.949 106.737 204.418C106.487 204.888 106.363 205.43 106.363 206.046C106.363 206.662 106.487 207.212 106.737 207.696C107.001 208.166 107.36 208.532 107.815 208.796C108.269 209.06 108.79 209.192 109.377 209.192ZM121.989 211.788C121.094 211.788 120.324 211.598 119.679 211.216C119.048 210.835 118.564 210.27 118.227 209.522C117.904 208.774 117.743 207.858 117.743 206.772V200.568H120.691V206.486C120.691 207.396 120.874 208.092 121.241 208.576C121.607 209.046 122.187 209.28 122.979 209.28C123.477 209.28 123.925 209.163 124.321 208.928C124.717 208.694 125.025 208.356 125.245 207.916C125.465 207.462 125.575 206.912 125.575 206.266V200.568H128.545V211.524H125.927L125.707 209.698C125.369 210.329 124.885 210.835 124.255 211.216C123.624 211.598 122.869 211.788 121.989 211.788ZM131.41 211.524V200.568H134.05L134.336 202.614C134.6 202.145 134.923 201.742 135.304 201.404C135.7 201.052 136.155 200.781 136.668 200.59C137.182 200.4 137.739 200.304 138.34 200.304V203.45H137.504C137.05 203.45 136.624 203.502 136.228 203.604C135.847 203.707 135.517 203.876 135.238 204.11C134.96 204.345 134.747 204.668 134.6 205.078C134.454 205.474 134.38 205.973 134.38 206.574V211.524H131.41ZM145.234 211.524C144.471 211.524 143.796 211.407 143.21 211.172C142.623 210.923 142.168 210.52 141.846 209.962C141.523 209.39 141.362 208.613 141.362 207.63V203.054H139.492V200.568H141.362L141.692 197.598H144.332V200.568H147.258V203.054H144.332V207.674C144.332 208.173 144.442 208.518 144.662 208.708C144.882 208.899 145.256 208.994 145.784 208.994H147.192V211.524H145.234Z" fill="#3B1427"/>
</svg>
