
<svg width="220" height="220" viewBox="0 0 220 220" fill="none" xmlns="http://www.w3.org/2000/svg">
<path d="M84.6441 167.001C102.766 167.001 117.457 152.977 117.457 135.679C117.457 118.381 102.766 104.357 84.6441 104.357C66.522 104.357 51.8311 118.381 51.8311 135.679C51.8311 152.977 66.522 167.001 84.6441 167.001Z" fill="#6D2C48"/>
<path fill-rule="evenodd" clip-rule="evenodd" d="M146.652 162.168C141.192 150.083 137.243 139.56 135.658 134.008C132.944 124.502 130.879 116.137 130.358 113.013C129.113 105.564 139.93 105.13 141.359 108.832C143.523 114.436 147.301 132.846 151.84 160.654L146.652 162.168ZM83.3178 124.242C88.3274 122.262 105.871 116.065 114.332 114.312C116.763 113.808 119.12 113.34 121.336 112.917C127.921 111.66 131.333 123.541 124.99 124.454C109.195 126.727 86.8013 129.075 84.8849 129.338C82.199 129.707 80.1694 125.487 83.3178 124.242Z" fill="#DEABBF"/>
<path fill-rule="evenodd" clip-rule="evenodd" d="M125.379 109.649L98.2812 95.8545V92.8516H101.504C127.719 99.5317 141.115 103.813 141.692 105.695C141.698 105.715 141.704 105.735 141.709 105.755C141.722 105.773 141.735 105.79 141.748 105.808C146.943 112.953 150.055 147.836 151.076 150.448L141.121 151.933C137.312 137.811 125.128 127.974 125.452 111.06C125.365 110.564 125.342 110.094 125.379 109.649Z" fill="#B9517A"/>
<path fill-rule="evenodd" clip-rule="evenodd" d="M125.379 109.649L98.2812 95.8545V92.8516H101.504C127.719 99.5317 141.115 103.813 141.692 105.695C141.698 105.715 141.704 105.735 141.709 105.755C141.722 105.773 141.735 105.79 141.748 105.808C146.943 112.953 150.055 147.836 151.076 150.448L141.121 151.933C137.312 137.811 125.128 127.974 125.452 111.06C125.365 110.564 125.342 110.094 125.379 109.649Z" fill="#3B1427" fill-opacity="0.6"/>
<path fill-rule="evenodd" clip-rule="evenodd" d="M100.531 117.841C98.0521 117.345 95.7688 116.902 93.8152 116.559C81.1956 114.345 77.5156 107.59 79.6914 92.8516H102.943C106.741 93.9426 126.48 102.22 136.721 106.623C143.499 109.537 141.363 120.041 137.524 122.775C137.503 122.943 137.434 123.057 137.311 123.108C116.663 131.666 100.328 127.175 94.8708 128.61L92.3468 120.648L100.531 117.841Z" fill="#B9517A"/>
<path d="M99.3063 100.138L80.87 101.229C80.2555 101.229 79.0264 100.792 79.0264 99.0465V93.2268L80.1325 91.4082L106.681 93.2268L109.999 95.4092L99.3063 100.138Z" fill="#3B1427" fill-opacity="0.6"/>
<path fill-rule="evenodd" clip-rule="evenodd" d="M85.2471 123.041C83.8544 123.21 82.8626 123.441 82.2718 123.735C81.5533 124.093 80.5594 124.729 79.2899 125.644C79.6692 126.436 83.078 133.559 89.5163 147.012C91.7127 146.606 92.6016 145.766 92.1829 144.493C91.7643 143.22 91.4277 142.157 91.173 141.304L91.0763 129.052C91.0744 128.816 90.8769 128.637 90.6352 128.652C90.631 128.653 90.6269 128.653 90.6228 128.653L88.6886 128.826C87.6151 127.989 86.9127 127.225 86.5813 126.532C86.312 125.97 86.1792 125.074 86.1827 123.844C86.184 123.373 85.7931 123.01 85.3096 123.035C85.2887 123.036 85.2679 123.038 85.2471 123.041Z" fill="#B9517A"/>
<path fill-rule="evenodd" clip-rule="evenodd" d="M144.167 159.927C143.691 161.199 143.452 162.151 143.452 162.783C143.452 163.552 143.58 164.673 143.836 166.147C144.728 166.147 152.739 166.147 167.871 166.147C168.496 164.083 168.136 162.968 166.79 162.803C165.444 162.638 164.326 162.49 163.436 162.357L152.265 157.377C152.05 157.281 151.798 157.378 151.702 157.593C151.7 157.596 151.699 157.6 151.697 157.604L150.979 159.346C149.733 159.927 148.721 160.217 147.942 160.217C147.309 160.217 146.436 159.962 145.321 159.451C144.893 159.255 144.387 159.442 144.191 159.87C144.182 159.889 144.174 159.908 144.167 159.927Z" fill="#B9517A"/>
<path fill-rule="evenodd" clip-rule="evenodd" d="M92.4242 26.2036C90.4606 23.8987 89.1316 21.074 89.3537 17.9089C89.9935 8.78918 102.688 10.7954 105.158 15.3982C107.627 20.0011 107.334 31.6765 104.142 32.4992C102.87 32.8273 100.158 32.0236 97.3987 30.3603L99.1308 42.6144H88.9033L92.4242 26.2036Z" fill="#DEABBF"/>
<path fill-rule="evenodd" clip-rule="evenodd" d="M101.119 10.3851C99.7218 9.95897 97.6931 9.81446 96.8397 9.91222C97.3252 8.74909 97.5178 7.45323 97.3608 6.19148C97.2081 4.96546 96.6603 3.92153 96.1536 2.82763C95.9201 2.32341 95.6554 1.82194 95.2608 1.43627C94.8588 1.04335 94.35 0.783989 93.8164 0.660253C93.2703 0.533597 92.6994 0.544143 92.1525 0.659085C91.9106 0.709926 91.6935 0.820539 91.4562 0.88203C91.2132 0.945031 91.0954 0.792955 90.919 0.640123C90.494 0.271869 89.8709 0.0900776 89.3333 0.0250148C88.73 -0.0479489 88.104 0.0430497 87.5287 0.241364C86.9687 0.434423 86.4307 0.747919 86.0258 1.20463C85.8455 1.40793 85.6819 1.63932 85.5756 1.8948C85.5319 1.99964 85.5247 2.06175 85.4201 2.10015C85.3233 2.13571 85.2102 2.13674 85.1103 2.17057C84.1448 2.49761 83.3192 3.24366 82.8697 4.20157C82.6074 4.76041 82.4832 5.74433 82.5172 6.84714C82.5513 7.94995 83.547 10.8275 84.4784 11.8771C85.3097 12.8139 86.5317 13.4322 87.711 13.7028C86.9282 14.5975 86.4071 15.7155 86.0218 16.8526C85.6033 18.0877 85.3443 19.3711 85.2486 20.6787C85.1578 21.921 85.1494 23.2349 85.4406 24.4507C85.7131 25.5877 86.2958 26.5205 87.2685 27.1123C87.714 27.3833 88.1934 27.587 88.6756 27.7731C89.1508 27.9565 89.6274 28.1348 90.1252 28.2377C91.0672 28.4324 92.1527 28.399 92.8783 27.6492C93.1399 27.3789 93.4275 27.0392 93.6183 26.709C93.6869 26.5902 93.7283 26.5125 93.6449 26.3965C93.5451 26.2574 93.3836 26.1509 93.2553 26.0422C92.5238 25.4221 92.071 24.5943 91.9568 23.6105C91.841 22.6123 92.1092 21.3239 93.0796 20.8883C94.2776 20.3506 95.5968 20.9678 96.6616 21.5432C97.1141 19.9461 98.0432 18.5081 99.4999 17.7755C101.112 16.965 102.961 16.8702 104.617 16.1748C105.049 15.9936 105.488 15.7879 105.806 15.4186C105.939 15.2643 106.094 15.0642 106.147 14.8601C106.217 14.592 106.044 14.3672 105.911 14.1582C105.202 13.0501 102.517 10.8113 101.119 10.3851Z" fill="#B9517A"/>
<path fill-rule="evenodd" clip-rule="evenodd" d="M87.756 37.623C87.8555 37.2991 87.9565 36.9742 88.059 36.6484L88.4374 36.8265C88.4964 36.7655 88.5559 36.7062 88.6159 36.6484L100.544 38.4928C100.544 45.2006 105.881 51.4767 109.257 56.8767C114.506 65.2709 123.845 74.5751 117.857 87.0458C112.462 98.2825 98.4077 100.107 75.6953 92.5201C75.6953 86.4678 80.6698 80.3834 80.8284 73.0243C80.9793 66.0188 82.2892 44.7931 87.756 37.623Z" fill="#B9517A"/>
<path fill-rule="evenodd" clip-rule="evenodd" d="M102.572 83.8596C103.37 79.743 103.887 76.9946 104.125 75.6146C110.479 82.7955 114.15 86.4276 115.138 86.5109C116.995 86.6676 118.368 85.0205 118.759 85.4835C119.405 87.4012 117.58 92.2014 114.093 92.8993C112.428 93.2326 109.851 89.7987 108.79 88.582C108.372 88.1035 106.3 86.5294 102.572 83.8596ZM113.549 61.9111C115.196 61.9111 116.081 62.5922 117.055 63.9661C118.029 65.3401 118.951 71.8201 117.387 71.8201C115.823 71.8201 109.271 69.3152 109.271 67.6311C109.271 65.9471 113.742 65.2339 113.742 63.9661C113.742 62.6984 111.902 61.9111 113.549 61.9111Z" fill="#DEABBF"/>
<path fill-rule="evenodd" clip-rule="evenodd" d="M99.2473 90.124C99.1495 90.4743 99.0497 90.8312 98.9481 91.1946C80.2847 78.1506 80.2757 62.3431 85.8263 44.625C81.6427 62.0681 83.3471 76.7796 99.2473 90.124Z" fill="#3B1427" fill-opacity="0.6"/>
<path d="M80.7621 211.524V196.124H83.7321V202.218L89.3201 196.124H92.9721L87.2961 202.218L93.1481 211.524H89.5181L85.1841 204.528L83.7321 206.068V211.524H80.7621ZM98.9683 211.788C98.0736 211.788 97.3036 211.598 96.6583 211.216C96.0276 210.835 95.5436 210.27 95.2063 209.522C94.8836 208.774 94.7223 207.858 94.7223 206.772V200.568H97.6703V206.486C97.6703 207.396 97.8536 208.092 98.2203 208.576C98.587 209.046 99.1663 209.28 99.9583 209.28C100.457 209.28 100.904 209.163 101.3 208.928C101.696 208.694 102.004 208.356 102.224 207.916C102.444 207.462 102.554 206.912 102.554 206.266V200.568H105.524V211.524H102.906L102.686 209.698C102.349 210.329 101.865 210.835 101.234 211.216C100.604 211.598 99.8483 211.788 98.9683 211.788ZM108.39 211.524V200.568H111.03L111.316 202.614C111.58 202.145 111.903 201.742 112.284 201.404C112.68 201.052 113.135 200.781 113.648 200.59C114.161 200.4 114.719 200.304 115.32 200.304V203.45H114.484C114.029 203.45 113.604 203.502 113.208 203.604C112.827 203.707 112.497 203.876 112.218 204.11C111.939 204.345 111.727 204.668 111.58 205.078C111.433 205.474 111.36 205.973 111.36 206.574V211.524H108.39ZM121.795 211.788C120.827 211.788 119.969 211.627 119.221 211.304C118.473 210.982 117.879 210.542 117.439 209.984C116.999 209.412 116.742 208.767 116.669 208.048H119.639C119.698 208.312 119.822 208.562 120.013 208.796C120.204 209.016 120.446 209.192 120.739 209.324C121.032 209.456 121.37 209.522 121.751 209.522C122.162 209.522 122.492 209.471 122.741 209.368C122.99 209.251 123.174 209.104 123.291 208.928C123.408 208.738 123.467 208.547 123.467 208.356C123.467 208.048 123.379 207.821 123.203 207.674C123.027 207.513 122.763 207.381 122.411 207.278C122.074 207.176 121.67 207.066 121.201 206.948C120.717 206.846 120.226 206.721 119.727 206.574C119.228 206.428 118.774 206.237 118.363 206.002C117.967 205.768 117.644 205.474 117.395 205.122C117.146 204.756 117.021 204.308 117.021 203.78C117.021 203.135 117.197 202.548 117.549 202.02C117.916 201.492 118.429 201.074 119.089 200.766C119.764 200.458 120.57 200.304 121.509 200.304C122.814 200.304 123.856 200.612 124.633 201.228C125.425 201.83 125.887 202.658 126.019 203.714H123.225C123.152 203.362 122.961 203.091 122.653 202.9C122.36 202.695 121.971 202.592 121.487 202.592C120.974 202.592 120.578 202.688 120.299 202.878C120.035 203.069 119.903 203.311 119.903 203.604C119.903 203.795 119.998 203.971 120.189 204.132C120.38 204.279 120.644 204.411 120.981 204.528C121.318 204.631 121.722 204.741 122.191 204.858C122.983 205.034 123.694 205.232 124.325 205.452C124.97 205.672 125.484 205.988 125.865 206.398C126.246 206.809 126.437 207.403 126.437 208.18C126.452 208.87 126.268 209.493 125.887 210.05C125.506 210.593 124.97 211.018 124.281 211.326C123.592 211.634 122.763 211.788 121.795 211.788ZM134.254 211.788C133.139 211.788 132.149 211.554 131.284 211.084C130.433 210.6 129.766 209.94 129.282 209.104C128.798 208.254 128.556 207.271 128.556 206.156C128.556 205.012 128.79 204.008 129.26 203.142C129.744 202.262 130.411 201.573 131.262 201.074C132.127 200.561 133.132 200.304 134.276 200.304C135.361 200.304 136.314 200.546 137.136 201.03C137.972 201.5 138.617 202.145 139.072 202.966C139.541 203.773 139.776 204.69 139.776 205.716C139.776 205.863 139.768 206.032 139.754 206.222C139.754 206.398 139.746 206.582 139.732 206.772H130.69V204.968H136.762C136.718 204.279 136.461 203.736 135.992 203.34C135.537 202.93 134.965 202.724 134.276 202.724C133.762 202.724 133.293 202.842 132.868 203.076C132.442 203.296 132.105 203.634 131.856 204.088C131.606 204.543 131.482 205.122 131.482 205.826V206.464C131.482 207.051 131.599 207.564 131.834 208.004C132.068 208.43 132.391 208.767 132.802 209.016C133.227 209.251 133.704 209.368 134.232 209.368C134.774 209.368 135.229 209.251 135.596 209.016C135.962 208.767 136.241 208.452 136.432 208.07H139.446C139.24 208.774 138.896 209.405 138.412 209.962C137.928 210.52 137.334 210.967 136.63 211.304C135.926 211.627 135.134 211.788 134.254 211.788Z" fill="#3B1427"/>
</svg>
