<svg width="220" height="220" viewBox="0 0 220 220" fill="none" xmlns="http://www.w3.org/2000/svg">
<path fill-rule="evenodd" clip-rule="evenodd" d="M136.886 43.798C133.596 39.9454 131.369 35.2241 131.741 29.9337C132.813 14.6907 154.086 18.0439 158.224 25.7373C162.363 33.4307 161.871 52.9456 156.523 54.3207C154.39 54.869 149.846 53.5258 145.222 50.7456L148.125 71.2277H130.986L136.886 43.798Z" fill="#DEABBF"/>
<path fill-rule="evenodd" clip-rule="evenodd" d="M151.456 17.3582C149.114 16.6459 145.714 16.4043 144.284 16.5677C145.098 14.6236 145.42 12.4577 145.157 10.3487C144.902 8.2995 143.984 6.55463 143.134 4.72623C142.743 3.88345 142.3 3.04527 141.638 2.40064C140.965 1.7439 140.112 1.3104 139.218 1.10358C138.303 0.891879 137.346 0.909506 136.43 1.10163C136.024 1.1866 135.661 1.37149 135.263 1.47427C134.856 1.57957 134.658 1.32538 134.363 1.06993C133.651 0.454414 132.606 0.15056 131.705 0.0418109C130.695 -0.0801441 129.646 0.0719552 128.681 0.403427C127.743 0.726114 126.842 1.25011 126.163 2.01347C125.861 2.35327 125.587 2.74004 125.409 3.16705C125.335 3.34229 125.323 3.4461 125.148 3.51029C124.986 3.56972 124.796 3.57144 124.629 3.628C123.011 4.17462 121.628 5.42161 120.874 7.0227C120.435 7.95677 120.227 9.60134 120.284 11.4446C120.341 13.2879 122.009 18.0976 123.57 19.8519C124.963 21.4178 127.011 22.4512 128.987 22.9035C127.675 24.3989 126.802 26.2676 126.156 28.1682C125.455 30.2326 125.021 32.3777 124.861 34.5633C124.708 36.6399 124.694 38.8358 125.182 40.8681C125.639 42.7686 126.615 44.3276 128.245 45.3167C128.992 45.7698 129.795 46.1101 130.603 46.4212C131.4 46.7278 132.198 47.0258 133.032 47.1979C134.611 47.5233 136.43 47.4674 137.646 46.2141C138.084 45.7623 138.566 45.1946 138.886 44.6426C139.001 44.4441 139.07 44.3143 138.931 44.1203C138.763 43.8879 138.493 43.7099 138.278 43.5281C137.052 42.4916 136.293 41.108 136.102 39.4637C135.908 37.7953 136.357 35.6418 137.983 34.9137C139.991 34.0149 142.201 35.0466 143.986 36.0083C144.744 33.3388 146.301 30.9352 148.742 29.7108C151.443 28.3561 154.541 28.1976 157.317 27.0353C158.04 26.7324 158.777 26.3886 159.309 25.7714C159.531 25.5135 159.793 25.179 159.881 24.8378C159.998 24.3897 159.708 24.0141 159.485 23.6647C158.298 21.8125 153.798 18.0704 151.456 17.3582Z" fill="#B9517A"/>
<path fill-rule="evenodd" clip-rule="evenodd" d="M87.3311 98.3538C96.2513 98.2598 108.146 96.3806 120.839 88.3446L125.823 99.432C117.068 108.098 104.758 115.219 93.9947 114.917C85.5123 114.679 81.1771 104.445 87.3311 98.3538Z" fill="#B9517A"/>
<path fill-rule="evenodd" clip-rule="evenodd" d="M87.3311 98.3538C96.2513 98.2598 108.146 96.3806 120.839 88.3446L125.823 99.432C117.068 108.098 104.758 115.219 93.9947 114.917C85.5123 114.679 81.1771 104.445 87.3311 98.3538Z" fill="#3B1427" fill-opacity="0.6"/>
<path fill-rule="evenodd" clip-rule="evenodd" d="M129.018 60.3682C129.185 59.8268 129.354 59.2838 129.526 58.7393L130.16 59.0368C130.259 58.935 130.358 58.8358 130.459 58.7393L150.447 61.822C150.447 73.0338 159.39 83.524 165.048 92.5496C173.843 106.58 189.493 122.132 179.459 142.976C170.418 161.757 146.867 164.807 108.808 152.126C108.808 142.01 117.144 131.84 117.409 119.54C117.662 107.83 119.857 72.3527 129.018 60.3682Z" fill="#B9517A"/>
<path fill-rule="evenodd" clip-rule="evenodd" d="M153.846 137.651C155.182 130.77 156.05 126.176 156.447 123.869C167.096 135.872 173.248 141.943 174.903 142.082C178.015 142.344 180.315 139.591 180.97 140.365C182.052 143.57 178.995 151.593 173.152 152.76C170.361 153.317 166.043 147.577 164.264 145.544C163.564 144.744 160.092 142.113 153.846 137.651ZM172.24 100.965C175 100.965 176.483 102.103 178.115 104.4C179.747 106.696 181.292 117.527 178.671 117.527C176.051 117.527 165.072 113.34 165.072 110.526C165.072 107.711 172.563 106.519 172.563 104.4C172.563 102.281 169.479 100.965 172.24 100.965Z" fill="#DEABBF"/>
<path fill-rule="evenodd" clip-rule="evenodd" d="M148.275 148.121C148.111 148.707 147.944 149.303 147.773 149.911C116.499 128.108 116.484 101.687 125.785 72.0723C118.774 101.227 121.63 125.817 148.275 148.121Z" fill="#3B1427" fill-opacity="0.6"/>
<path fill-rule="evenodd" clip-rule="evenodd" d="M65.4706 38.9429C61.8978 34.76 59.4798 29.6338 59.8838 23.8897C61.048 7.33932 84.1457 10.9802 88.6386 19.3334C93.1316 27.6866 92.5977 48.8751 86.791 50.3681C84.4752 50.9635 79.542 49.505 74.5212 46.4865L77.6727 68.7251H59.0645L65.4706 38.9429Z" fill="#DEABBF"/>
<path fill-rule="evenodd" clip-rule="evenodd" d="M80.4315 20.5455C77.9063 21.9544 76.1092 24.5945 73.9459 28.0574C73.4191 27.8509 72.8453 27.7374 72.2449 27.7374C69.6756 27.7374 67.5928 29.8149 67.5928 32.3776C67.5928 33.6786 68.1296 34.8545 68.9943 35.697C67.9179 37.2125 66.7115 38.7957 65.3291 40.4292C60.1705 37.3422 55.2889 27.2561 60.2144 18.5703C64.4523 1.17211 89.5105 13.0597 94.1305 10.1255C95.1404 16.439 91.8831 21.5297 80.4315 20.5455Z" fill="#3B1427"/>
<path fill-rule="evenodd" clip-rule="evenodd" d="M130.926 106.095L119.739 112.224L120.376 123.422C125.206 119.944 129.699 117.628 133.855 116.472C141.803 114.262 145.018 112.574 148.902 107.638C150.98 104.997 152.743 99.6879 150.765 97.9589C150.007 97.2957 147.18 98.8626 144.295 100.461C142.097 101.68 139.865 102.917 138.49 103.199C136.639 103.579 136.856 101.186 137.029 99.274C137.154 97.9019 137.255 96.7773 136.555 97.1024C134.372 97.1398 132.496 100.137 130.926 106.095Z" fill="#DEABBF"/>
<path fill-rule="evenodd" clip-rule="evenodd" d="M93.4271 110.43C102.897 112.786 101.585 112.487 123.876 104.575C129.405 115.985 126.495 121.306 126.077 126.165C106.955 136.128 104.433 136.776 96.7288 144.461C95.7093 149.995 96.4173 147.876 95.1089 152.589C88.3739 166.873 38.3984 162.757 37.2979 154.341C37.2985 113.439 39.499 117.383 43.4418 101.206C46.0135 87.4855 56.3818 53.182 60.3849 50.5737C60.6206 50.4201 60.9147 50.4648 61.1817 50.5536L64.0785 51.5167L79.0015 53.1096C80.1854 53.2359 80.9954 54.3571 80.8525 55.5392C79.0404 70.5322 89.0103 95.511 93.4271 110.43Z" fill="#B9517A"/>
<path d="M23.1686 211.788C22.0686 211.788 21.0786 211.598 20.1986 211.216C19.3186 210.835 18.6292 210.278 18.1306 209.544C17.6319 208.811 17.3679 207.924 17.3386 206.882H20.4846C20.4992 207.337 20.6166 207.748 20.8366 208.114C21.0566 208.481 21.3646 208.774 21.7606 208.994C22.1566 209.2 22.6259 209.302 23.1686 209.302C23.6379 209.302 24.0412 209.229 24.3786 209.082C24.7306 208.921 25.0019 208.701 25.1926 208.422C25.3832 208.144 25.4786 207.814 25.4786 207.432C25.4786 206.978 25.3686 206.604 25.1486 206.31C24.9286 206.017 24.6279 205.768 24.2466 205.562C23.8652 205.357 23.4252 205.174 22.9266 205.012C22.4426 204.836 21.9292 204.66 21.3866 204.484C20.1839 204.074 19.2672 203.546 18.6366 202.9C18.0059 202.24 17.6906 201.368 17.6906 200.282C17.6906 199.358 17.9106 198.566 18.3506 197.906C18.8052 197.246 19.4212 196.74 20.1986 196.388C20.9906 196.036 21.8999 195.86 22.9266 195.86C23.9679 195.86 24.8772 196.044 25.6546 196.41C26.4466 196.762 27.0699 197.276 27.5246 197.95C27.9792 198.625 28.2212 199.417 28.2506 200.326H25.0606C25.0606 199.989 24.9652 199.674 24.7746 199.38C24.5986 199.072 24.3492 198.83 24.0266 198.654C23.7039 198.464 23.3226 198.368 22.8826 198.368C22.4866 198.354 22.1346 198.412 21.8266 198.544C21.5186 198.676 21.2692 198.874 21.0786 199.138C20.9026 199.388 20.8146 199.703 20.8146 200.084C20.8146 200.451 20.9026 200.759 21.0786 201.008C21.2546 201.258 21.5039 201.478 21.8266 201.668C22.1639 201.844 22.5452 202.013 22.9706 202.174C23.4106 202.321 23.8872 202.475 24.4006 202.636C25.1779 202.9 25.8819 203.216 26.5126 203.582C27.1579 203.934 27.6712 204.396 28.0526 204.968C28.4339 205.54 28.6246 206.296 28.6246 207.234C28.6246 208.041 28.4119 208.789 27.9866 209.478C27.5759 210.168 26.9672 210.725 26.1606 211.15C25.3539 211.576 24.3566 211.788 23.1686 211.788ZM36.4255 211.788C35.3108 211.788 34.3208 211.546 33.4555 211.062C32.5901 210.564 31.9081 209.889 31.4095 209.038C30.9255 208.173 30.6835 207.183 30.6835 206.068C30.6835 204.939 30.9255 203.949 31.4095 203.098C31.9081 202.233 32.5901 201.551 33.4555 201.052C34.3208 200.554 35.3108 200.304 36.4255 200.304C37.8335 200.304 39.0215 200.678 39.9895 201.426C40.9575 202.16 41.5735 203.172 41.8375 204.462H38.6915C38.5595 203.964 38.2881 203.575 37.8775 203.296C37.4668 203.003 36.9755 202.856 36.4035 202.856C35.8901 202.856 35.4281 202.981 35.0175 203.23C34.6215 203.48 34.3061 203.846 34.0715 204.33C33.8368 204.814 33.7195 205.386 33.7195 206.046C33.7195 206.545 33.7855 206.992 33.9175 207.388C34.0641 207.784 34.2548 208.122 34.4895 208.4C34.7388 208.679 35.0248 208.892 35.3475 209.038C35.6701 209.185 36.0221 209.258 36.4035 209.258C36.7848 209.258 37.1295 209.2 37.4375 209.082C37.7455 208.95 38.0095 208.767 38.2295 208.532C38.4495 208.283 38.6035 207.982 38.6915 207.63H41.8375C41.5735 208.892 40.9575 209.904 39.9895 210.666C39.0215 211.414 37.8335 211.788 36.4255 211.788ZM44.3558 211.524V195.684H47.3258V202.218C47.6924 201.632 48.1764 201.17 48.7778 200.832C49.3938 200.48 50.1124 200.304 50.9338 200.304C51.8431 200.304 52.6131 200.502 53.2438 200.898C53.8744 201.28 54.3511 201.844 54.6738 202.592C55.0111 203.34 55.1798 204.264 55.1798 205.364V211.524H52.2318V205.628C52.2318 204.734 52.0484 204.044 51.6818 203.56C51.3151 203.062 50.7358 202.812 49.9438 202.812C49.4598 202.812 49.0124 202.937 48.6018 203.186C48.2058 203.421 47.8904 203.766 47.6558 204.22C47.4358 204.66 47.3258 205.203 47.3258 205.848V211.524H44.3558ZM60.0035 211.524L56.7915 200.568H59.7175L61.9175 209.72L61.2135 209.698L63.7215 200.568H67.0215L69.5295 209.698L68.8255 209.72L71.0255 200.568H73.9515L70.7395 211.524H67.6595L64.9755 202.108H65.7675L63.0835 211.524H60.0035ZM78.9264 211.788C78.0024 211.788 77.2324 211.642 76.6164 211.348C76.015 211.055 75.5677 210.659 75.2744 210.16C74.981 209.647 74.8344 209.09 74.8344 208.488C74.8344 207.814 75.0104 207.227 75.3624 206.728C75.7144 206.215 76.235 205.812 76.9244 205.518C77.6284 205.225 78.5157 205.078 79.5864 205.078H82.3364C82.3364 204.55 82.2557 204.118 82.0944 203.78C81.9477 203.428 81.7204 203.164 81.4124 202.988C81.1044 202.812 80.701 202.724 80.2024 202.724C79.645 202.724 79.161 202.849 78.7504 203.098C78.3397 203.348 78.0904 203.729 78.0024 204.242H75.1204C75.2084 203.436 75.4724 202.746 75.9124 202.174C76.367 201.588 76.9684 201.133 77.7164 200.81C78.4644 200.473 79.293 200.304 80.2024 200.304C81.2584 200.304 82.1604 200.48 82.9084 200.832C83.671 201.184 84.2577 201.69 84.6684 202.35C85.0937 203.01 85.3064 203.824 85.3064 204.792V211.524H82.7984L82.4684 209.83C82.307 210.124 82.1164 210.388 81.8964 210.622C81.6764 210.857 81.4197 211.062 81.1264 211.238C80.833 211.414 80.503 211.546 80.1364 211.634C79.7697 211.737 79.3664 211.788 78.9264 211.788ZM79.6304 209.5C80.0264 209.5 80.371 209.434 80.6644 209.302C80.9724 209.156 81.229 208.965 81.4344 208.73C81.6544 208.496 81.823 208.224 81.9404 207.916C82.0724 207.594 82.1604 207.256 82.2044 206.904H79.9164C79.4764 206.904 79.1097 206.963 78.8164 207.08C78.523 207.183 78.3104 207.337 78.1784 207.542C78.0464 207.748 77.9804 207.975 77.9804 208.224C77.9804 208.503 78.0464 208.738 78.1784 208.928C78.3104 209.119 78.501 209.266 78.7504 209.368C78.9997 209.456 79.293 209.5 79.6304 209.5ZM87.9905 211.524V200.568H90.6085L90.8285 202.394C91.1659 201.778 91.6499 201.28 92.2805 200.898C92.9112 200.502 93.6665 200.304 94.5465 200.304C95.4559 200.304 96.2259 200.502 96.8565 200.898C97.4872 201.28 97.9712 201.844 98.3085 202.592C98.6459 203.34 98.8145 204.257 98.8145 205.342V211.524H95.8445V205.628C95.8445 204.719 95.6612 204.022 95.2945 203.538C94.9279 203.054 94.3485 202.812 93.5565 202.812C93.0579 202.812 92.6105 202.937 92.2145 203.186C91.8185 203.421 91.5105 203.766 91.2905 204.22C91.0705 204.66 90.9605 205.203 90.9605 205.848V211.524H87.9905ZM106.278 216.628C105.222 216.628 104.298 216.496 103.506 216.232C102.729 215.983 102.128 215.594 101.702 215.066C101.277 214.553 101.064 213.915 101.064 213.152C101.064 212.639 101.196 212.155 101.46 211.7C101.724 211.26 102.106 210.857 102.604 210.49C103.118 210.109 103.748 209.786 104.496 209.522L105.596 210.996C104.936 211.216 104.46 211.488 104.166 211.81C103.873 212.133 103.726 212.478 103.726 212.844C103.726 213.182 103.836 213.468 104.056 213.702C104.291 213.937 104.599 214.106 104.98 214.208C105.362 214.326 105.787 214.384 106.256 214.384C106.711 214.384 107.107 214.326 107.444 214.208C107.796 214.091 108.068 213.915 108.258 213.68C108.464 213.46 108.566 213.204 108.566 212.91C108.566 212.514 108.427 212.192 108.148 211.942C107.87 211.693 107.32 211.539 106.498 211.48C105.75 211.422 105.09 211.341 104.518 211.238C103.946 211.121 103.44 210.989 103 210.842C102.575 210.681 102.208 210.512 101.9 210.336C101.592 210.146 101.35 209.955 101.174 209.764V209.258L103.528 206.706L105.596 207.388L102.868 210.138L103.726 208.686C103.873 208.774 104.027 208.862 104.188 208.95C104.35 209.024 104.54 209.097 104.76 209.17C104.995 209.229 105.296 209.288 105.662 209.346C106.044 209.39 106.52 209.434 107.092 209.478C108.06 209.566 108.852 209.75 109.468 210.028C110.084 210.307 110.539 210.681 110.832 211.15C111.126 211.62 111.272 212.184 111.272 212.844C111.272 213.49 111.089 214.098 110.722 214.67C110.37 215.257 109.82 215.726 109.072 216.078C108.339 216.445 107.408 216.628 106.278 216.628ZM106.278 208.29C105.354 208.29 104.555 208.114 103.88 207.762C103.22 207.396 102.707 206.912 102.34 206.31C101.988 205.709 101.812 205.042 101.812 204.308C101.812 203.56 101.988 202.893 102.34 202.306C102.707 201.705 103.22 201.221 103.88 200.854C104.555 200.488 105.354 200.304 106.278 200.304C107.202 200.304 107.994 200.488 108.654 200.854C109.329 201.221 109.842 201.705 110.194 202.306C110.561 202.893 110.744 203.56 110.744 204.308C110.744 205.042 110.561 205.709 110.194 206.31C109.842 206.912 109.329 207.396 108.654 207.762C107.994 208.114 107.202 208.29 106.278 208.29ZM106.278 206.024C106.836 206.024 107.29 205.878 107.642 205.584C107.994 205.291 108.17 204.866 108.17 204.308C108.17 203.766 107.994 203.348 107.642 203.054C107.29 202.761 106.836 202.614 106.278 202.614C105.721 202.614 105.259 202.761 104.892 203.054C104.54 203.348 104.364 203.766 104.364 204.308C104.364 204.866 104.54 205.291 104.892 205.584C105.259 205.878 105.721 206.024 106.278 206.024ZM108.082 202.68L107.598 200.568H112.174V202.328L108.082 202.68ZM119.526 211.788C118.411 211.788 117.421 211.554 116.556 211.084C115.705 210.6 115.038 209.94 114.554 209.104C114.07 208.254 113.828 207.271 113.828 206.156C113.828 205.012 114.063 204.008 114.532 203.142C115.016 202.262 115.683 201.573 116.534 201.074C117.399 200.561 118.404 200.304 119.548 200.304C120.633 200.304 121.587 200.546 122.408 201.03C123.244 201.5 123.889 202.145 124.344 202.966C124.813 203.773 125.048 204.69 125.048 205.716C125.048 205.863 125.041 206.032 125.026 206.222C125.026 206.398 125.019 206.582 125.004 206.772H115.962V204.968H122.034C121.99 204.279 121.733 203.736 121.264 203.34C120.809 202.93 120.237 202.724 119.548 202.724C119.035 202.724 118.565 202.842 118.14 203.076C117.715 203.296 117.377 203.634 117.128 204.088C116.879 204.543 116.754 205.122 116.754 205.826V206.464C116.754 207.051 116.871 207.564 117.106 208.004C117.341 208.43 117.663 208.767 118.074 209.016C118.499 209.251 118.976 209.368 119.504 209.368C120.047 209.368 120.501 209.251 120.868 209.016C121.235 208.767 121.513 208.452 121.704 208.07H124.718C124.513 208.774 124.168 209.405 123.684 209.962C123.2 210.52 122.606 210.967 121.902 211.304C121.198 211.627 120.406 211.788 119.526 211.788ZM127.414 211.524V200.568H130.054L130.34 202.614C130.604 202.145 130.927 201.742 131.308 201.404C131.704 201.052 132.159 200.781 132.672 200.59C133.186 200.4 133.743 200.304 134.344 200.304V203.45H133.508C133.054 203.45 132.628 203.502 132.232 203.604C131.851 203.707 131.521 203.876 131.242 204.11C130.964 204.345 130.751 204.668 130.604 205.078C130.458 205.474 130.384 205.973 130.384 206.574V211.524H127.414ZM140.819 211.788C139.851 211.788 138.993 211.627 138.245 211.304C137.497 210.982 136.903 210.542 136.463 209.984C136.023 209.412 135.767 208.767 135.693 208.048H138.663C138.722 208.312 138.847 208.562 139.037 208.796C139.228 209.016 139.47 209.192 139.763 209.324C140.057 209.456 140.394 209.522 140.775 209.522C141.186 209.522 141.516 209.471 141.765 209.368C142.015 209.251 142.198 209.104 142.315 208.928C142.433 208.738 142.491 208.547 142.491 208.356C142.491 208.048 142.403 207.821 142.227 207.674C142.051 207.513 141.787 207.381 141.435 207.278C141.098 207.176 140.695 207.066 140.225 206.948C139.741 206.846 139.25 206.721 138.751 206.574C138.253 206.428 137.798 206.237 137.387 206.002C136.991 205.768 136.669 205.474 136.419 205.122C136.17 204.756 136.045 204.308 136.045 203.78C136.045 203.135 136.221 202.548 136.573 202.02C136.94 201.492 137.453 201.074 138.113 200.766C138.788 200.458 139.595 200.304 140.533 200.304C141.839 200.304 142.88 200.612 143.657 201.228C144.449 201.83 144.911 202.658 145.043 203.714H142.249C142.176 203.362 141.985 203.091 141.677 202.9C141.384 202.695 140.995 202.592 140.511 202.592C139.998 202.592 139.602 202.688 139.323 202.878C139.059 203.069 138.927 203.311 138.927 203.604C138.927 203.795 139.023 203.971 139.213 204.132C139.404 204.279 139.668 204.411 140.005 204.528C140.343 204.631 140.746 204.741 141.215 204.858C142.007 205.034 142.719 205.232 143.349 205.452C143.995 205.672 144.508 205.988 144.889 206.398C145.271 206.809 145.461 207.403 145.461 208.18C145.476 208.87 145.293 209.493 144.911 210.05C144.53 210.593 143.995 211.018 143.305 211.326C142.616 211.634 141.787 211.788 140.819 211.788ZM153.322 211.788C152.207 211.788 151.217 211.546 150.352 211.062C149.487 210.564 148.805 209.889 148.306 209.038C147.822 208.173 147.58 207.183 147.58 206.068C147.58 204.939 147.822 203.949 148.306 203.098C148.805 202.233 149.487 201.551 150.352 201.052C151.217 200.554 152.207 200.304 153.322 200.304C154.73 200.304 155.918 200.678 156.886 201.426C157.854 202.16 158.47 203.172 158.734 204.462H155.588C155.456 203.964 155.185 203.575 154.774 203.296C154.363 203.003 153.872 202.856 153.3 202.856C152.787 202.856 152.325 202.981 151.914 203.23C151.518 203.48 151.203 203.846 150.968 204.33C150.733 204.814 150.616 205.386 150.616 206.046C150.616 206.545 150.682 206.992 150.814 207.388C150.961 207.784 151.151 208.122 151.386 208.4C151.635 208.679 151.921 208.892 152.244 209.038C152.567 209.185 152.919 209.258 153.3 209.258C153.681 209.258 154.026 209.2 154.334 209.082C154.642 208.95 154.906 208.767 155.126 208.532C155.346 208.283 155.5 207.982 155.588 207.63H158.734C158.47 208.892 157.854 209.904 156.886 210.666C155.918 211.414 154.73 211.788 153.322 211.788ZM161.252 211.524V195.684H164.222V202.218C164.589 201.632 165.073 201.17 165.674 200.832C166.29 200.48 167.009 200.304 167.83 200.304C168.74 200.304 169.51 200.502 170.14 200.898C170.771 201.28 171.248 201.844 171.57 202.592C171.908 203.34 172.076 204.264 172.076 205.364V211.524H169.128V205.628C169.128 204.734 168.945 204.044 168.578 203.56C168.212 203.062 167.632 202.812 166.84 202.812C166.356 202.812 165.909 202.937 165.498 203.186C165.102 203.421 164.787 203.766 164.552 204.22C164.332 204.66 164.222 205.203 164.222 205.848V211.524H161.252ZM178.528 211.788C177.604 211.788 176.834 211.642 176.218 211.348C175.617 211.055 175.169 210.659 174.876 210.16C174.583 209.647 174.436 209.09 174.436 208.488C174.436 207.814 174.612 207.227 174.964 206.728C175.316 206.215 175.837 205.812 176.526 205.518C177.23 205.225 178.117 205.078 179.188 205.078H181.938C181.938 204.55 181.857 204.118 181.696 203.78C181.549 203.428 181.322 203.164 181.014 202.988C180.706 202.812 180.303 202.724 179.804 202.724C179.247 202.724 178.763 202.849 178.352 203.098C177.941 203.348 177.692 203.729 177.604 204.242H174.722C174.81 203.436 175.074 202.746 175.514 202.174C175.969 201.588 176.57 201.133 177.318 200.81C178.066 200.473 178.895 200.304 179.804 200.304C180.86 200.304 181.762 200.48 182.51 200.832C183.273 201.184 183.859 201.69 184.27 202.35C184.695 203.01 184.908 203.824 184.908 204.792V211.524H182.4L182.07 209.83C181.909 210.124 181.718 210.388 181.498 210.622C181.278 210.857 181.021 211.062 180.728 211.238C180.435 211.414 180.105 211.546 179.738 211.634C179.371 211.737 178.968 211.788 178.528 211.788ZM179.232 209.5C179.628 209.5 179.973 209.434 180.266 209.302C180.574 209.156 180.831 208.965 181.036 208.73C181.256 208.496 181.425 208.224 181.542 207.916C181.674 207.594 181.762 207.256 181.806 206.904H179.518C179.078 206.904 178.711 206.963 178.418 207.08C178.125 207.183 177.912 207.337 177.78 207.542C177.648 207.748 177.582 207.975 177.582 208.224C177.582 208.503 177.648 208.738 177.78 208.928C177.912 209.119 178.103 209.266 178.352 209.368C178.601 209.456 178.895 209.5 179.232 209.5ZM188.076 211.524V199.446C188.076 198.522 188.23 197.789 188.538 197.246C188.861 196.704 189.308 196.308 189.88 196.058C190.452 195.809 191.127 195.684 191.904 195.684H193.158V198.214H192.366C191.897 198.214 191.559 198.31 191.354 198.5C191.149 198.676 191.046 198.992 191.046 199.446V211.524H188.076ZM186.58 203.054V200.568H193.356V203.054H186.58ZM200.577 211.524C199.815 211.524 199.14 211.407 198.553 211.172C197.967 210.923 197.512 210.52 197.189 209.962C196.867 209.39 196.705 208.613 196.705 207.63V203.054H194.835V200.568H196.705L197.035 197.598H199.675V200.568H202.601V203.054H199.675V207.674C199.675 208.173 199.785 208.518 200.005 208.708C200.225 208.899 200.599 208.994 201.127 208.994H202.535V211.524H200.577Z" fill="#3B1427"/>
</svg>
