
<svg width="188" height="137" viewBox="0 0 188 137" fill="none" xmlns="http://www.w3.org/2000/svg">
<path d="M59.4581 133.219V126.629C59.4581 123.134 58.0695 119.782 55.598 117.31C53.1264 114.839 49.7742 113.45 46.2788 113.45H19.9204C16.4251 113.45 13.0729 114.839 10.6013 117.31C8.12973 119.782 6.74121 123.134 6.74121 126.629V133.219" stroke="#FFCC84" stroke-width="6.58961" stroke-linecap="round" stroke-linejoin="round"/>
<path d="M33.0991 100.271C40.3778 100.271 46.2783 94.37 46.2783 87.0913C46.2783 79.8126 40.3778 73.9121 33.0991 73.9121C25.8205 73.9121 19.9199 79.8126 19.9199 87.0913C19.9199 94.37 25.8205 100.271 33.0991 100.271Z" stroke="#FFCC84" stroke-width="6.58961" stroke-linecap="round" stroke-linejoin="round"/>
<path d="M79.2272 133.219V126.63C79.225 123.71 78.2531 120.873 76.464 118.565C74.675 116.257 72.1701 114.609 69.3428 113.879" stroke="#FFCC84" stroke-width="6.58961" stroke-linecap="round" stroke-linejoin="round"/>
<path d="M56.165 74.3408C58.9999 75.0667 61.5126 76.7154 63.307 79.0271C65.1013 81.3387 66.0753 84.1818 66.0753 87.1082C66.0753 90.0345 65.1013 92.8776 63.307 95.1893C61.5126 97.501 58.9999 99.1497 56.165 99.8755" stroke="#FFCC84" stroke-width="6.58961" stroke-linecap="round" stroke-linejoin="round"/>
<path d="M181.259 132.497V125.908C181.259 122.412 179.87 119.06 177.399 116.589C174.927 114.117 171.575 112.729 168.08 112.729H141.721C138.226 112.729 134.874 114.117 132.402 116.589C129.931 119.06 128.542 122.412 128.542 125.908V132.497" stroke="#FFCC84" stroke-width="6.58961" stroke-linecap="round" stroke-linejoin="round"/>
<path d="M154.899 99.5489C162.178 99.5489 168.078 93.6483 168.078 86.3696C168.078 79.091 162.178 73.1904 154.899 73.1904C147.62 73.1904 141.72 79.091 141.72 86.3696C141.72 93.6483 147.62 99.5489 154.899 99.5489Z" stroke="#FFCC84" stroke-width="6.58961" stroke-linecap="round" stroke-linejoin="round"/>
<path d="M145.721 32.0059C145.733 36.3546 144.717 40.6445 142.756 44.5262C140.431 49.1776 136.858 53.0899 132.435 55.825C128.012 58.56 122.916 60.0097 117.716 60.0117C113.367 60.0231 109.077 59.0071 105.195 57.0464L86.415 63.3065L92.6752 44.5262C90.7145 40.6445 89.6985 36.3546 89.7098 32.0059C89.7119 26.8059 91.1616 21.7092 93.8966 17.2866C96.6316 12.8639 100.544 9.29012 105.195 6.96542C109.077 5.00478 113.367 3.98876 117.716 4.00009H119.363C126.231 4.37897 132.717 7.27764 137.58 12.1411C142.444 17.0045 145.343 23.491 145.721 30.3585V32.0059Z" stroke="#FFCC84" stroke-width="6.58961" stroke-linecap="round" stroke-linejoin="round"/>
</svg>
