<svg width="220" height="220" viewBox="0 0 220 220" fill="none" xmlns="http://www.w3.org/2000/svg">
<path fill-rule="evenodd" clip-rule="evenodd" d="M178.632 40.768C180.815 37.5572 182.177 33.7283 181.616 29.6062C180.002 17.7291 164.711 21.6037 162.122 27.8728C159.533 34.1418 160.959 49.3991 164.925 50.1624C166.506 50.4669 169.738 49.1481 172.949 46.6991L171.96 62.9131L184.426 61.9077L178.632 40.768Z" fill="#DEABBF"/>
<path fill-rule="evenodd" clip-rule="evenodd" d="M166.587 20.9124C168.251 20.217 170.711 19.8284 171.76 19.8725C171.062 18.3974 170.709 16.7197 170.785 15.0523C170.858 13.4321 171.431 12.0115 171.948 10.5295C172.187 9.8464 172.463 9.16383 172.909 8.6201C173.363 8.06615 173.96 7.67656 174.599 7.4621C175.253 7.2426 175.95 7.20027 176.627 7.297C176.927 7.33978 177.201 7.46326 177.496 7.52044C177.798 7.57904 177.928 7.36835 178.129 7.15091C178.613 6.62699 179.356 6.32773 180.005 6.18969C180.734 6.03485 181.505 6.09246 182.225 6.29554C182.925 6.49325 183.61 6.85081 184.145 7.40896C184.383 7.6574 184.604 7.94427 184.757 8.2683C184.82 8.40128 184.834 8.48188 184.965 8.52188C185.087 8.55892 185.225 8.54914 185.349 8.58363C186.556 8.91687 187.631 9.81249 188.267 11.0224C188.637 11.7283 188.879 13.0043 188.938 14.4515C188.998 15.8987 188.047 19.7641 187.008 21.2298C186.081 22.5381 184.648 23.4677 183.235 23.9379C184.271 25.0324 185.008 26.4449 185.582 27.8957C186.205 29.4717 186.639 31.1265 186.875 32.829C187.099 34.4467 187.23 36.166 186.986 37.7865C186.758 39.3019 186.133 40.5805 185.002 41.4508C184.483 41.8495 183.918 42.1633 183.347 42.4544C182.784 42.7412 182.22 43.0215 181.622 43.2052C180.492 43.5527 179.166 43.6157 178.213 42.7053C177.869 42.3771 177.487 41.9606 177.224 41.547C177.13 41.3983 177.072 41.3007 177.163 41.1405C177.272 40.9487 177.46 40.7933 177.606 40.6383C178.441 39.7546 178.917 38.6262 178.966 37.327C179.016 36.0088 178.571 34.3483 177.348 33.8734C175.839 33.2871 174.287 34.2249 173.042 35.0829C172.344 33.0364 171.08 31.245 169.237 30.429C167.199 29.5264 164.936 29.584 162.853 28.8363C162.311 28.6415 161.756 28.4154 161.335 27.9633C161.159 27.7743 160.951 27.5275 160.867 27.2655C160.758 26.9214 160.948 26.6101 161.092 26.3234C161.854 24.8029 164.922 21.6077 166.587 20.9124Z" fill="#B9517A"/>
<path fill-rule="evenodd" clip-rule="evenodd" d="M185.655 59.4316C185.606 58.9898 185.555 58.5465 185.502 58.1017L185.008 58.2434C184.951 58.1509 184.892 58.0604 184.832 57.9718L170.083 57.5717C168.626 66.2386 160.842 73.1023 155.608 79.2915C147.471 88.9127 134.215 98.7552 138.709 116.265C142.759 132.042 159.269 137.679 188.238 133.175C189.553 125.355 184.891 116.333 186.299 106.788C187.639 97.7012 190.674 69.9712 185.655 59.4316Z" fill="#B9517A"/>
<path fill-rule="evenodd" clip-rule="evenodd" d="M157.787 115.714C157.722 110.209 157.696 106.537 157.71 104.699C148.506 112.494 143.301 116.33 142.095 116.208C139.827 115.977 138.534 113.528 137.963 114.035C136.769 116.362 137.921 122.99 141.964 124.706C143.895 125.525 147.741 121.689 149.282 120.365C149.888 119.844 152.723 118.294 157.787 115.714ZM149.35 84.7944C147.369 84.4101 146.156 85.0835 144.686 86.6315C143.216 88.1795 140.7 96.337 142.581 96.7018C144.462 97.0667 152.888 95.3588 153.253 93.1829C153.619 91.0071 148.396 89.0426 148.672 87.4045C148.947 85.7665 151.332 85.1788 149.35 84.7944Z" fill="#DEABBF"/>
<path fill-rule="evenodd" clip-rule="evenodd" d="M160.427 124.584C160.468 125.059 160.511 125.544 160.554 126.037C185.839 113.538 189.283 93.1162 186.455 68.9285C187.699 92.4418 182.453 111.052 160.427 124.584Z" fill="#3B1427" fill-opacity="0.6"/>
<path fill-rule="evenodd" clip-rule="evenodd" d="M90.5111 31.2333C92.2542 38.1325 94.5259 53.6405 92.2078 56.0731H77.5426C77.5411 56.0452 77.5396 56.0173 77.5382 55.9895C72.1026 55.3434 67.875 50.3935 67.875 44.383V32.9767C67.875 26.5272 72.7428 21.2988 78.7475 21.2988H79.7589C85.212 21.2988 89.7275 25.6107 90.5111 31.2333Z" fill="#B9517A"/>
<path fill-rule="evenodd" clip-rule="evenodd" d="M90.5111 31.2333C92.2542 38.1325 94.5259 53.6405 92.2078 56.0731H77.5426C77.5411 56.0452 77.5396 56.0173 77.5382 55.9895C72.1026 55.3434 67.875 50.3935 67.875 44.383V32.9767C67.875 26.5272 72.7428 21.2988 78.7475 21.2988H79.7589C85.212 21.2988 89.7275 25.6107 90.5111 31.2333Z" fill="#3B1427" fill-opacity="0.6"/>
<path fill-rule="evenodd" clip-rule="evenodd" d="M73.5698 42.2052C71.2396 39.2674 69.6625 35.6671 69.926 31.6329C70.6853 20.009 85.7502 22.5661 88.6806 28.4328C91.611 34.2996 91.2628 49.1809 87.4755 50.2295C85.9651 50.6476 82.7476 49.6233 79.4729 47.5033L81.5284 63.1222H69.3916L73.5698 42.2052Z" fill="#B9517A"/>
<path fill-rule="evenodd" clip-rule="evenodd" d="M76.8508 40.2412C77.41 46.6928 77.186 54.0604 75.5195 55.8093H60.8542C60.0371 40.5609 67.934 46.4658 67.934 32.109C68.4263 31.5923 68.8916 31.0809 69.3519 30.6399L69.3356 30.2177C71.875 24.6338 75.0968 21.8418 79.0008 21.8418C84.8568 21.8418 86.7052 24.7685 88.279 27.2533C87.1021 31.5905 82.5351 32.2336 78.477 34.9371C77.9987 34.5196 77.3888 34.2695 76.7244 34.2695C75.1883 34.2695 73.9431 35.6069 73.9431 37.2568C73.9431 38.9067 75.1883 40.2442 76.7244 40.2442C76.7668 40.2442 76.8089 40.2432 76.8508 40.2412Z" fill="#B9517A"/>
<path fill-rule="evenodd" clip-rule="evenodd" d="M76.8508 40.2412C77.41 46.6928 77.186 54.0604 75.5195 55.8093H60.8542C60.0371 40.5609 67.934 46.4658 67.934 32.109C68.4263 31.5923 68.8916 31.0809 69.3519 30.6399L69.3356 30.2177C71.875 24.6338 75.0968 21.8418 79.0008 21.8418C84.8568 21.8418 86.7052 24.7685 88.279 27.2533C87.1021 31.5905 82.5351 32.2336 78.477 34.9371C77.9987 34.5196 77.3888 34.2695 76.7244 34.2695C75.1883 34.2695 73.9431 35.6069 73.9431 37.2568C73.9431 38.9067 75.1883 40.2442 76.7244 40.2442C76.7668 40.2442 76.8089 40.2432 76.8508 40.2412Z" fill="#3B1427" fill-opacity="0.6"/>
<path fill-rule="evenodd" clip-rule="evenodd" d="M106.73 92.0777L126.697 89.1525C130.691 86.7663 134.365 85.1509 137.72 84.3063C138.664 84.2767 140.166 84.6453 137.929 86.6485C135.691 88.6518 133.421 90.8678 133.82 91.9369C134.219 93.006 136.299 92.6082 136.644 94.2525C136.874 95.3488 133.497 95.5269 126.514 94.7869L110.313 101.686L106.73 92.0777ZM44.0086 97.0416L55.0821 97.0862C42.9397 126.435 36.6085 141.802 36.0884 143.186C34.9183 146.301 37.3945 151.044 38.4534 153.594C35.0045 155.251 35.372 149.113 31.0213 151.287C27.0502 153.271 24.0294 156.866 19.4414 153.826C18.8773 153.452 18.2592 152.044 19.7527 150.944C23.4735 148.204 28.8354 143.408 29.5599 141.83C30.5478 139.677 35.3641 124.747 44.0086 97.0416Z" fill="#B9517A"/>
<path fill-rule="evenodd" clip-rule="evenodd" d="M74.3398 59.3189L83.0099 59.9392C85.1452 80.6885 96.7761 93.7946 122.817 89.3576L126.276 116.078C101.937 119.457 80.592 108.99 76.2174 80.6532C75.085 73.3176 74.1908 65.6835 74.3398 59.3189Z" fill="#B9517A"/>
<path fill-rule="evenodd" clip-rule="evenodd" d="M74.3398 59.3189L83.0099 59.9392C85.1452 80.6885 96.7761 93.7946 122.817 89.3576L126.276 116.078C101.937 119.457 80.592 108.99 76.2174 80.6532C75.085 73.3176 74.1908 65.6835 74.3398 59.3189Z" fill="#3B1427" fill-opacity="0.6"/>
<path fill-rule="evenodd" clip-rule="evenodd" d="M70.062 56.6122L83.1984 59.8436C83.1984 84.1114 90.3957 99.5947 94.0873 117.437L57.6428 126.178C57.143 132.343 57.8027 129.939 57.6428 136.448H31.0781C37.0978 102.046 49.8034 75.4315 69.1947 56.6035H70.0551L70.062 56.6122Z" fill="#DEABBF"/>
<path fill-rule="evenodd" clip-rule="evenodd" d="M64.207 82.8154C63.2927 97.9376 64.3024 116.283 66.2922 124.241L57.5791 126.178C58.5691 113.964 61.3465 93.6828 64.207 82.8154Z" fill="#B9517A"/>
<path d="M118.002 28.7871C118.158 27.2767 118.913 25.8704 120.267 24.5684C121.622 23.2402 123.171 22.4199 124.916 22.1074C125.332 22.0553 125.749 22.0293 126.166 22.0293C126.687 22.0293 127.221 22.0814 127.767 22.1855C128.705 22.3939 129.603 22.8626 130.463 23.5918C131.348 24.347 131.947 25.1283 132.26 25.9355C132.52 26.6126 132.65 27.3027 132.65 28.0059V28.5137C132.52 30.1022 131.908 31.6647 130.814 33.2012C129.721 34.7376 128.705 36.0658 127.767 37.1855C127.273 37.7585 126.973 38.5397 126.869 39.5293C126.765 40.4928 126.752 41.4434 126.83 42.3809C126.882 42.8757 126.96 43.3444 127.064 43.7871C127.142 44.2038 127.234 44.5684 127.338 44.8809C127.26 45.6621 126.973 46.4564 126.478 47.2637C125.984 48.071 125.424 48.5007 124.799 48.5527H124.721C124.46 48.5527 124.2 48.4746 123.939 48.3184C123.653 48.1361 123.379 47.8366 123.119 47.4199C121.947 45.6491 121.322 43.9824 121.244 42.4199C121.166 40.8314 121.387 39.347 121.908 37.9668C122.533 36.3001 123.366 34.7637 124.408 33.3574C125.476 31.9772 126.296 30.7272 126.869 29.6074C127.207 29.0345 127.416 28.4876 127.494 27.9668C127.572 27.472 127.455 27.0163 127.142 26.5996C126.882 26.2611 126.596 26.0267 126.283 25.8965C125.971 25.7923 125.645 25.7533 125.306 25.7793C124.942 25.8314 124.577 25.9616 124.213 26.1699C123.848 26.3522 123.497 26.5866 123.158 26.873C122.507 27.3939 121.96 27.9798 121.517 28.6309C121.075 29.2819 120.853 29.7897 120.853 30.1543C120.359 30.9355 119.734 31.0527 118.978 30.5059C118.301 30.0371 117.976 29.5293 118.002 28.9824V28.7871ZM124.486 57.0684C123.913 56.6517 123.471 56.0007 123.158 55.1152C123.028 54.7767 122.963 54.4512 122.963 54.1387C122.963 53.722 123.106 53.3574 123.392 53.0449C123.731 52.7064 124.148 52.5371 124.642 52.5371C124.903 52.5371 125.176 52.5762 125.463 52.6543C126.348 52.9147 127.077 53.2533 127.65 53.6699C128.041 53.9564 128.288 54.4121 128.392 55.0371C128.444 55.2194 128.471 55.3757 128.471 55.5059C128.444 55.9225 128.314 56.248 128.08 56.4824C127.663 56.9251 127.077 57.2246 126.322 57.3809C126.114 57.4069 125.918 57.4199 125.736 57.4199C125.241 57.446 124.825 57.3288 124.486 57.0684ZM122.885 85.1074C123.223 84.1439 123.848 83.6621 124.76 83.6621C124.864 83.6621 124.981 83.6751 125.111 83.7012C126.205 83.8314 127.051 84.6908 127.65 86.2793C128.015 88.0241 128.236 89.7689 128.314 91.5137C128.366 92.321 128.392 93.1283 128.392 93.9355C128.392 94.821 128.366 95.6803 128.314 96.5137C128.158 99.4824 127.872 102.048 127.455 104.209C127.064 106.37 126.986 107.712 127.221 108.232C127.038 108.805 126.465 109.196 125.502 109.404C125.163 109.482 124.851 109.521 124.564 109.521C123.965 109.521 123.418 109.391 122.924 109.131C122.663 108.975 122.442 108.792 122.26 108.584C122.051 108.376 121.895 108.128 121.791 107.842C122.494 105.029 122.976 101.748 123.236 97.998C123.497 94.248 123.379 89.9512 122.885 85.1074ZM124.721 120.537H124.603C123.926 120.537 123.197 120.303 122.416 119.834C121.661 119.365 121.27 118.805 121.244 118.154C121.244 118.102 121.257 118.05 121.283 117.998C121.335 117.243 121.804 116.683 122.689 116.318C123.575 115.954 124.395 115.758 125.15 115.732H125.228C125.697 115.732 126.166 115.928 126.635 116.318C127.103 116.735 127.338 117.165 127.338 117.607C127.338 117.633 127.325 117.673 127.299 117.725C127.247 118.35 126.973 118.962 126.478 119.561C125.957 120.186 125.372 120.511 124.721 120.537Z" fill="#B9517A"/>
<path d="M85.2845 179V163.6H88.2545V179H85.2845ZM91.1702 179V168.044H93.7882L94.0082 169.87C94.3456 169.254 94.8296 168.755 95.4602 168.374C96.0909 167.978 96.8462 167.78 97.7262 167.78C98.6356 167.78 99.4056 167.978 100.036 168.374C100.667 168.755 101.151 169.32 101.488 170.068C101.826 170.816 101.994 171.733 101.994 172.818V179H99.0242V173.104C99.0242 172.195 98.8409 171.498 98.4742 171.014C98.1076 170.53 97.5282 170.288 96.7362 170.288C96.2376 170.288 95.7902 170.413 95.3942 170.662C94.9982 170.897 94.6902 171.241 94.4702 171.696C94.2502 172.136 94.1402 172.679 94.1402 173.324V179H91.1702ZM105.168 179V166.922C105.168 165.998 105.322 165.265 105.63 164.722C105.953 164.179 106.4 163.783 106.972 163.534C107.544 163.285 108.219 163.16 108.996 163.16H110.25V165.69H109.458C108.989 165.69 108.651 165.785 108.446 165.976C108.241 166.152 108.138 166.467 108.138 166.922V179H105.168ZM103.672 170.53V168.044H110.448V170.53H103.672ZM117.547 179.264C116.491 179.264 115.538 179.022 114.687 178.538C113.851 178.039 113.184 177.365 112.685 176.514C112.187 175.649 111.937 174.659 111.937 173.544C111.937 172.4 112.187 171.395 112.685 170.53C113.184 169.665 113.859 168.99 114.709 168.506C115.56 168.022 116.506 167.78 117.547 167.78C118.618 167.78 119.571 168.022 120.407 168.506C121.258 168.99 121.925 169.665 122.409 170.53C122.908 171.395 123.157 172.4 123.157 173.544C123.157 174.659 122.908 175.649 122.409 176.514C121.925 177.365 121.258 178.039 120.407 178.538C119.557 179.022 118.603 179.264 117.547 179.264ZM117.547 176.69C118.031 176.69 118.464 176.573 118.845 176.338C119.227 176.103 119.535 175.751 119.769 175.282C120.019 174.813 120.143 174.226 120.143 173.522C120.143 172.818 120.026 172.231 119.791 171.762C119.557 171.293 119.241 170.941 118.845 170.706C118.464 170.471 118.039 170.354 117.569 170.354C117.1 170.354 116.667 170.471 116.271 170.706C115.875 170.941 115.56 171.293 115.325 171.762C115.091 172.231 114.973 172.818 114.973 173.522C114.973 174.226 115.091 174.813 115.325 175.282C115.56 175.751 115.868 176.103 116.249 176.338C116.645 176.573 117.078 176.69 117.547 176.69ZM125.96 173.852V171.366H135.244V173.852H125.96ZM26.9942 211L21.4062 195.6H24.5742L28.8202 207.964L33.1102 195.6H36.2562L30.6462 211H26.9942ZM42.0319 211.264C40.9172 211.264 39.9272 211.029 39.0619 210.56C38.2112 210.076 37.5439 209.416 37.0599 208.58C36.5759 207.729 36.3339 206.747 36.3339 205.632C36.3339 204.488 36.5685 203.483 37.0379 202.618C37.5219 201.738 38.1892 201.049 39.0399 200.55C39.9052 200.037 40.9099 199.78 42.0539 199.78C43.1392 199.78 44.0925 200.022 44.9139 200.506C45.7499 200.975 46.3952 201.621 46.8499 202.442C47.3192 203.249 47.5539 204.165 47.5539 205.192C47.5539 205.339 47.5465 205.507 47.5319 205.698C47.5319 205.874 47.5245 206.057 47.5099 206.248H38.4679V204.444H44.5399C44.4959 203.755 44.2392 203.212 43.7699 202.816C43.3152 202.405 42.7432 202.2 42.0539 202.2C41.5405 202.2 41.0712 202.317 40.6459 202.552C40.2205 202.772 39.8832 203.109 39.6339 203.564C39.3845 204.019 39.2599 204.598 39.2599 205.302V205.94C39.2599 206.527 39.3772 207.04 39.6119 207.48C39.8465 207.905 40.1692 208.243 40.5799 208.492C41.0052 208.727 41.4819 208.844 42.0099 208.844C42.5525 208.844 43.0072 208.727 43.3739 208.492C43.7405 208.243 44.0192 207.927 44.2099 207.546H47.2239C47.0185 208.25 46.6739 208.881 46.1899 209.438C45.7059 209.995 45.1119 210.443 44.4079 210.78C43.7039 211.103 42.9119 211.264 42.0319 211.264ZM49.9202 211V200.044H52.5602L52.8462 202.09C53.1102 201.621 53.4329 201.217 53.8142 200.88C54.2102 200.528 54.6649 200.257 55.1782 200.066C55.6916 199.875 56.2489 199.78 56.8502 199.78V202.926H56.0142C55.5596 202.926 55.1342 202.977 54.7382 203.08C54.3569 203.183 54.0269 203.351 53.7482 203.586C53.4696 203.821 53.2569 204.143 53.1102 204.554C52.9636 204.95 52.8902 205.449 52.8902 206.05V211H49.9202ZM62.5553 211.264C61.6313 211.264 60.8613 211.117 60.2453 210.824C59.6439 210.531 59.1966 210.135 58.9033 209.636C58.6099 209.123 58.4633 208.565 58.4633 207.964C58.4633 207.289 58.6393 206.703 58.9913 206.204C59.3433 205.691 59.8639 205.287 60.5533 204.994C61.2573 204.701 62.1446 204.554 63.2153 204.554H65.9653C65.9653 204.026 65.8846 203.593 65.7233 203.256C65.5766 202.904 65.3493 202.64 65.0413 202.464C64.7333 202.288 64.3299 202.2 63.8313 202.2C63.2739 202.2 62.7899 202.325 62.3793 202.574C61.9686 202.823 61.7193 203.205 61.6313 203.718H58.7493C58.8373 202.911 59.1013 202.222 59.5413 201.65C59.9959 201.063 60.5973 200.609 61.3453 200.286C62.0933 199.949 62.9219 199.78 63.8313 199.78C64.8873 199.78 65.7893 199.956 66.5373 200.308C67.2999 200.66 67.8866 201.166 68.2973 201.826C68.7226 202.486 68.9353 203.3 68.9353 204.268V211H66.4273L66.0973 209.306C65.9359 209.599 65.7453 209.863 65.5253 210.098C65.3053 210.333 65.0486 210.538 64.7553 210.714C64.4619 210.89 64.1319 211.022 63.7653 211.11C63.3986 211.213 62.9953 211.264 62.5553 211.264ZM63.2593 208.976C63.6553 208.976 63.9999 208.91 64.2933 208.778C64.6013 208.631 64.8579 208.441 65.0633 208.206C65.2833 207.971 65.4519 207.7 65.5693 207.392C65.7013 207.069 65.7893 206.732 65.8333 206.38H63.5453C63.1053 206.38 62.7386 206.439 62.4453 206.556C62.1519 206.659 61.9393 206.813 61.8073 207.018C61.6753 207.223 61.6093 207.451 61.6093 207.7C61.6093 207.979 61.6753 208.213 61.8073 208.404C61.9393 208.595 62.1299 208.741 62.3793 208.844C62.6286 208.932 62.9219 208.976 63.2593 208.976ZM71.6195 211V200.044H74.2375L74.4575 201.87C74.7948 201.254 75.2788 200.755 75.9095 200.374C76.5401 199.978 77.2955 199.78 78.1755 199.78C79.0848 199.78 79.8548 199.978 80.4855 200.374C81.1161 200.755 81.6001 201.32 81.9375 202.068C82.2748 202.816 82.4435 203.733 82.4435 204.818V211H79.4735V205.104C79.4735 204.195 79.2901 203.498 78.9235 203.014C78.5568 202.53 77.9775 202.288 77.1855 202.288C76.6868 202.288 76.2395 202.413 75.8435 202.662C75.4475 202.897 75.1395 203.241 74.9195 203.696C74.6995 204.136 74.5895 204.679 74.5895 205.324V211H71.6195ZM89.6651 211.264C88.6971 211.264 87.8391 211.103 87.0911 210.78C86.3431 210.457 85.7491 210.017 85.3091 209.46C84.8691 208.888 84.6125 208.243 84.5391 207.524H87.5091C87.5678 207.788 87.6925 208.037 87.8831 208.272C88.0738 208.492 88.3158 208.668 88.6091 208.8C88.9025 208.932 89.2398 208.998 89.6211 208.998C90.0318 208.998 90.3618 208.947 90.6111 208.844C90.8605 208.727 91.0438 208.58 91.1611 208.404C91.2785 208.213 91.3371 208.023 91.3371 207.832C91.3371 207.524 91.2491 207.297 91.0731 207.15C90.8971 206.989 90.6331 206.857 90.2811 206.754C89.9438 206.651 89.5405 206.541 89.0711 206.424C88.5871 206.321 88.0958 206.197 87.5971 206.05C87.0985 205.903 86.6438 205.713 86.2331 205.478C85.8371 205.243 85.5145 204.95 85.2651 204.598C85.0158 204.231 84.8911 203.784 84.8911 203.256C84.8911 202.611 85.0671 202.024 85.4191 201.496C85.7858 200.968 86.2991 200.55 86.9591 200.242C87.6338 199.934 88.4405 199.78 89.3791 199.78C90.6845 199.78 91.7258 200.088 92.5031 200.704C93.2951 201.305 93.7571 202.134 93.8891 203.19H91.0951C91.0218 202.838 90.8311 202.567 90.5231 202.376C90.2298 202.171 89.8411 202.068 89.3571 202.068C88.8438 202.068 88.4478 202.163 88.1691 202.354C87.9051 202.545 87.7731 202.787 87.7731 203.08C87.7731 203.271 87.8685 203.447 88.0591 203.608C88.2498 203.755 88.5138 203.887 88.8511 204.004C89.1885 204.107 89.5918 204.217 90.0611 204.334C90.8531 204.51 91.5645 204.708 92.1951 204.928C92.8405 205.148 93.3538 205.463 93.7351 205.874C94.1165 206.285 94.3071 206.879 94.3071 207.656C94.3218 208.345 94.1385 208.969 93.7571 209.526C93.3758 210.069 92.8405 210.494 92.1511 210.802C91.4618 211.11 90.6331 211.264 89.6651 211.264ZM101.384 211C100.621 211 99.9466 210.883 99.3599 210.648C98.7732 210.399 98.3186 209.995 97.9959 209.438C97.6732 208.866 97.5119 208.089 97.5119 207.106V202.53H95.6419V200.044H97.5119L97.8419 197.074H100.482V200.044H103.408V202.53H100.482V207.15C100.482 207.649 100.592 207.993 100.812 208.184C101.032 208.375 101.406 208.47 101.934 208.47H103.342V211H101.384ZM109.606 211.264C108.682 211.264 107.912 211.117 107.296 210.824C106.695 210.531 106.247 210.135 105.954 209.636C105.661 209.123 105.514 208.565 105.514 207.964C105.514 207.289 105.69 206.703 106.042 206.204C106.394 205.691 106.915 205.287 107.604 204.994C108.308 204.701 109.195 204.554 110.266 204.554H113.016C113.016 204.026 112.935 203.593 112.774 203.256C112.627 202.904 112.4 202.64 112.092 202.464C111.784 202.288 111.381 202.2 110.882 202.2C110.325 202.2 109.841 202.325 109.43 202.574C109.019 202.823 108.77 203.205 108.682 203.718H105.8C105.888 202.911 106.152 202.222 106.592 201.65C107.047 201.063 107.648 200.609 108.396 200.286C109.144 199.949 109.973 199.78 110.882 199.78C111.938 199.78 112.84 199.956 113.588 200.308C114.351 200.66 114.937 201.166 115.348 201.826C115.773 202.486 115.986 203.3 115.986 204.268V211H113.478L113.148 209.306C112.987 209.599 112.796 209.863 112.576 210.098C112.356 210.333 112.099 210.538 111.806 210.714C111.513 210.89 111.183 211.022 110.816 211.11C110.449 211.213 110.046 211.264 109.606 211.264ZM110.31 208.976C110.706 208.976 111.051 208.91 111.344 208.778C111.652 208.631 111.909 208.441 112.114 208.206C112.334 207.971 112.503 207.7 112.62 207.392C112.752 207.069 112.84 206.732 112.884 206.38H110.596C110.156 206.38 109.789 206.439 109.496 206.556C109.203 206.659 108.99 206.813 108.858 207.018C108.726 207.223 108.66 207.451 108.66 207.7C108.66 207.979 108.726 208.213 108.858 208.404C108.99 208.595 109.181 208.741 109.43 208.844C109.679 208.932 109.973 208.976 110.31 208.976ZM118.67 211V195.16H121.64V211H118.67ZM129.443 211C128.68 211 128.005 210.883 127.419 210.648C126.832 210.399 126.377 209.995 126.055 209.438C125.732 208.866 125.571 208.089 125.571 207.106V202.53H123.701V200.044H125.571L125.901 197.074H128.541V200.044H131.467V202.53H128.541V207.15C128.541 207.649 128.651 207.993 128.87 208.184C129.091 208.375 129.465 208.47 129.993 208.47H131.401V211H129.443ZM137.995 211.264C137.1 211.264 136.33 211.073 135.685 210.692C135.054 210.311 134.57 209.746 134.233 208.998C133.91 208.25 133.749 207.333 133.749 206.248V200.044H136.697V205.962C136.697 206.871 136.88 207.568 137.247 208.052C137.613 208.521 138.193 208.756 138.985 208.756C139.483 208.756 139.931 208.639 140.327 208.404C140.723 208.169 141.031 207.832 141.251 207.392C141.471 206.937 141.581 206.387 141.581 205.742V200.044H144.551V211H141.933L141.713 209.174C141.375 209.805 140.891 210.311 140.261 210.692C139.63 211.073 138.875 211.264 137.995 211.264ZM147.416 211V200.044H150.034L150.254 201.87C150.592 201.254 151.076 200.755 151.706 200.374C152.337 199.978 153.092 199.78 153.972 199.78C154.882 199.78 155.652 199.978 156.282 200.374C156.913 200.755 157.397 201.32 157.734 202.068C158.072 202.816 158.24 203.733 158.24 204.818V211H155.27V205.104C155.27 204.195 155.087 203.498 154.72 203.014C154.354 202.53 153.774 202.288 152.982 202.288C152.484 202.288 152.036 202.413 151.64 202.662C151.244 202.897 150.936 203.241 150.716 203.696C150.496 204.136 150.386 204.679 150.386 205.324V211H147.416ZM165.704 216.104C164.648 216.104 163.724 215.972 162.932 215.708C162.155 215.459 161.553 215.07 161.128 214.542C160.703 214.029 160.49 213.391 160.49 212.628C160.49 212.115 160.622 211.631 160.886 211.176C161.15 210.736 161.531 210.333 162.03 209.966C162.543 209.585 163.174 209.262 163.922 208.998L165.022 210.472C164.362 210.692 163.885 210.963 163.592 211.286C163.299 211.609 163.152 211.953 163.152 212.32C163.152 212.657 163.262 212.943 163.482 213.178C163.717 213.413 164.025 213.581 164.406 213.684C164.787 213.801 165.213 213.86 165.682 213.86C166.137 213.86 166.533 213.801 166.87 213.684C167.222 213.567 167.493 213.391 167.684 213.156C167.889 212.936 167.992 212.679 167.992 212.386C167.992 211.99 167.853 211.667 167.574 211.418C167.295 211.169 166.745 211.015 165.924 210.956C165.176 210.897 164.516 210.817 163.944 210.714C163.372 210.597 162.866 210.465 162.426 210.318C162.001 210.157 161.634 209.988 161.326 209.812C161.018 209.621 160.776 209.431 160.6 209.24V208.734L162.954 206.182L165.022 206.864L162.294 209.614L163.152 208.162C163.299 208.25 163.453 208.338 163.614 208.426C163.775 208.499 163.966 208.573 164.186 208.646C164.421 208.705 164.721 208.763 165.088 208.822C165.469 208.866 165.946 208.91 166.518 208.954C167.486 209.042 168.278 209.225 168.894 209.504C169.51 209.783 169.965 210.157 170.258 210.626C170.551 211.095 170.698 211.66 170.698 212.32C170.698 212.965 170.515 213.574 170.148 214.146C169.796 214.733 169.246 215.202 168.498 215.554C167.765 215.921 166.833 216.104 165.704 216.104ZM165.704 207.766C164.78 207.766 163.981 207.59 163.306 207.238C162.646 206.871 162.133 206.387 161.766 205.786C161.414 205.185 161.238 204.517 161.238 203.784C161.238 203.036 161.414 202.369 161.766 201.782C162.133 201.181 162.646 200.697 163.306 200.33C163.981 199.963 164.78 199.78 165.704 199.78C166.628 199.78 167.42 199.963 168.08 200.33C168.755 200.697 169.268 201.181 169.62 201.782C169.987 202.369 170.17 203.036 170.17 203.784C170.17 204.517 169.987 205.185 169.62 205.786C169.268 206.387 168.755 206.871 168.08 207.238C167.42 207.59 166.628 207.766 165.704 207.766ZM165.704 205.5C166.261 205.5 166.716 205.353 167.068 205.06C167.42 204.767 167.596 204.341 167.596 203.784C167.596 203.241 167.42 202.823 167.068 202.53C166.716 202.237 166.261 202.09 165.704 202.09C165.147 202.09 164.685 202.237 164.318 202.53C163.966 202.823 163.79 203.241 163.79 203.784C163.79 204.341 163.966 204.767 164.318 205.06C164.685 205.353 165.147 205.5 165.704 205.5ZM167.508 202.156L167.024 200.044H171.6V201.804L167.508 202.156ZM178.952 211.264C177.837 211.264 176.847 211.029 175.982 210.56C175.131 210.076 174.464 209.416 173.98 208.58C173.496 207.729 173.254 206.747 173.254 205.632C173.254 204.488 173.488 203.483 173.958 202.618C174.442 201.738 175.109 201.049 175.96 200.55C176.825 200.037 177.83 199.78 178.974 199.78C180.059 199.78 181.012 200.022 181.834 200.506C182.67 200.975 183.315 201.621 183.77 202.442C184.239 203.249 184.474 204.165 184.474 205.192C184.474 205.339 184.466 205.507 184.452 205.698C184.452 205.874 184.444 206.057 184.43 206.248H175.388V204.444H181.46C181.416 203.755 181.159 203.212 180.69 202.816C180.235 202.405 179.663 202.2 178.974 202.2C178.46 202.2 177.991 202.317 177.566 202.552C177.14 202.772 176.803 203.109 176.554 203.564C176.304 204.019 176.18 204.598 176.18 205.302V205.94C176.18 206.527 176.297 207.04 176.532 207.48C176.766 207.905 177.089 208.243 177.5 208.492C177.925 208.727 178.402 208.844 178.93 208.844C179.472 208.844 179.927 208.727 180.294 208.492C180.66 208.243 180.939 207.927 181.13 207.546H184.144C183.938 208.25 183.594 208.881 183.11 209.438C182.626 209.995 182.032 210.443 181.328 210.78C180.624 211.103 179.832 211.264 178.952 211.264ZM186.84 211V200.044H189.458L189.678 201.87C190.015 201.254 190.499 200.755 191.13 200.374C191.761 199.978 192.516 199.78 193.396 199.78C194.305 199.78 195.075 199.978 195.706 200.374C196.337 200.755 196.821 201.32 197.158 202.068C197.495 202.816 197.664 203.733 197.664 204.818V211H194.694V205.104C194.694 204.195 194.511 203.498 194.144 203.014C193.777 202.53 193.198 202.288 192.406 202.288C191.907 202.288 191.46 202.413 191.064 202.662C190.668 202.897 190.36 203.241 190.14 203.696C189.92 204.136 189.81 204.679 189.81 205.324V211H186.84Z" fill="#3B1427"/>
</svg>
