
<svg width="220" height="220" viewBox="0 0 220 220" fill="none" xmlns="http://www.w3.org/2000/svg">
<path fill-rule="evenodd" clip-rule="evenodd" d="M45.6006 38.5222C42.7843 35.1337 40.8782 30.9812 41.1967 26.3281C42.1144 12.9213 60.3217 15.8706 63.8634 22.6372C67.4051 29.4038 66.9842 46.5679 62.4069 47.7773C60.5815 48.2596 56.6928 47.0781 52.735 44.6329L55.2192 62.6476H40.5508L45.6006 38.5222Z" fill="#DEABBF"/>
<path fill-rule="evenodd" clip-rule="evenodd" d="M58.0692 15.2671C56.0649 14.6407 53.1553 14.4282 51.9313 14.5719C52.6276 12.862 52.9039 10.957 52.6786 9.10208C52.4597 7.29971 51.674 5.76504 50.9473 4.15689C50.6124 3.41564 50.2328 2.67842 49.6668 2.11145C49.0903 1.53382 48.3605 1.15254 47.5952 0.970636C46.8121 0.78444 45.9932 0.799943 45.2088 0.968919C44.8618 1.04366 44.5505 1.20627 44.2102 1.29667C43.8617 1.38929 43.6927 1.16572 43.4397 0.941043C42.8302 0.399673 41.9366 0.132423 41.1654 0.0367742C40.3002 -0.0704896 39.4024 0.0632872 38.5773 0.354829C37.7741 0.638644 37.0025 1.09951 36.4218 1.77092C36.1633 2.06979 35.9286 2.40996 35.7761 2.78554C35.7135 2.93967 35.7032 3.03097 35.5531 3.08743C35.4143 3.1397 35.252 3.14121 35.1088 3.19096C33.724 3.67173 32.5399 4.7685 31.8952 6.17672C31.5191 6.99827 31.3409 8.44473 31.3897 10.066C31.4385 11.6872 32.8667 15.9175 34.2025 17.4605C35.3948 18.8377 37.1473 19.7466 38.8387 20.1445C37.716 21.4597 36.9687 23.1033 36.4161 24.7749C35.8159 26.5907 35.4444 28.4774 35.3072 30.3997C35.1769 32.2261 35.1648 34.1575 35.5825 35.945C35.9733 37.6165 36.809 38.9877 38.2041 39.8577C38.8431 40.2562 39.5307 40.5555 40.2222 40.8292C40.9037 41.0988 41.5873 41.3609 42.3012 41.5122C43.6523 41.7985 45.2091 41.7493 46.2499 40.647C46.625 40.2496 47.0375 39.7503 47.3112 39.2648C47.4095 39.0902 47.4689 38.976 47.3493 38.8054C47.2061 38.601 46.9745 38.4444 46.7905 38.2845C45.7414 37.3729 45.0919 36.156 44.9282 34.7097C44.7621 33.2423 45.1467 31.3483 46.5385 30.7079C48.2567 29.9173 50.1488 30.8247 51.6759 31.6706C52.3249 29.3227 53.6574 27.2087 55.7467 26.1317C58.0581 24.9402 60.7103 24.8008 63.0856 23.7785C63.7046 23.5121 64.335 23.2097 64.7908 22.6669C64.9812 22.4401 65.2046 22.1458 65.2806 21.8458C65.3805 21.4517 65.1325 21.1212 64.941 20.814C63.9253 19.1849 60.0736 15.8936 58.0692 15.2671Z" fill="#B9517A"/>
<path fill-rule="evenodd" clip-rule="evenodd" d="M158.033 82.9143C149.549 84.0471 137.974 84.0338 124.72 78.7795L121.648 89.0918C131.259 95.4297 144.013 99.9405 154.187 98.213C162.205 96.8517 164.788 87.3694 158.033 82.9143Z" fill="#B9517A"/>
<path fill-rule="evenodd" clip-rule="evenodd" d="M158.033 82.9143C149.549 84.0471 137.974 84.0338 124.72 78.7795L121.648 89.0918C131.259 95.4297 144.013 99.9405 154.187 98.213C162.205 96.8517 164.788 87.3694 158.033 82.9143Z" fill="#3B1427" fill-opacity="0.6"/>
<path fill-rule="evenodd" clip-rule="evenodd" d="M99.1893 86.2326L89.3227 90.0364L82.626 83.4415C87.4084 82.2579 91.2797 80.65 94.24 78.6176C99.9018 74.7305 102.691 73.5962 107.882 73.8267C110.659 73.9501 114.945 75.7493 114.968 77.9756C114.977 78.8296 112.473 79.781 109.917 80.7517C107.97 81.4915 105.992 82.2426 105.076 82.9703C103.842 83.9499 105.463 85.1325 106.758 86.0775C107.687 86.7556 108.449 87.3114 107.868 87.5821C106.671 88.9645 103.778 88.5147 99.1893 86.2326Z" fill="#DEABBF"/>
<path fill-rule="evenodd" clip-rule="evenodd" d="M64.9713 86.5579C72.3385 86.4781 82.1628 84.8832 92.6453 78.0629L96.762 87.4731C89.5314 94.8283 79.3645 100.872 70.4748 100.616C63.4692 100.414 59.8887 91.7281 64.9713 86.5579Z" fill="#B9517A"/>
<path fill-rule="evenodd" clip-rule="evenodd" d="M64.9713 86.5579C72.3385 86.4781 82.1628 84.8832 92.6453 78.0629L96.762 87.4731C89.5314 94.8283 79.3645 100.872 70.4748 100.616C63.4692 100.414 59.8887 91.7281 64.9713 86.5579Z" fill="#3B1427" fill-opacity="0.6"/>
<ellipse cx="9.78297" cy="12.4241" rx="9.78297" ry="12.4241" transform="matrix(0.996361 -0.080237 0.0764533 0.997469 102.265 44.3936)" fill="#DEABBF"/>
<ellipse cx="5.78659" cy="12.4294" rx="5.78659" ry="12.4294" transform="matrix(0.999599 0.0240978 -0.0229415 0.999842 108.109 92.1611)" fill="#DEABBF"/>
<ellipse cx="3.43668" cy="12.4084" rx="3.43668" ry="12.4084" transform="matrix(0.943865 0.332683 -0.317816 0.947364 106.437 84.2891)" fill="#DEABBF"/>
<ellipse cx="11.1481" cy="18.8079" rx="11.1481" ry="18.8079" transform="matrix(0.986533 0.165433 -0.157565 0.987212 105.173 63.7061)" fill="#DEABBF"/>
<path fill-rule="evenodd" clip-rule="evenodd" d="M109.565 85.3215L100.326 90.5239L100.852 100.028C104.842 97.0762 108.552 95.1101 111.984 94.1293C118.548 92.2533 121.204 90.8207 124.412 86.6314C126.128 84.3899 127.584 79.884 125.951 78.4165C125.324 77.8536 122.989 79.1835 120.607 80.5404C118.792 81.5745 116.948 82.6244 115.813 82.864C114.284 83.1866 114.463 81.1556 114.606 79.5327C114.709 78.3681 114.793 77.4136 114.214 77.6896C112.411 77.7213 110.862 80.2652 109.565 85.3215Z" fill="#DEABBF"/>
<path fill-rule="evenodd" clip-rule="evenodd" d="M67.0606 93.0214C74.8818 95.0208 87.9975 92.663 106.408 85.948C110.974 95.6316 113.085 102.535 112.741 106.659C96.9474 115.115 83.4112 118.885 72.2592 119.134C72.6136 125.917 71.8082 132.371 69.1025 138.268C63.5401 150.392 30.969 139.164 20.0176 141.374C13.1595 118.544 26.4198 109.266 26.4305 94.6583C26.4422 78.6613 38.9736 54.0381 40.8173 54.0381L57.6312 54.0381C58.559 66.2552 63.2284 79.7196 67.0606 93.0214Z" fill="#B9517A"/>
<path fill-rule="evenodd" clip-rule="evenodd" d="M177.837 33.386C180.895 29.707 182.965 25.1983 182.619 20.1461C181.623 5.58949 161.854 8.79176 158.008 16.1387C154.163 23.4856 154.62 42.1217 159.59 43.4348C161.572 43.9585 165.794 42.6757 170.091 40.0208L167.394 59.5805H183.32L177.837 33.386Z" fill="#DEABBF"/>
<path fill-rule="evenodd" clip-rule="evenodd" d="M165.033 17.2047C167.194 18.4439 168.732 20.7659 170.584 23.8117C171.035 23.63 171.526 23.5303 172.04 23.5303C174.239 23.5303 176.021 25.3575 176.021 27.6115C176.021 28.7557 175.562 29.79 174.822 30.5311C175.743 31.864 176.776 33.2564 177.959 34.6932C182.374 31.978 185.658 24.0645 181.442 16.4251C177.815 1.1227 157.262 10.6207 153.308 8.0399C152.444 13.5929 155.232 18.0703 165.033 17.2047Z" fill="#3B1427"/>
<path fill-rule="evenodd" clip-rule="evenodd" d="M121.814 92.4479L131.389 97.8391L130.843 107.688C126.709 104.629 122.864 102.592 119.307 101.575C112.505 99.6313 109.753 98.1467 106.429 93.8053C104.651 91.4825 103.141 86.813 104.834 85.2923C105.483 84.709 107.903 86.0871 110.372 87.4933C112.253 88.5649 114.163 89.6529 115.34 89.9012C116.924 90.2355 116.739 88.1308 116.59 86.449C116.484 85.2421 116.397 84.253 116.997 84.539C118.865 84.5718 120.471 87.2081 121.814 92.4479Z" fill="#DEABBF"/>
<path fill-rule="evenodd" clip-rule="evenodd" d="M153.911 96.2614C145.806 98.3333 146.929 98.0706 127.85 91.112C123.118 101.147 125.609 105.827 125.966 110.101C142.333 118.864 144.492 119.434 151.085 126.193C152.053 130.277 151.214 130.599 152.472 133.341C158.236 145.905 201.009 142.285 201.951 134.882C201.951 98.9076 200.067 102.376 196.693 88.1488C194.503 76.142 185.707 46.2149 182.244 43.6526C182.012 43.4809 181.715 43.5278 181.441 43.6212L179.03 44.445L166.558 45.8131C165.381 45.9422 164.576 47.0566 164.702 48.2337C166.117 61.4468 157.668 83.2224 153.911 96.2614Z" fill="#B9517A"/>
<path d="M47.3519 211.524L43.3039 196.124H46.4939L49.1559 208.158L52.3459 196.124H55.6019L58.6819 208.158L61.3879 196.124H64.5779L60.4419 211.524H56.8999L53.9299 200.304L50.8719 211.524H47.3519ZM70.6255 211.788C69.5695 211.788 68.6162 211.546 67.7655 211.062C66.9295 210.564 66.2622 209.889 65.7635 209.038C65.2648 208.173 65.0155 207.183 65.0155 206.068C65.0155 204.924 65.2648 203.92 65.7635 203.054C66.2622 202.189 66.9368 201.514 67.7875 201.03C68.6382 200.546 69.5842 200.304 70.6255 200.304C71.6962 200.304 72.6495 200.546 73.4855 201.03C74.3362 201.514 75.0035 202.189 75.4875 203.054C75.9862 203.92 76.2355 204.924 76.2355 206.068C76.2355 207.183 75.9862 208.173 75.4875 209.038C75.0035 209.889 74.3362 210.564 73.4855 211.062C72.6348 211.546 71.6815 211.788 70.6255 211.788ZM70.6255 209.214C71.1095 209.214 71.5422 209.097 71.9235 208.862C72.3048 208.628 72.6128 208.276 72.8475 207.806C73.0968 207.337 73.2215 206.75 73.2215 206.046C73.2215 205.342 73.1042 204.756 72.8695 204.286C72.6348 203.817 72.3195 203.465 71.9235 203.23C71.5422 202.996 71.1168 202.878 70.6475 202.878C70.1782 202.878 69.7455 202.996 69.3495 203.23C68.9535 203.465 68.6382 203.817 68.4035 204.286C68.1688 204.756 68.0515 205.342 68.0515 206.046C68.0515 206.75 68.1688 207.337 68.4035 207.806C68.6382 208.276 68.9462 208.628 69.3275 208.862C69.7235 209.097 70.1562 209.214 70.6255 209.214ZM84.1638 211.788C83.0491 211.788 82.0591 211.546 81.1938 211.062C80.3284 210.564 79.6464 209.889 79.1478 209.038C78.6638 208.173 78.4218 207.183 78.4218 206.068C78.4218 204.939 78.6638 203.949 79.1478 203.098C79.6464 202.233 80.3284 201.551 81.1938 201.052C82.0591 200.554 83.0491 200.304 84.1638 200.304C85.5718 200.304 86.7598 200.678 87.7278 201.426C88.6958 202.16 89.3118 203.172 89.5758 204.462H86.4298C86.2978 203.964 86.0264 203.575 85.6158 203.296C85.2051 203.003 84.7138 202.856 84.1418 202.856C83.6284 202.856 83.1664 202.981 82.7558 203.23C82.3598 203.48 82.0444 203.846 81.8098 204.33C81.5751 204.814 81.4578 205.386 81.4578 206.046C81.4578 206.545 81.5238 206.992 81.6558 207.388C81.8024 207.784 81.9931 208.122 82.2278 208.4C82.4771 208.679 82.7631 208.892 83.0858 209.038C83.4084 209.185 83.7604 209.258 84.1418 209.258C84.5231 209.258 84.8678 209.2 85.1758 209.082C85.4838 208.95 85.7478 208.767 85.9678 208.532C86.1878 208.283 86.3418 207.982 86.4298 207.63H89.5758C89.3118 208.892 88.6958 209.904 87.7278 210.666C86.7598 211.414 85.5718 211.788 84.1638 211.788ZM92.0941 211.524V195.684H95.0641V202.218C95.4307 201.632 95.9147 201.17 96.5161 200.832C97.1321 200.48 97.8507 200.304 98.6721 200.304C99.5814 200.304 100.351 200.502 100.982 200.898C101.613 201.28 102.089 201.844 102.412 202.592C102.749 203.34 102.918 204.264 102.918 205.364V211.524H99.9701V205.628C99.9701 204.734 99.7867 204.044 99.4201 203.56C99.0534 203.062 98.4741 202.812 97.6821 202.812C97.1981 202.812 96.7507 202.937 96.3401 203.186C95.9441 203.421 95.6287 203.766 95.3941 204.22C95.1741 204.66 95.0641 205.203 95.0641 205.848V211.524H92.0941ZM110.954 211.788C109.839 211.788 108.849 211.554 107.984 211.084C107.133 210.6 106.466 209.94 105.982 209.104C105.498 208.254 105.256 207.271 105.256 206.156C105.256 205.012 105.49 204.008 105.96 203.142C106.444 202.262 107.111 201.573 107.962 201.074C108.827 200.561 109.832 200.304 110.976 200.304C112.061 200.304 113.014 200.546 113.836 201.03C114.672 201.5 115.317 202.145 115.772 202.966C116.241 203.773 116.476 204.69 116.476 205.716C116.476 205.863 116.468 206.032 116.454 206.222C116.454 206.398 116.446 206.582 116.432 206.772H107.39V204.968H113.462C113.418 204.279 113.161 203.736 112.692 203.34C112.237 202.93 111.665 202.724 110.976 202.724C110.462 202.724 109.993 202.842 109.568 203.076C109.142 203.296 108.805 203.634 108.556 204.088C108.306 204.543 108.182 205.122 108.182 205.826V206.464C108.182 207.051 108.299 207.564 108.534 208.004C108.768 208.43 109.091 208.767 109.502 209.016C109.927 209.251 110.404 209.368 110.932 209.368C111.474 209.368 111.929 209.251 112.296 209.016C112.662 208.767 112.941 208.452 113.132 208.07H116.146C115.94 208.774 115.596 209.405 115.112 209.962C114.628 210.52 114.034 210.967 113.33 211.304C112.626 211.627 111.834 211.788 110.954 211.788ZM118.842 211.524V200.568H121.46L121.68 202.394C122.017 201.778 122.501 201.28 123.132 200.898C123.763 200.502 124.518 200.304 125.398 200.304C126.307 200.304 127.077 200.502 127.708 200.898C128.339 201.28 128.823 201.844 129.16 202.592C129.497 203.34 129.666 204.257 129.666 205.342V211.524H126.696V205.628C126.696 204.719 126.513 204.022 126.146 203.538C125.779 203.054 125.2 202.812 124.408 202.812C123.909 202.812 123.462 202.937 123.066 203.186C122.67 203.421 122.362 203.766 122.142 204.22C121.922 204.66 121.812 205.203 121.812 205.848V211.524H118.842ZM138.912 211.788C138.369 211.788 137.87 211.715 137.416 211.568C136.976 211.436 136.58 211.246 136.228 210.996C135.876 210.732 135.575 210.432 135.326 210.094L134.996 211.524H132.356V195.684H135.326V202.108C135.678 201.624 136.14 201.206 136.712 200.854C137.284 200.488 138.017 200.304 138.912 200.304C139.938 200.304 140.848 200.561 141.64 201.074C142.446 201.573 143.084 202.255 143.554 203.12C144.023 203.986 144.258 204.968 144.258 206.068C144.258 207.168 144.023 208.151 143.554 209.016C143.084 209.882 142.446 210.564 141.64 211.062C140.848 211.546 139.938 211.788 138.912 211.788ZM138.252 209.192C138.824 209.192 139.337 209.06 139.792 208.796C140.246 208.532 140.598 208.166 140.848 207.696C141.112 207.227 141.244 206.684 141.244 206.068C141.244 205.452 141.112 204.91 140.848 204.44C140.598 203.956 140.246 203.582 139.792 203.318C139.337 203.04 138.824 202.9 138.252 202.9C137.665 202.9 137.144 203.04 136.69 203.318C136.235 203.582 135.876 203.949 135.612 204.418C135.362 204.888 135.238 205.43 135.238 206.046C135.238 206.662 135.362 207.212 135.612 207.696C135.876 208.166 136.235 208.532 136.69 208.796C137.144 209.06 137.665 209.192 138.252 209.192ZM152.118 211.788C151.003 211.788 150.013 211.554 149.148 211.084C148.297 210.6 147.63 209.94 147.146 209.104C146.662 208.254 146.42 207.271 146.42 206.156C146.42 205.012 146.654 204.008 147.124 203.142C147.608 202.262 148.275 201.573 149.126 201.074C149.991 200.561 150.996 200.304 152.14 200.304C153.225 200.304 154.178 200.546 155 201.03C155.836 201.5 156.481 202.145 156.936 202.966C157.405 203.773 157.64 204.69 157.64 205.716C157.64 205.863 157.632 206.032 157.618 206.222C157.618 206.398 157.61 206.582 157.596 206.772H148.554V204.968H154.626C154.582 204.279 154.325 203.736 153.856 203.34C153.401 202.93 152.829 202.724 152.14 202.724C151.626 202.724 151.157 202.842 150.732 203.076C150.306 203.296 149.969 203.634 149.72 204.088C149.47 204.543 149.346 205.122 149.346 205.826V206.464C149.346 207.051 149.463 207.564 149.698 208.004C149.932 208.43 150.255 208.767 150.666 209.016C151.091 209.251 151.568 209.368 152.096 209.368C152.638 209.368 153.093 209.251 153.46 209.016C153.826 208.767 154.105 208.452 154.296 208.07H157.31C157.104 208.774 156.76 209.405 156.276 209.962C155.792 210.52 155.198 210.967 154.494 211.304C153.79 211.627 152.998 211.788 152.118 211.788ZM164.806 211.524C164.043 211.524 163.368 211.407 162.782 211.172C162.195 210.923 161.74 210.52 161.418 209.962C161.095 209.39 160.934 208.613 160.934 207.63V203.054H159.064V200.568H160.934L161.264 197.598H163.904V200.568H166.83V203.054H163.904V207.674C163.904 208.173 164.014 208.518 164.234 208.708C164.454 208.899 164.828 208.994 165.356 208.994H166.764V211.524H164.806ZM174.216 211.524C173.453 211.524 172.779 211.407 172.192 211.172C171.605 210.923 171.151 210.52 170.828 209.962C170.505 209.39 170.344 208.613 170.344 207.63V203.054H168.474V200.568H170.344L170.674 197.598H173.314V200.568H176.24V203.054H173.314V207.674C173.314 208.173 173.424 208.518 173.644 208.708C173.864 208.899 174.238 208.994 174.766 208.994H176.174V211.524H174.216Z" fill="#3B1427"/>
</svg>
